<svg width="281" height="115" viewBox="0 0 281 115" fill="none" xmlns="http://www.w3.org/2000/svg">
<path d="M85.251 76.636L97.4997 76.6648C97.8259 76.6686 98.1374 76.8009 98.3667 77.0329C98.596 77.2649 98.7246 77.5779 98.7246 77.9041L98.6814 86.5647C98.6776 86.8909 98.5453 87.2024 98.3133 87.4317C98.0813 87.661 97.7683 87.7896 97.4421 87.7896L72.887 87.7752C72.5583 87.7752 72.2431 87.6446 72.0107 87.4122C71.7783 87.1798 71.6477 86.8645 71.6477 86.5359V28.794C71.6477 28.4653 71.7783 28.1501 72.0107 27.9177C72.2431 27.6853 72.5583 27.5547 72.887 27.5547H97.4132C97.7419 27.5547 98.0571 27.6853 98.2896 27.9177C98.522 28.1501 98.6525 28.4653 98.6525 28.794L98.6814 37.1807C98.6833 37.3447 98.6526 37.5074 98.5912 37.6594C98.5298 37.8114 98.4388 37.9498 98.3235 38.0664C98.2082 38.183 98.071 38.2756 97.9197 38.3387C97.7684 38.4019 97.606 38.4344 97.4421 38.4344L85.2366 38.5065C84.9104 38.5103 84.5989 38.6425 84.3696 38.8745C84.1403 39.1065 84.0117 39.4196 84.0117 39.7458V75.3967C84.0117 75.7254 84.1423 76.0406 84.3747 76.273C84.6071 76.5055 84.9223 76.636 85.251 76.636Z" fill="white"/>
<path d="M136.883 75.3391V39.7602C136.883 39.42 136.748 39.0938 136.507 38.8533C136.267 38.6128 135.941 38.4777 135.6 38.4777L123.726 38.4633C123.386 38.4633 123.06 38.3281 122.819 38.0876C122.579 37.8471 122.444 37.5209 122.444 37.1807L122.473 28.8372C122.473 28.4971 122.608 28.1708 122.848 27.9303C123.089 27.6898 123.415 27.5547 123.755 27.5547H148.224C148.564 27.5547 148.89 27.6898 149.131 27.9303C149.371 28.1708 149.506 28.4971 149.506 28.8372V86.507C149.506 86.8472 149.371 87.1734 149.131 87.4139C148.89 87.6544 148.564 87.7896 148.224 87.7896H123.755C123.415 87.7896 123.089 87.6544 122.848 87.4139C122.608 87.1734 122.473 86.8472 122.473 86.507V77.9762C122.473 77.6385 122.606 77.3145 122.843 77.0744C123.081 76.8342 123.403 76.6975 123.741 76.6937L135.615 76.6216C135.952 76.6178 136.275 76.481 136.512 76.2409C136.75 76.0008 136.883 75.6768 136.883 75.3391Z" fill="white"/>
<path d="M30.4346 50.0344C37.6541 46.23 45.3492 52.023 44.0235 59.6892C42.6113 67.831 34.2965 69.8052 27.5381 66.2747C27.077 66.0249 26.8464 65.6407 26.8464 65.1219L26.832 41.0279C26.832 40.4419 27.1058 40.0529 27.6534 39.8607L28.7198 39.5005C29.2866 39.2987 29.57 39.5005 29.57 40.1057L29.5988 49.53C29.5988 50.1544 29.8774 50.3226 30.4346 50.0344ZM29.5412 54.1125V62.7298C29.5412 63.4483 29.8266 64.1374 30.3346 64.6454C30.8427 65.1535 31.5318 65.4389 32.2503 65.4389H34.9306C36.574 65.4389 38.1501 64.7679 39.3121 63.5734C40.4742 62.3789 41.127 60.7588 41.127 59.0696V57.7727C41.127 56.0834 40.4742 54.4633 39.3121 53.2689C38.1501 52.0744 36.574 51.4033 34.9306 51.4033H32.2503C31.5318 51.4033 30.8427 51.6888 30.3346 52.1968C29.8266 52.7049 29.5412 53.394 29.5412 54.1125Z" fill="white"/>
<path d="M230.564 48.9112L235.003 48.94C235.646 48.94 235.896 49.2522 235.752 49.8767L235.622 50.4675C235.517 50.9574 235.209 51.2024 234.7 51.2024L230.622 51.2168C230.074 51.2168 229.801 51.4906 229.801 52.0382L229.829 63.3647C229.829 63.4732 229.851 63.5807 229.895 63.6801C229.938 63.7795 230.002 63.8688 230.082 63.9421C230.162 64.0153 230.257 64.0711 230.36 64.1056C230.463 64.1402 230.572 64.1529 230.68 64.1428L235.075 63.7538C235.642 63.7057 235.882 63.9651 235.795 64.5319L235.68 65.3389C235.662 65.4538 235.614 65.5629 235.541 65.656C235.468 65.7492 235.372 65.8235 235.262 65.8721C224.238 70.786 227.034 56.8945 226.933 51.75C226.923 51.2889 226.688 51.0775 226.227 51.116L224.843 51.2601C223.902 51.3465 223.743 51.0343 224.368 50.3234L229.022 45.0348C229.541 44.4488 229.801 44.5449 229.801 45.323V48.133C229.801 48.6518 230.055 48.9112 230.564 48.9112Z" fill="white"/>
<path d="M103.221 61.4486H107.875C108.024 61.4486 108.167 61.5078 108.273 61.6132C108.378 61.7186 108.437 61.8616 108.437 62.0106L108.423 66.6363C108.423 66.7853 108.364 66.9283 108.258 67.0337C108.153 67.1391 108.01 67.1983 107.861 67.1983L89.8047 67.1695C89.7309 67.1695 89.6578 67.1549 89.5896 67.1267C89.5214 67.0985 89.4595 67.0571 89.4073 67.0049C89.3551 66.9527 89.3137 66.8907 89.2855 66.8225C89.2572 66.7544 89.2427 66.6813 89.2427 66.6075L89.3003 62.0106C89.3003 61.8616 89.3595 61.7186 89.4649 61.6132C89.5703 61.5078 89.7133 61.4486 89.8623 61.4486H94.5024C94.6515 61.4486 94.7944 61.3894 94.8998 61.284C95.0052 61.1786 95.0644 61.0357 95.0644 60.8866L95.0788 53.7679C95.0788 53.6189 95.0196 53.4759 94.9142 53.3705C94.8088 53.2651 94.6659 53.2059 94.5168 53.2059L89.8047 53.1771C89.7309 53.1771 89.6578 53.1626 89.5896 53.1343C89.5214 53.1061 89.4595 53.0647 89.4073 53.0125C89.3551 52.9603 89.3137 52.8984 89.2855 52.8302C89.2572 52.762 89.2427 52.6889 89.2427 52.6151L89.3003 48.1479C89.3003 47.9989 89.3595 47.8559 89.4649 47.7505C89.5703 47.6452 89.7133 47.5859 89.8623 47.5859H107.89C108.039 47.5859 108.182 47.6452 108.287 47.7505C108.392 47.8559 108.452 47.9989 108.452 48.1479L108.408 52.6151C108.408 52.7642 108.349 52.9071 108.244 53.0125C108.138 53.1179 107.995 53.1771 107.846 53.1771L103.221 53.1915C103.072 53.1915 102.929 53.2507 102.823 53.3561C102.718 53.4615 102.659 53.6045 102.659 53.7535V60.8866C102.659 61.0357 102.718 61.1786 102.823 61.284C102.929 61.3894 103.072 61.4486 103.221 61.4486Z" fill="white"/>
<path d="M124.678 55.1513V48.1047C124.678 48.0385 124.691 47.9729 124.716 47.9117C124.741 47.8505 124.779 47.7949 124.825 47.7481C124.872 47.7012 124.928 47.6641 124.989 47.6387C125.05 47.6134 125.116 47.6004 125.182 47.6004L130.888 47.5859C130.955 47.5859 131.02 47.599 131.081 47.6243C131.143 47.6497 131.198 47.6868 131.245 47.7337C131.292 47.7805 131.329 47.8361 131.354 47.8973C131.38 47.9585 131.393 48.0241 131.393 48.0903L131.407 66.6939C131.407 66.8277 131.354 66.956 131.26 67.0506C131.165 67.1452 131.037 67.1983 130.903 67.1983L125.701 67.1695C125.626 67.169 125.552 67.152 125.485 67.1196C125.418 67.0872 125.359 67.0402 125.312 66.9821L119.735 59.8058C119.671 59.7201 119.581 59.657 119.478 59.6257C119.376 59.5945 119.266 59.5967 119.165 59.632C119.064 59.6673 118.977 59.7339 118.916 59.8222C118.855 59.9105 118.824 60.0158 118.827 60.1229L118.856 66.6507C118.856 66.7845 118.803 66.9128 118.708 67.0073C118.614 67.1019 118.485 67.1551 118.352 67.1551L112.645 67.2127C112.511 67.2127 112.383 67.1596 112.288 67.065C112.194 66.9704 112.141 66.8421 112.141 66.7083L112.155 48.0903C112.155 48.0241 112.168 47.9585 112.194 47.8973C112.219 47.8361 112.256 47.7805 112.303 47.7337C112.35 47.6868 112.405 47.6497 112.467 47.6243C112.528 47.599 112.593 47.5859 112.66 47.5859H117.89C117.97 47.5876 118.048 47.608 118.118 47.6456C118.188 47.6832 118.248 47.7368 118.294 47.8021L123.77 55.4395C123.833 55.5233 123.92 55.5855 124.02 55.6175C124.119 55.6494 124.226 55.6496 124.326 55.6179C124.426 55.5862 124.513 55.5243 124.576 55.4407C124.639 55.3571 124.675 55.256 124.678 55.1513Z" fill="white"/>
<path d="M169.234 51.607C154.766 45.3962 154.392 69.7639 169.378 63.8846C169.868 63.6828 170.104 63.8509 170.084 64.3889L170.041 65.7147C170.031 66.0989 169.844 66.3487 169.479 66.464C150.501 72.5019 150.861 42.7447 169.378 48.9699C169.839 49.1236 170.075 49.4407 170.084 49.921L170.099 51.0306C170.1 51.1338 170.075 51.2357 170.027 51.327C169.979 51.4184 169.909 51.4962 169.823 51.5534C169.737 51.6107 169.638 51.6456 169.535 51.655C169.432 51.6643 169.329 51.6478 169.234 51.607Z" fill="white"/>
<path d="M207.709 67.0115L207.781 72.8332C207.791 73.4001 207.512 73.6835 206.946 73.6835L206.052 73.6979C205.322 73.7075 204.957 73.3472 204.957 72.6171L204.971 49.8777C204.97 49.6274 205.064 49.385 205.233 49.1965C205.403 49.0079 205.638 48.8863 205.894 48.8546C206.787 48.7393 207.421 49.0755 207.796 49.8633C208.017 50.3244 208.339 50.4109 208.761 50.1227C223.546 40.0931 228.763 71.7957 208.531 66.3775C207.974 66.2237 207.7 66.4351 207.709 67.0115ZM208.531 63.7404C218.993 68.5246 222.437 54.7196 215.894 51.3187C213.339 49.993 210.798 50.5646 208.271 53.0336C207.916 53.3794 207.738 53.7925 207.738 54.2728V62.5011C207.738 63.0871 208.002 63.5002 208.531 63.7404Z" fill="white"/>
<path d="M257.108 57.6883C257.108 60.2298 256.098 62.6672 254.301 64.4644C252.504 66.2615 250.067 67.2711 247.525 67.2711C244.984 67.2711 242.546 66.2615 240.749 64.4644C238.952 62.6672 237.942 60.2298 237.942 57.6883C237.942 56.4299 238.19 55.1837 238.672 54.0211C239.153 52.8585 239.859 51.8021 240.749 50.9122C241.639 50.0224 242.695 49.3165 243.858 48.8349C245.021 48.3533 246.267 48.1055 247.525 48.1055C248.784 48.1055 250.03 48.3533 251.192 48.8349C252.355 49.3165 253.411 50.0224 254.301 50.9122C255.191 51.8021 255.897 52.8585 256.379 54.0211C256.86 55.1837 257.108 56.4299 257.108 57.6883ZM247.705 64.8774C248.605 64.8586 249.493 64.6539 250.318 64.2752C251.142 63.8965 251.887 63.3511 252.51 62.6702C253.133 61.9893 253.621 61.1862 253.947 60.3067C254.274 59.4273 254.432 58.4887 254.412 57.5446C254.392 56.6005 254.195 55.6694 253.832 54.8044C253.469 53.9394 252.948 53.1574 252.297 52.5032C251.646 51.849 250.879 51.3353 250.039 50.9914C249.2 50.6476 248.304 50.4803 247.403 50.4992C246.503 50.518 245.615 50.7226 244.791 51.1014C243.966 51.4801 243.221 52.0254 242.598 52.7064C241.975 53.3873 241.487 54.1904 241.161 55.0698C240.834 55.9493 240.676 56.8879 240.696 57.832C240.716 58.7761 240.913 59.7072 241.276 60.5722C241.639 61.4372 242.161 62.2191 242.811 62.8734C243.462 63.5276 244.229 64.0413 245.069 64.3852C245.908 64.729 246.804 64.8963 247.705 64.8774Z" fill="white"/>
<path d="M177.347 51.9375C178.596 49.9009 180.426 48.7432 182.837 48.4646C182.952 48.4523 183.067 48.4645 183.176 48.5004C183.285 48.5363 183.386 48.5951 183.47 48.6729C183.555 48.7506 183.622 48.8456 183.667 48.9513C183.712 49.057 183.733 49.1712 183.731 49.286L183.688 50.6118C183.678 51.0249 183.467 51.2506 183.053 51.289C175.863 52.0096 176.266 59.2435 176.713 65.6128C176.751 66.2181 176.473 66.5207 175.877 66.5207H174.782C174.225 66.5207 173.946 66.2373 173.946 65.6705L173.975 49.8048C173.975 49.2284 174.268 48.9354 174.854 48.9258H175.978C176.526 48.9162 176.771 49.1851 176.713 49.7327L176.54 51.6781C176.529 51.7773 176.552 51.8774 176.606 51.9613C176.661 52.0451 176.742 52.1077 176.837 52.1382C176.932 52.1688 177.035 52.1655 177.128 52.1289C177.221 52.0923 177.298 52.0247 177.347 51.9375Z" fill="white"/>
<path d="M49.6002 59.3294C49.7732 66.2751 57.4394 66.4192 62.2524 64.2577C62.7136 64.0463 63.0402 64.1808 63.2323 64.6612C63.4533 65.2184 63.4245 65.7371 63.1459 66.2175C62.9345 66.5921 62.5551 66.8611 62.0075 67.0244C42.179 72.8894 42.4816 47.268 56.863 48.8819C60.4079 49.2854 63.0498 51.6487 64.7886 55.9718C64.8998 56.2479 64.9419 56.547 64.9113 56.843C64.8808 57.1389 64.7784 57.4225 64.6133 57.6687C64.4481 57.915 64.2253 58.1164 63.9644 58.2552C63.7035 58.3941 63.4125 58.466 63.1171 58.4647L50.4216 58.4936C49.8644 58.4936 49.5906 58.7722 49.6002 59.3294ZM50.047 56.4041L61.604 56.3464C61.6613 56.3464 61.7163 56.3237 61.7568 56.2831C61.7974 56.2426 61.8201 56.1876 61.8201 56.1303V56.0006C61.817 55.3569 61.6653 54.7202 61.3739 54.1269C61.0824 53.5337 60.6569 52.9955 60.1216 52.5432C59.5863 52.0908 58.9517 51.7332 58.2541 51.4907C57.5565 51.2482 56.8096 51.1256 56.056 51.1299H55.5373C54.017 51.1386 52.5619 51.6626 51.4918 52.5867C50.4218 53.5108 49.8244 54.7595 49.8308 56.0582V56.1879C49.8308 56.2453 49.8536 56.3002 49.8941 56.3408C49.9347 56.3813 49.9896 56.4041 50.047 56.4041Z" fill="white"/>
<path d="M193.818 61.7219C195.605 57.8311 197.296 53.8875 198.89 49.8911C199.352 48.7479 200.12 48.4741 201.196 49.0697C201.619 49.3003 201.739 49.6365 201.556 50.0784L191.786 72.9043C191.546 73.4807 191.109 73.7641 190.475 73.7545L189.495 73.7257C188.976 73.716 188.822 73.4711 189.034 72.9907L191.613 66.9672C191.815 66.4965 191.815 66.021 191.613 65.5406L184.783 49.5308C184.6 49.1081 184.744 48.8968 185.215 48.8968L186.599 48.9112C187.194 48.9208 187.612 49.1994 187.852 49.747L192.881 61.7075C193.179 62.428 193.491 62.4328 193.818 61.7219Z" fill="white"/>
</svg>
