<svg width="251" height="34" viewBox="0 0 251 34" fill="none" xmlns="http://www.w3.org/2000/svg">
<g id="Frame 1000004388">
<path id="Vector" fill-rule="evenodd" clip-rule="evenodd" d="M105.191 23.5239C97.9854 23.5239 92.7444 18.5715 92.7444 11.7619C92.7444 4.9524 97.9854 0 105.285 0C109.216 0 112.585 1.415 114.737 4.0681L114.924 4.3334L111.087 7.8708L110.807 7.6055C109.403 5.9252 107.531 5.1293 105.472 5.1293C101.448 5.1293 98.6404 7.8708 98.6404 11.8504C98.6404 15.83 101.448 18.5715 105.472 18.5715C107.625 18.5715 109.403 17.7756 110.807 16.0953L111.087 15.83L114.924 19.3674L114.737 19.6327C112.585 22.2858 109.216 23.7007 105.191 23.7007V23.5239ZM49.9752 23.1702H38.0897V0.353901H49.4137C54.9353 0.353901 58.2109 2.6532 58.2109 6.4559C58.2109 8.4899 57.275 10.1702 55.684 11.2314C58.0237 12.2042 59.3339 14.2382 59.3339 16.8029C59.3339 20.8709 56.0584 23.1702 50.0688 23.1702H49.9752ZM43.8921 18.66H49.6009C52.97 18.66 53.3443 17.3335 53.3443 16.2722C53.3443 14.6804 52.1277 13.8845 49.6009 13.8845H43.8921V18.66ZM43.8921 9.4627H48.665C51.0047 9.4627 52.2213 8.6668 52.2213 7.1634C52.2213 6.6328 52.2213 4.9525 48.665 4.9525H43.8921V9.4627ZM68.5054 23.1702H62.6095V0.353901H68.5054V23.1702ZM78.8002 23.1702H84.6024V5.2178H91.8084V0.353901H71.594V5.2178H78.8002V23.1702ZM115.767 11.7619C115.767 18.5715 121.101 23.5239 128.401 23.5239C135.701 23.5239 141.035 18.5715 141.035 11.7619C141.035 4.9524 135.701 0 128.401 0C121.101 0 115.767 4.9524 115.767 11.7619ZM121.756 11.7619C121.756 7.8708 124.564 5.0409 128.401 5.0409C132.238 5.0409 135.046 7.8708 135.046 11.7619C135.046 15.6531 132.238 18.483 128.401 18.483C124.564 18.483 121.756 15.6531 121.756 11.7619ZM149.738 23.1702H143.842V0.353901H149.738V23.1702ZM169.86 23.1702H174.633V0.353901H168.83V13.0886L158.255 0.353901H153.482V23.1702H159.284V10.4355L169.86 23.1702ZM183.804 23.1702H177.908V0.353901H183.804V23.1702ZM186.893 20.8708C189.045 22.4626 192.695 23.5239 196.251 23.5239V23.6123C203.457 23.6123 206.078 19.7211 206.078 16.449C206.078 11.54 201.48 10.4543 197.754 9.5743L197.655 9.5511C195.222 9.0204 193.069 8.4898 193.069 7.0749C193.069 5.6599 194.473 4.864 197 4.864C198.965 4.864 201.024 5.483 202.99 6.5443L203.364 6.7211L205.236 2.2109L204.955 2.034C202.896 0.7075 199.995 0 197 0C191.01 0 187.173 2.83 187.267 7.1633C187.267 12.1608 191.866 13.2468 195.593 14.1268L195.69 14.1497C198.123 14.6803 200.276 15.2109 200.276 16.6259C200.276 18.3946 197.842 18.6599 196.345 18.6599C193.818 18.6599 191.01 17.864 189.139 16.449L188.764 16.1837L186.705 20.6939L186.893 20.8708ZM220.49 23.1702H214.688V5.2178H207.481V0.353901H227.696V5.2178H220.49V23.1702ZM230.316 4.6868C230.316 5.129 231.159 5.4827 231.159 5.4827C231.627 5.4827 232.001 5.129 232.001 4.6868C232.001 4.2446 231.627 3.8909 231.159 3.8909C230.691 3.8909 230.316 4.2446 230.316 4.6868ZM235.839 5.4831C234.154 5.4831 233.031 4.4219 233.031 2.9185C233.031 1.4151 234.248 0.353901 235.839 0.353901C236.774 0.353901 237.523 0.707601 237.991 1.2382L237.055 2.1226C237.055 2.1226 236.306 1.5035 235.932 1.5035C235.09 1.5035 234.435 2.1226 234.435 2.9185C234.435 3.7144 235.09 4.3335 235.932 4.3335C236.4 4.3335 236.774 4.1566 237.055 3.8028L237.991 4.5103C237.523 5.1294 236.774 5.4831 235.839 5.4831ZM238.459 2.9185C238.459 4.4219 239.675 5.4831 241.36 5.4831C243.044 5.4831 244.261 4.4219 244.261 2.9185C244.261 1.4151 243.044 0.353901 241.36 0.353901C239.675 0.353901 238.459 1.4151 238.459 2.9185ZM239.956 2.9185C239.956 2.1226 240.518 1.5035 241.36 1.5035C242.296 1.5035 242.857 2.1226 242.857 2.9185C242.857 3.7144 242.202 4.3335 241.36 4.3335C240.518 4.3335 239.956 3.7144 239.956 2.9185ZM245.197 5.2177V0.530701V0.4422H246.32L248.098 3.2721L249.877 0.4422H251V5.3945H249.783V2.8299L248.473 4.8639H247.818L246.507 2.9183V5.3945H245.197V5.2177ZM37.4349 30.0679C37.4349 30.0377 37.4353 30.0078 37.4362 29.9779C37.4837 31.6138 38.8695 32.8094 40.6169 32.8094C41.5527 32.8094 42.3014 32.5441 42.8629 32.0134L42.4886 31.6597C42.0207 32.1903 41.3656 32.3672 40.7105 32.3672C39.3066 32.3672 38.1836 31.3944 38.1836 29.9794C38.1836 28.5645 39.2131 27.5917 40.7105 27.5917C41.3656 27.5917 42.0207 27.857 42.4886 28.2992L42.8629 27.9454C42.3014 27.4148 41.4591 27.1495 40.6169 27.1495C38.7787 27.1495 37.4821 28.3436 37.4362 29.9779C37.4353 29.9491 37.4349 29.9201 37.4349 29.891V30.0679ZM46.8871 31.0407L48.2909 32.8978V32.8094H48.946L47.4486 30.8638C48.3845 30.5985 48.8524 29.9794 48.8524 29.0951C48.8524 27.857 47.9166 27.1495 46.4192 27.1495H44.1731V32.8094H44.8282V31.0407H46.4192H46.8871ZM46.4192 27.7685C47.6358 27.7685 48.2909 28.2992 48.2909 29.1835C48.2909 30.0679 47.6358 30.5985 46.4192 30.5985H44.8282V27.7685H46.4192ZM52.4086 30.9523V32.8979H51.7535V30.9523L49.3203 27.238H49.9754L52.0343 30.4217L54.0932 27.238H54.7483L52.315 30.9523H52.4086ZM56.4326 31.1292H58.0236C59.521 31.1292 60.4568 30.4217 60.4568 29.1836C60.4568 27.9455 59.521 27.238 58.0236 27.238H55.7775V32.8979H56.4326V31.1292ZM57.93 27.7686C59.1466 27.7686 59.8017 28.2992 59.8017 29.1836C59.8017 30.0679 59.1466 30.5986 57.93 30.5986H56.339V27.7686H57.93ZM62.7032 27.7686H60.6443V27.238H65.5108V27.7686H63.3583V32.8979H62.7032V27.7686ZM69.1606 27.1495C67.2888 27.1495 65.9786 28.3876 65.9786 30.0679C65.9786 31.7481 67.2888 32.9862 69.1606 32.9862C71.0323 32.9862 72.3425 31.7481 72.3425 30.0679C72.3425 28.3876 71.0323 27.1495 69.1606 27.1495ZM69.1606 27.6801C70.6579 27.6801 71.6874 28.7413 71.6874 30.0679C71.6874 31.4828 70.5644 32.4556 69.1606 32.4556C67.7568 32.4556 66.6337 31.4828 66.6337 30.0679C66.6337 28.6529 67.6632 27.6801 69.1606 27.6801ZM73.2783 30.0679C73.2783 30.0377 73.2787 30.0078 73.2795 29.9779C73.327 31.6138 74.7129 32.8094 76.4602 32.8094C77.3961 32.8094 78.1448 32.5441 78.7063 32.0134L78.3319 31.6597C77.864 32.1903 77.2089 32.3672 76.5538 32.3672C75.15 32.3672 74.0269 31.3944 74.0269 29.9794C74.0269 28.5645 75.0564 27.5917 76.5538 27.5917C77.2089 27.5917 77.864 27.857 78.3319 28.2992L78.7063 27.9454C78.1448 27.4148 77.3025 27.1495 76.4602 27.1495C74.622 27.1495 73.3254 28.3436 73.2795 29.9779C73.2787 29.9491 73.2783 29.9201 73.2783 29.891V30.0679ZM79.923 27.238V30.5101H80.1102C80.1102 32.102 81.0461 32.9863 82.5434 32.9863C84.0408 32.9863 84.9764 32.102 84.9764 30.5101V27.238H84.3216V30.5101C84.3216 31.8366 83.6665 32.4557 82.4499 32.4557C81.2332 32.4557 80.5781 31.8366 80.5781 30.5101V27.238H79.923ZM90.9664 32.8978L89.5624 31.0407H89.0944H87.5034V32.8094H86.8484V27.1495H89.0944C90.5924 27.1495 91.5274 27.857 91.5274 29.0951C91.5274 29.9794 91.0604 30.5985 90.1244 30.8638L91.6214 32.8094H90.9664V32.8978ZM90.9664 29.1835C90.9664 28.2992 90.3114 27.7685 89.0944 27.7685H87.5034V30.5985H89.0944C90.3114 30.5985 90.9664 30.0679 90.9664 29.1835ZM95.8334 31.0407L97.2374 32.8978V32.8094H97.8924L96.3944 30.8638C97.3304 30.5985 97.7984 29.9794 97.7984 29.0951C97.7984 27.857 96.8624 27.1495 95.3654 27.1495H93.1194V32.8094H93.7744V31.0407H95.3654H95.8334ZM95.3654 27.7685C96.5814 27.7685 97.2374 28.2992 97.2374 29.1835C97.2374 30.0679 96.5814 30.5985 95.3654 30.5985H93.7744V27.7685H95.3654ZM103.6 32.3673V32.4557H100.044V30.3332H103.132V29.8026H100.044V27.7686H103.507V27.238H99.3894V32.8979H103.6V32.4557H103.694L103.6 32.3673ZM110.151 32.8979V27.238H109.496V31.8366L105.659 27.238H105.097V32.8979H105.752V28.2992L109.59 32.8979H110.151ZM111.649 30.0679C111.649 30.0377 111.649 30.0078 111.65 29.9779C111.698 31.6138 113.084 32.8094 114.831 32.8094C115.767 32.8094 116.516 32.5441 117.077 32.0134L116.703 31.6597C116.235 32.1903 115.58 32.3672 114.925 32.3672C113.521 32.3672 112.398 31.3944 112.398 29.9794C112.398 28.5645 113.427 27.5917 114.925 27.5917C115.58 27.5917 116.235 27.857 116.703 28.2992L117.077 27.9454C116.516 27.4148 115.673 27.1495 114.831 27.1495C112.993 27.1495 111.696 28.3436 111.65 29.9779C111.649 29.9491 111.649 29.9201 111.649 29.891V30.0679ZM120.352 32.8979V30.9523H120.259L122.692 27.238H122.037L119.978 30.4217L117.919 27.238H117.264L119.697 30.9523V32.8979H120.352ZM131.676 27.238V32.8979H131.115L127.278 28.2992V32.8979H126.623V27.238H127.184L131.021 31.8366V27.238H131.676ZM137.947 32.4557V32.3673L138.04 32.4557H137.947ZM134.391 32.4557H137.947V32.8979H133.735V27.238H137.853V27.7686H134.391V29.8026H137.479V30.3332H134.391V32.4557ZM147.68 27.238L145.621 32.8979H144.966L143.188 28.0339L141.41 32.8979H140.754L138.696 27.238H139.351L141.129 32.102L142.907 27.238H143.468L145.247 32.1904L147.025 27.238H147.68ZM148.522 31.7481L148.242 32.1903V32.2787C148.71 32.7209 149.552 32.9862 150.488 32.9862C151.985 32.9862 152.734 32.1903 152.734 31.3944C152.734 30.3151 151.68 30.0824 150.69 29.8639C149.815 29.6707 148.99 29.4885 148.99 28.7413C148.99 28.1223 149.458 27.6801 150.581 27.6801C151.143 27.6801 151.704 27.7685 152.266 28.1223L152.453 27.6801C151.985 27.3264 151.236 27.1495 150.581 27.1495C148.99 27.1495 148.335 27.9454 148.335 28.7413C148.335 29.8787 149.41 30.1273 150.408 30.3579C151.272 30.5577 152.079 30.7441 152.079 31.4828C152.079 32.0134 151.611 32.4556 150.488 32.4556C149.739 32.4556 148.522 31.7481 148.522 31.7481ZM161.437 32.9863L160.594 32.1904C160.126 32.721 159.378 32.9863 158.629 32.9863C157.412 32.9863 156.57 32.3673 156.57 31.5713C156.57 30.8639 156.944 30.4217 158.068 29.8026C157.506 29.272 157.319 28.9183 157.319 28.4761C157.319 27.7686 157.88 27.238 158.816 27.238C159.658 27.238 160.22 27.6802 160.22 28.3877C160.22 28.9183 159.846 29.3605 158.91 29.8911L160.594 31.4829C160.594 31.4829 160.875 30.7754 160.969 30.4217L161.437 30.5986C161.343 31.1292 161.156 31.5713 160.875 31.9251L161.717 32.721L161.437 32.9863ZM160.22 31.8366L158.442 30.0679C157.506 30.5986 157.225 30.9523 157.225 31.4829C157.225 32.102 157.787 32.5441 158.723 32.5441C159.378 32.5441 159.939 32.3673 160.314 31.9251L160.22 31.8366ZM157.88 28.3877C157.88 28.3877 157.974 28.9183 158.535 29.4489C159.378 29.0067 159.658 28.653 159.658 28.2992C159.658 27.9455 159.378 27.5917 158.816 27.5917C158.255 27.5917 157.88 27.9455 157.88 28.3877ZM164.806 27.7686H166.865V32.8979H167.52V27.7686H169.673V27.238H164.806V27.7686ZM175.007 32.3673V32.4557H171.451V30.3332H174.539V29.8026H171.451V27.7686H174.913V27.238H170.795V32.8979H175.007V32.4557H175.1L175.007 32.3673ZM175.944 29.9779C175.944 29.9944 175.943 30.011 175.943 30.0277V30.0679V29.891C175.943 29.9201 175.943 29.949 175.944 29.9779ZM175.944 29.9779C175.99 28.3436 177.287 27.1495 179.125 27.1495C179.967 27.1495 180.809 27.4148 181.371 27.9454L180.997 28.2992C180.529 27.857 179.874 27.5917 179.218 27.5917C177.721 27.5917 176.692 28.5645 176.692 29.9794C176.692 31.3944 177.815 32.3672 179.218 32.3672C179.874 32.3672 180.529 32.1903 180.997 31.6597L181.371 32.0134C180.809 32.5441 180.061 32.8094 179.125 32.8094C177.377 32.8094 175.992 31.6137 175.944 29.9779ZM187.735 32.8979H187.08V30.2448H183.336V32.8979H182.681V27.238H183.336V29.8026H187.08V27.238H187.735V32.8979ZM194.192 32.8979H194.754V27.238H194.099V31.8366L190.262 27.238H189.7V32.8979H190.355V28.2992L194.192 32.8979ZM196.251 30.0679C196.251 28.3876 197.561 27.1495 199.433 27.1495C201.305 27.1495 202.615 28.3876 202.615 30.0679C202.615 31.7481 201.305 32.9862 199.433 32.9862C197.561 32.9862 196.251 31.7481 196.251 30.0679ZM201.96 30.0679C201.96 28.7413 200.931 27.6801 199.433 27.6801C197.936 27.6801 196.906 28.6529 196.906 30.0679C196.906 31.4828 198.029 32.4556 199.433 32.4556C200.837 32.4556 201.96 31.4828 201.96 30.0679ZM204.674 27.238H204.019V32.8979H208.043V32.3673H204.674V27.238ZM208.511 30.0679C208.511 28.3876 209.822 27.1495 211.693 27.1495C213.565 27.1495 214.875 28.3876 214.875 30.0679C214.875 31.7481 213.565 32.9862 211.693 32.9862C209.822 32.9862 208.511 31.7481 208.511 30.0679ZM214.22 30.0679C214.22 28.7413 213.191 27.6801 211.693 27.6801C210.196 27.6801 209.167 28.6529 209.167 30.0679C209.167 31.4828 210.29 32.4556 211.693 32.4556C213.097 32.4556 214.22 31.4828 214.22 30.0679ZM221.145 30.0679H220.49V31.925C220.022 32.2787 219.461 32.3672 218.899 32.3672C217.496 32.3672 216.372 31.3944 216.372 29.9794C216.372 28.5645 217.496 27.5917 218.993 27.5917C219.648 27.5917 220.303 27.857 220.771 28.2992L221.145 27.9454C220.584 27.4148 219.835 27.1495 218.899 27.1495C217.028 27.1495 215.717 28.3876 215.717 30.0679C215.717 31.7481 217.028 32.9862 218.899 32.9862C219.742 32.9862 220.584 32.7209 221.145 32.2787V30.0679ZM224.982 32.8979H224.327V30.9523L221.894 27.238H222.549L224.608 30.4217L226.667 27.238H227.322L224.889 30.9523H224.982V32.8979ZM0 25.8233L8.0485 33.1634H34.7207V0.353901H0V25.8233ZM26.0171 14.5035C26.3915 12.1158 24.4262 10.8777 21.8057 9.9933H21.8993L22.7416 6.7212L20.6827 6.1906L19.8404 9.3743C19.6064 9.3301 19.3959 9.2858 19.1853 9.2416C18.9747 9.1974 18.7642 9.1532 18.5302 9.109H18.1558L18.9981 5.9253L16.9392 5.3947L16.0969 8.6668H15.8162C15.4418 8.5784 14.7867 8.4015 14.7867 8.4015L11.8855 7.694L11.324 9.8165L12.8214 10.1702C13.6637 10.3471 13.7573 11.3199 13.7573 11.3199L12.8214 15.0341L11.4176 20.1634C11.324 20.3403 11.0432 20.7824 10.4817 20.6056L8.9843 20.2518L7.9549 22.4627L10.6689 23.0818C10.8695 23.0818 11.0432 23.1326 11.2045 23.1797C11.3442 23.2205 11.4745 23.2586 11.6048 23.2586C11.7919 23.3471 12.1663 23.4355 12.1663 23.4355L11.324 26.7076L13.3829 27.2382L14.2252 23.9661C14.7867 24.143 15.3482 24.3199 15.9098 24.4083L15.0675 27.592L17.1264 28.1226L17.9687 24.8505C21.525 25.4695 24.1454 25.2042 25.2684 22.1974C26.2043 19.7212 25.2684 18.3063 23.3967 17.4219C24.7069 17.0682 25.7364 16.2722 26.0171 14.5035ZM21.2442 20.7824C20.6827 22.9933 16.9392 22.109 15.2546 21.6668H15.1611C15.0675 21.5784 14.7867 21.5784 14.7867 21.5784L15.9098 17.245C16.0969 17.3335 16.2841 17.3335 16.4713 17.3335C16.5788 17.3602 16.6927 17.3879 16.8119 17.4169C18.6643 17.867 21.7718 18.6221 21.2442 20.7824ZM16.8793 15.3964L16.8456 15.3879V15.2995H16.4713L17.5007 11.4083C17.6879 11.4967 17.7815 11.4967 17.9687 11.4967C19.4661 11.762 22.4608 12.3811 21.8993 14.5035C21.3422 16.5214 18.2982 15.7541 16.8793 15.3964Z" fill="white"/>
</g>
</svg>
