<svg width="195" height="52" viewBox="0 0 195 52" fill="none" xmlns="http://www.w3.org/2000/svg">
<g id="Frame 1000004384">
<path id="Vector" d="M194.13 15.1667C194.348 15.1667 194.565 15.1667 194.783 15.3833C195 15.6 195 15.8167 195 16.0333V20.8C195 21.0167 195 21.2333 194.783 21.45C194.565 21.6667 194.348 21.6667 194.13 21.6667H189.998V40.7333C189.998 40.95 189.998 41.1667 189.78 41.3833C189.563 41.6 189.346 41.6 189.128 41.6H182.821C182.604 41.6 182.386 41.6 182.169 41.3833C181.951 41.1667 181.951 40.95 181.951 40.7333V21.45H177.819C177.602 21.45 177.384 21.45 177.167 21.2333C176.949 21.0167 176.949 20.8 176.949 20.5833V15.8167C176.949 15.6 176.949 15.3833 177.167 15.1667C177.384 15.1667 177.602 15.1667 177.819 15.1667H181.951V8.44995C181.951 8.23325 181.951 8.01665 182.169 7.79995C182.386 7.58325 182.604 7.58325 182.821 7.58325H189.128C189.346 7.58325 189.563 7.58325 189.78 7.79995C189.998 8.01665 189.998 8.23325 189.998 8.44995V15.1667H194.13Z" fill="white"/>
<path id="Vector_2" d="M176.079 27.9501C176.079 29.0333 175.862 29.9 175.644 30.55C175.427 30.9833 174.992 31.2001 174.122 31.2001H158.463C158.898 32.7168 159.551 33.8001 160.638 34.4501C161.726 35.1 163.248 35.5333 164.988 35.5333C165.858 35.5333 166.728 35.5333 167.38 35.3167C168.25 35.1 169.12 34.6667 169.99 34.0168C170.207 33.8001 170.425 33.8 170.642 33.8C170.86 33.8 171.077 33.8001 171.295 34.0168L174.122 36.6167C174.339 36.8333 174.339 36.8333 174.339 37.05C174.339 37.2667 174.339 37.4834 174.122 37.7001C172.817 39 171.512 39.8667 169.772 40.7333C168.25 41.3833 166.51 41.8167 164.553 41.8167C161.943 41.8167 159.551 41.1668 157.376 40.0834C155.419 38.7834 153.679 37.2667 152.591 35.1C151.504 33.15 150.852 30.7668 150.852 28.3834C150.852 26.0001 151.504 23.6167 152.591 21.6667C153.679 19.7167 155.419 17.9834 157.376 16.9001C159.333 15.6001 161.508 15.1667 164.118 15.1667C166.51 15.1667 168.685 15.8168 170.425 16.9001C172.382 17.9834 173.687 19.7167 174.774 21.6667C175.644 23.4 176.079 25.5668 176.079 27.9501ZM163.9 21.6667C162.595 21.6667 161.291 22.1 160.421 22.75C159.333 23.4 158.898 24.4833 158.463 26H169.12C168.902 24.4833 168.25 23.4 167.38 22.75C166.293 22.1 165.205 21.6667 163.9 21.6667Z" fill="white"/>
<path id="Vector_3" d="M147.372 15.5999C147.589 15.5999 147.807 15.6 148.024 15.8167C148.242 16.0333 148.242 16.25 148.242 16.4667V41.3833C148.242 43.9833 147.589 46.15 146.067 47.6667C144.762 49.4 143.022 50.4832 140.847 51.1333C138.673 51.5667 136.715 52 134.323 52C132.148 52 129.973 51.7833 128.016 51.1333C126.059 50.4832 124.319 49.6166 123.014 48.75C122.797 48.5332 122.797 48.3167 122.797 48.0999C122.797 47.8832 122.797 47.6667 122.797 47.6667L124.754 43.9832C124.971 43.7666 125.189 43.55 125.406 43.55C125.624 43.55 125.624 43.55 125.841 43.55C126.929 44.2 128.234 44.85 129.538 45.0667C130.843 45.2833 132.148 45.5 133.888 45.5C135.628 45.5 137.368 45.0667 138.673 44.4167C140.195 43.7667 140.847 42.4667 140.847 40.7332V38.3499C138.89 40.7332 136.28 41.8167 133.236 41.8167C130.843 41.8167 128.669 41.1667 126.929 40.0833C124.971 38.7833 123.449 37.2666 122.362 35.0999C121.274 33.1499 120.839 30.7667 120.839 28.3833C120.839 26 121.274 23.8332 122.362 21.6666C123.667 19.4999 124.971 17.9833 126.929 16.6833C128.886 15.3833 130.843 14.95 133.236 14.95C136.063 14.95 138.455 16.0332 140.63 18.4166L140.847 16.25C140.847 15.8167 141.282 15.3833 141.717 15.3833H147.372V15.5999ZM134.323 34.45C135.845 34.45 137.368 33.7999 138.455 32.5C139.543 31.2 140.195 29.8999 140.195 28.1666C140.195 26.4332 139.543 25.1333 138.455 23.8333C137.368 22.5333 136.063 21.8833 134.323 21.8833C132.583 21.8833 131.278 22.5332 130.191 23.6166C129.104 24.6999 128.451 26.2167 128.451 27.95C128.451 29.6833 128.886 31.1999 129.973 32.2832C131.278 33.7999 132.583 34.45 134.323 34.45Z" fill="white"/>
<path id="Vector_4" d="M118.23 15.1667C118.447 15.1667 118.664 15.1667 118.882 15.3833C119.099 15.6 119.099 15.8167 119.099 16.0333V20.8C119.099 21.0167 119.099 21.2333 118.882 21.45C118.664 21.6667 118.447 21.6667 118.23 21.6667H114.097V40.7333C114.097 40.95 114.097 41.1667 113.88 41.3833C113.662 41.6 113.445 41.6 113.227 41.6H106.921C106.703 41.6 106.486 41.6 106.268 41.3833C106.268 41.1667 106.268 40.95 106.268 40.7333V21.45H101.918C101.701 21.45 101.484 21.45 101.266 21.2333C101.049 21.0167 101.049 20.8 101.049 20.5833V15.8167C101.049 15.6 101.049 15.3833 101.266 15.1667C101.484 15.1667 101.701 15.1667 101.918 15.1667H106.268V8.44995C106.268 8.23325 106.268 8.01665 106.486 7.79995C106.703 7.58325 106.921 7.58325 107.138 7.58325H113.445C113.662 7.58325 113.88 7.58325 114.097 7.79995C114.315 8.01665 114.315 8.23325 114.315 8.44995V15.1667H118.23Z" fill="white"/>
<path id="Vector_5" d="M94.3071 13C93.2191 13 92.132 12.5667 91.262 11.7C90.61 10.8333 90.175 9.96665 90.175 8.66665C90.175 7.36665 90.61 6.49995 91.479 5.63325C92.132 4.76665 93.2191 4.33325 94.3071 4.33325C95.3941 4.33325 96.481 4.76665 97.351 5.63325C98.221 6.49995 98.6561 7.58325 98.6561 8.66665C98.6561 9.74995 98.221 10.8333 97.351 11.7C96.481 12.5667 95.6121 13 94.3071 13ZM90.392 15.8167C90.392 15.6 90.392 15.3833 90.61 15.1667C90.827 15.1667 91.044 15.1667 91.262 15.1667H97.569C97.786 15.1667 98.004 15.1667 98.221 15.3833C98.439 15.6 98.439 15.8167 98.439 16.0333V40.7333C98.439 40.95 98.439 41.1667 98.221 41.3833C98.004 41.6 97.786 41.6 97.569 41.6H91.262C91.044 41.6 90.827 41.6 90.61 41.3833C90.392 41.1667 90.392 40.95 90.392 40.7333V15.8167Z" fill="white"/>
<path id="Vector_6" d="M80.388 21.6667C82.345 22.1 84.085 23.1833 85.39 24.9167C86.912 26.65 87.565 28.6 87.565 30.7667C87.565 34.2333 86.477 37.0499 84.085 38.7832C81.91 40.5166 78.431 41.3833 73.864 41.3833H61.032C60.815 41.3833 60.597 41.3832 60.38 41.1666C60.162 40.9499 60.162 40.7333 60.162 40.5167V5.19995C60.162 4.98325 60.162 4.76665 60.38 4.54995C60.38 4.54995 60.597 4.33325 60.815 4.33325H73.646C76.038 4.33325 77.996 4.76665 79.518 5.63325C81.258 6.49995 82.563 7.58325 83.215 9.09995C84.085 10.6167 84.52 12.1333 84.52 14.0833C84.52 15.8167 84.085 17.55 83.215 18.85C82.563 20.15 81.475 21.2333 80.388 21.6667ZM77.126 15.1667C77.126 13 75.821 11.7 72.994 11.7H68.209V18.85H72.994C74.299 18.85 75.386 18.6333 76.038 17.9833C76.691 17.3333 77.126 16.25 77.126 15.1667ZM74.081 34.2333C75.603 34.2333 76.908 33.8 77.996 33.15C78.866 32.5 79.518 31.2 79.518 29.9C79.518 28.3833 79.083 27.3 77.996 26.65C77.126 26 75.821 25.5667 74.081 25.5667H68.209V34.2333H74.081Z" fill="white"/>
<path id="Vector_7" d="M15.1439 1.0833C15.7964 0.4333 16.6663 0 17.5362 0H23.8431C24.713 0 25.148 0.866701 24.4956 1.5167L12.0992 14.95H19.0586L26.0179 22.3167H12.0992L26.0179 37.2667H17.5362C16.6663 37.2667 15.5789 36.8333 14.9264 36.1833L0.790218 21.0167C-0.297182 19.7167 -0.29718 17.55 1.00772 16.25L15.1439 1.0833Z" fill="white"/>
<path id="Vector_8" d="M34.4996 50.9168C33.8472 51.5668 32.9773 52.0001 31.8899 52.0001H25.583C24.713 52.0001 24.2781 51.1334 24.9305 50.4834L37.5444 37.0501H30.585L23.6256 29.6834H37.5444L23.6256 14.7334H32.1074C32.9773 14.7334 34.0647 15.1668 34.7171 15.8168L48.8533 30.9834C50.1582 32.2834 50.1582 34.4501 48.8533 35.7501L34.4996 50.9168Z" fill="white"/>
</g>
</svg>
