<svg width="231" height="50" viewBox="0 0 231 50" fill="none" xmlns="http://www.w3.org/2000/svg">
<g id="Frame 1000004390">
<path id="Vector" d="M7.99463 6.7123C12.5263 2.6577 18.4549 0.477 24.4858 0C30.5166 0.1363 36.6838 2.0103 41.2836 6.0649C39.2733 7.8026 37.5697 9.9151 35.389 11.4825C29.29 6.3034 19.3067 6.8145 13.6166 12.3343C11.7085 10.4944 9.80053 8.6544 7.99463 6.7123Z" fill="white"/>
<path id="Vector_2" d="M1.82768 34.5837C-1.27292 27.0195 -0.455216 17.7518 4.48528 11.1758C8.74438 15.4349 13.0376 19.6939 17.3648 23.8508C20.5335 21.2272 23.1912 17.8199 26.4622 15.3326C29.5287 18.1266 32.3567 21.125 35.4233 23.9189C37.3995 21.9087 39.4438 19.9665 41.5223 18.0584C40.6364 16.934 39.5461 15.98 38.592 14.9578C42.4422 14.9919 46.2924 14.9578 50.1427 14.9578C50.1427 18.774 50.1427 22.6242 50.1427 26.4403C49.1886 25.5203 48.3368 24.4641 47.2805 23.6464C46.6672 23.5782 46.3606 24.2937 45.9176 24.6004C42.3741 28.0417 38.9328 31.6875 35.2529 34.9925C32.3227 32.0964 29.3584 29.2002 26.36 26.3381C23.3956 29.2002 20.3973 32.0964 17.5692 35.0607C14.162 32.2667 11.3339 28.7572 7.92668 25.9633C8.09698 31.0401 10.5503 35.7762 14.639 38.8087C20.6017 43.5448 29.6991 43.4085 35.6959 38.7746C37.6039 40.4782 39.2735 42.4544 41.2156 44.1581C40.5682 45.2143 39.4779 45.7595 38.4898 46.4069C35.6959 48.0764 32.6293 49.3371 29.3924 49.7801C26.8029 49.9163 24.2134 49.8141 21.6239 49.9163C12.9353 48.7919 5.06458 42.727 1.82768 34.5837Z" fill="white"/>
<path id="Vector_3" d="M67.8604 12.9475C75.084 3.88421 90.553 3.23681 98.424 11.7891C96.788 13.2883 95.187 14.8556 93.517 16.3889C88.406 11.6869 79.65 11.4824 74.539 16.2526C68.9507 21.7383 69.2914 32.3689 75.697 37.071C81.149 40.853 89.122 39.9671 93.892 35.4695C95.561 37.105 97.129 38.8427 98.935 40.3419C96.379 43.2381 92.631 44.9417 88.917 45.8276C83.329 46.7816 77.23 46.3728 72.2898 43.3744C68.7463 41.1937 66.0886 37.8546 64.7598 33.9022C62.3747 26.9855 63.2265 18.7399 67.8604 12.9475Z" fill="white"/>
<path id="Vector_4" d="M135.937 6.64419C138.493 5.51979 141.798 7.56419 141.491 10.4603C141.696 13.8335 137.232 15.4349 134.847 13.4246C132.632 11.6529 133.177 7.56419 135.937 6.64419Z" fill="white"/>
<path id="Vector_5" d="M172.395 6.57601C175.121 6.43971 177.881 6.54191 180.607 6.50791C183.673 15.5712 186.603 24.7026 189.568 33.8C189.67 33.9363 189.874 34.1748 189.976 34.3111C192.805 25.5204 195.871 16.8319 198.733 8.07521C198.938 7.56411 199.006 6.91671 199.449 6.57601C200.948 6.47381 202.481 6.57601 203.98 6.50791C207.354 15.7415 210.454 25.1115 213.793 34.3793C214.27 33.3912 214.611 32.403 214.884 31.3468C217.507 23.0671 220.131 14.8216 222.754 6.54191C225.48 6.54191 228.24 6.47381 231 6.57601C226.298 19.4895 221.664 32.4371 216.962 45.3847C214.884 45.3847 212.805 45.3847 210.727 45.4188C208.103 38.8768 205.445 32.3008 203.367 25.5544C202.754 24.0893 202.583 22.4198 201.663 21.0909C199.176 29.3365 196.144 37.3776 192.975 45.3506C190.862 45.3847 188.716 45.4188 186.603 45.3166C181.969 32.403 177.199 19.4895 172.395 6.57601Z" fill="white"/>
<path id="Vector_6" d="M110.792 18.0926C115.426 16.9 120.775 17.5815 124.523 20.7843C130.349 25.6908 130.997 35.3333 126.193 41.1257C120.979 47.4291 110.144 47.6676 104.556 41.739C99.957 36.7303 99.582 28.3825 103.602 22.9309C105.374 20.5799 107.93 18.8422 110.792 18.0926ZM112.734 23.919C107.419 25.5545 106.158 32.8801 109.19 37.071C111.712 40.5805 117.402 40.785 120.298 37.6843C123.501 34.1749 123.092 27.9396 119.276 25.0434C117.47 23.5783 114.949 23.3398 112.734 23.919Z" fill="white"/>
<path id="Vector_7" d="M134.097 17.9223C136.312 17.9223 138.527 17.9563 140.742 17.8882C140.912 27.0537 140.81 36.2533 140.776 45.4529C138.527 45.3848 136.278 45.4529 134.029 45.3848C134.132 36.1852 134.097 27.0537 134.097 17.9223Z" fill="white"/>
<path id="Vector_8" d="M146.807 18.0246C148.783 17.8883 150.794 18.0246 152.77 17.9224C153.008 19.1149 153.145 20.3415 153.179 21.5681C154.303 20.8867 155.223 19.9667 156.347 19.3193C160.504 16.7298 166.433 17.1046 170.045 20.5119C172.975 23.2377 174.065 27.4286 173.997 31.347C173.963 36.049 174.099 40.751 173.929 45.453C171.714 45.3508 169.5 45.3849 167.285 45.419C167.285 40.9214 167.285 36.3897 167.285 31.8581C167.251 29.6774 166.91 27.2923 165.377 25.6228C162.855 22.897 158.051 23.1014 155.632 25.8613C154.269 27.3605 153.554 29.3367 153.588 31.347C153.622 36.0149 153.554 40.6829 153.622 45.3508C151.373 45.419 149.124 45.3508 146.875 45.419C146.739 36.2875 146.909 27.156 146.807 18.0246Z" fill="white"/>
</g>
</svg>
