<svg width="238" height="56" viewBox="0 0 238 56" fill="none" xmlns="http://www.w3.org/2000/svg">
<g clip-path="url(#clip0_972_3312)">
<mask id="mask0_972_3312" style="mask-type:luminance" maskUnits="userSpaceOnUse" x="0" y="0" width="238" height="56">
<path d="M0 0H238V56H0V0Z" fill="white"/>
</mask>
<g mask="url(#mask0_972_3312)">
<path d="M78.241 15.3372C78.134 16.8442 77.586 18.0292 76.598 18.8972C75.61 19.7622 74.308 20.1942 72.691 20.1942C70.924 20.1942 69.532 19.5902 68.521 18.3812C67.506 17.1732 67 15.5142 67 13.4042V12.5472C67 11.2012 67.234 10.0152 67.701 8.98818C68.168 7.96318 68.836 7.17518 69.703 6.62818C70.572 6.07818 71.58 5.80518 72.73 5.80518C74.32 5.80518 75.602 6.23818 76.575 7.10418C77.547 7.96918 78.108 9.18418 78.261 10.7492H75.42C75.35 9.84518 75.102 9.18918 74.676 8.78218C74.249 8.37518 73.601 8.17218 72.73 8.17218C71.782 8.17218 71.074 8.51618 70.604 9.20518C70.133 9.89518 69.892 10.9642 69.879 12.4132V13.4712C69.879 14.9842 70.105 16.0912 70.556 16.7892C71.008 17.4892 71.72 17.8382 72.692 17.8382C73.57 17.8382 74.224 17.6342 74.657 17.2282C75.09 16.8202 75.337 16.1902 75.4 15.3382H78.241V15.3372ZM92.911 13.3172C92.911 14.6972 92.671 15.9052 92.191 16.9432C91.711 17.9832 91.026 18.7832 90.131 19.3482C89.239 19.9122 88.214 20.1942 87.059 20.1942C85.916 20.1942 84.897 19.9162 83.999 19.3582C83.104 18.7992 82.409 18.0032 81.916 16.9682C81.424 15.9322 81.174 14.7412 81.168 13.3932V12.7012C81.168 11.3222 81.413 10.1092 81.902 9.06118C82.392 8.01318 83.082 7.20818 83.977 6.64618C84.87 6.08618 85.891 5.80518 87.04 5.80518C88.19 5.80518 89.21 6.08618 90.104 6.64618C90.997 7.20818 91.689 8.01318 92.177 9.06118C92.667 10.1092 92.912 11.3192 92.912 12.6912V13.3182L92.911 13.3172ZM90.033 12.6822C90.033 11.2132 89.774 10.0982 89.257 9.33518C88.739 8.57218 88 8.19018 87.04 8.19018C86.086 8.19018 85.351 8.56718 84.833 9.32018C84.316 10.0742 84.053 11.1782 84.048 12.6352V13.3182C84.048 14.7482 84.306 15.8572 84.824 16.6452C85.341 17.4342 86.086 17.8292 87.059 17.8292C88.012 17.8292 88.744 17.4492 89.257 16.6892C89.767 15.9292 90.027 14.8212 90.033 13.3652V12.6822ZM99.473 20.0022H96.633V5.99718H99.473V20.0022ZM114.798 20.0022H111.956L106.426 10.7882V20.0022H103.585V5.99718H106.426L111.966 15.2312V5.99718H114.798V20.0022ZM128.863 8.33518H124.639V20.0022H121.798V8.33518H117.631V5.99718H128.863V8.33518ZM140.256 13.9332H134.802V17.6842H141.203V20.0022H131.96V5.99718H141.185V8.33518H134.802V11.6722H140.256V13.9332ZM147.189 17.6842H153.222V20.0022H144.348V5.99718H147.189V17.6842ZM164.625 13.9322H159.17V17.6842H165.571V20.0022H156.329V5.99718H165.553V8.33518H159.17V11.6722H164.625V13.9322ZM179.627 18.2322C179.115 18.8542 178.392 19.3372 177.457 19.6792C176.523 20.0232 175.488 20.1952 174.351 20.1952C173.158 20.1952 172.111 19.9302 171.212 19.4012C170.312 18.8712 169.618 18.1042 169.128 17.0972C168.639 16.0902 168.388 14.9072 168.375 13.5482V12.5952C168.375 11.1972 168.607 9.98718 169.072 8.96518C169.535 7.94318 170.205 7.15918 171.079 6.61818C171.953 6.07618 172.978 5.80518 174.153 5.80518C175.787 5.80518 177.067 6.20118 177.988 6.99318C178.91 7.78518 179.456 8.93818 179.627 10.4512H176.861C176.735 9.64918 176.455 9.06318 176.023 8.69118C175.591 8.31918 174.995 8.13318 174.238 8.13318C173.271 8.13318 172.536 8.50218 172.03 9.23918C171.526 9.97618 171.27 11.0732 171.264 12.5292V13.4232C171.264 14.8922 171.539 16.0002 172.087 16.7512C172.637 17.5012 173.442 17.8762 174.503 17.8762C175.569 17.8762 176.331 17.6462 176.785 17.1842V14.7702H174.2V12.6442H179.627V18.2322ZM188.51 14.8762H186.247V20.0022H183.405V5.99718H188.529C190.158 5.99718 191.415 6.36618 192.298 7.10418C193.182 7.84118 193.624 8.88218 193.624 10.2292C193.624 11.1852 193.421 11.9822 193.013 12.6192C192.606 13.2582 191.988 13.7662 191.162 14.1442L194.145 19.8672V20.0022H191.095L188.51 14.8762ZM186.247 12.5382H188.538C189.252 12.5382 189.804 12.3532 190.196 11.9852C190.587 11.6152 190.783 11.1082 190.783 10.4602C190.783 9.80018 190.598 9.28018 190.229 8.90218C189.859 8.52418 189.293 8.33518 188.529 8.33518H186.246L186.247 12.5382ZM205.046 17.1162H200.064L199.118 20.0022H196.096L201.23 5.99718H203.862L209.023 20.0022H206.003L205.046 17.1162ZM200.832 14.7802H204.279L202.546 9.53618L200.832 14.7802ZM214.63 15.0682V20.0022H211.789V5.99718H217.168C218.204 5.99718 219.114 6.18918 219.9 6.57518C220.687 6.95918 221.291 7.50518 221.714 8.21518C222.137 8.92318 222.349 9.72918 222.349 10.6342C222.349 12.0062 221.887 13.0882 220.962 13.8792C220.036 14.6722 218.756 15.0682 217.121 15.0682H214.63ZM214.63 12.7302H217.168C217.92 12.7302 218.493 12.5512 218.887 12.1922C219.283 11.8322 219.479 11.3192 219.479 10.6532C219.479 9.96718 219.281 9.41118 218.883 8.98818C218.485 8.56618 217.936 8.34818 217.235 8.33518H214.63V12.7302ZM237 20.0022H234.159V14.0002H228.619V20.0022H225.777V5.99718H228.619V11.6722H234.159V5.99718H237V20.0022Z" fill="white"/>
<path d="M74.641 32.362H71.637V40.645H69.977V32.362H67V31.013H74.641V32.362ZM77.875 34.268C78.1167 33.9755 78.4214 33.7414 78.7664 33.5832C79.1114 33.4251 79.4876 33.3471 79.867 33.355C81.393 33.355 82.167 34.225 82.187 35.968V40.645H80.581V36.028C80.581 35.534 80.474 35.184 80.261 34.979C80.046 34.774 79.731 34.672 79.317 34.672C78.673 34.672 78.193 34.958 77.875 35.531V40.645H76.267V30.484H77.875V34.268ZM87.507 40.777C86.488 40.777 85.662 40.457 85.029 39.815C84.397 39.174 84.08 38.318 84.08 37.252V37.053C84.08 36.339 84.218 35.7 84.494 35.138C84.7486 34.5994 85.1508 34.144 85.654 33.825C86.1533 33.5113 86.7324 33.3481 87.322 33.355C88.296 33.355 89.049 33.665 89.581 34.287C90.111 34.91 90.378 35.789 90.378 36.927V37.576H85.7C85.75 38.166 85.947 38.634 86.293 38.978C86.639 39.322 87.074 39.494 87.599 39.494C88.336 39.494 88.936 39.196 89.399 38.6L90.266 39.428C89.9786 39.8565 89.5819 40.2004 89.117 40.424C88.6148 40.6644 88.0637 40.7852 87.507 40.777ZM87.315 34.644C86.874 34.644 86.518 34.799 86.247 35.108C85.976 35.416 85.802 35.846 85.727 36.398H88.789V36.278C88.755 35.741 88.612 35.334 88.36 35.058C88.108 34.783 87.76 34.644 87.315 34.644ZM96.648 40.645V34.678H95.556V33.487H96.648V32.832C96.648 32.038 96.868 31.425 97.31 30.993C97.751 30.561 98.368 30.345 99.162 30.345C99.445 30.345 99.745 30.385 100.062 30.464L100.022 31.721C99.8192 31.6833 99.6132 31.6656 99.407 31.668C98.639 31.668 98.257 32.063 98.257 32.852V33.487H99.71V34.678H98.256V40.645H96.648ZM105.764 39.945C105.292 40.5 104.621 40.777 103.752 40.777C102.976 40.777 102.388 40.55 101.99 40.096C101.591 39.642 101.391 38.985 101.391 38.124V33.487H102.999V38.104C102.999 39.013 103.376 39.468 104.13 39.468C104.91 39.468 105.438 39.188 105.71 38.628V33.487H107.318V40.645H105.803L105.764 39.945ZM111.512 31.747V33.487H112.776V34.678H111.512V38.673C111.512 38.947 111.566 39.145 111.674 39.266C111.783 39.386 111.975 39.447 112.253 39.447C112.439 39.447 112.626 39.426 112.815 39.381V40.625C112.471 40.724 112.115 40.775 111.757 40.777C110.522 40.777 109.905 40.096 109.905 38.733V34.678H108.727V33.487H109.904V31.748L111.512 31.747ZM118.881 39.944C118.409 40.5 117.739 40.777 116.87 40.777C116.093 40.777 115.506 40.55 115.107 40.096C114.707 39.642 114.508 38.985 114.508 38.124V33.487H116.116V38.104C116.116 39.013 116.493 39.468 117.247 39.468C118.028 39.468 118.554 39.188 118.828 38.628V33.487H120.436V40.645H118.921L118.881 39.944ZM126.363 34.956C126.146 34.9203 125.927 34.9026 125.708 34.903C124.971 34.903 124.475 35.185 124.219 35.75V40.645H122.612V33.487H124.147L124.186 34.287C124.574 33.666 125.113 33.355 125.8 33.355C126.029 33.355 126.219 33.385 126.369 33.447L126.363 34.956ZM130.947 40.777C129.928 40.777 129.102 40.457 128.469 39.815C127.837 39.174 127.52 38.318 127.52 37.252V37.053C127.52 36.339 127.658 35.7 127.933 35.138C128.188 34.5994 128.591 34.1441 129.094 33.825C129.593 33.5115 130.172 33.3483 130.761 33.355C131.736 33.355 132.489 33.665 133.02 34.287C133.551 34.91 133.818 35.789 133.818 36.927V37.576H129.14C129.189 38.166 129.387 38.634 129.733 38.978C130.079 39.322 130.514 39.494 131.039 39.494C131.776 39.494 132.375 39.196 132.839 38.6L133.706 39.428C133.419 39.8565 133.022 40.2004 132.557 40.424C132.055 40.6644 131.504 40.7852 130.947 40.777ZM130.755 34.644C130.313 34.644 129.958 34.799 129.687 35.108C129.416 35.416 129.242 35.846 129.167 36.398H132.229V36.278C132.195 35.741 132.051 35.334 131.8 35.058C131.548 34.783 131.2 34.644 130.755 34.644ZM139.221 37C139.221 36.299 139.36 35.667 139.638 35.105C139.893 34.5674 140.3 34.1165 140.809 33.808C141.312 33.506 141.889 33.355 142.543 33.355C143.508 33.355 144.292 33.665 144.894 34.287C145.496 34.91 145.822 35.734 145.87 36.762L145.877 37.139C145.877 37.844 145.741 38.476 145.47 39.031C145.217 39.5663 144.812 40.0151 144.305 40.321C143.8 40.625 143.217 40.777 142.556 40.777C141.546 40.777 140.738 40.441 140.131 39.769C139.525 39.096 139.221 38.199 139.221 37.079V37ZM140.829 37.139C140.829 37.876 140.981 38.452 141.286 38.869C141.589 39.286 142.013 39.494 142.556 39.494C143.098 39.494 143.52 39.282 143.822 38.858C144.125 38.436 144.275 37.816 144.275 37C144.275 36.277 144.12 35.704 143.809 35.28C143.498 34.856 143.076 34.645 142.542 34.645C142.018 34.645 141.601 34.853 141.292 35.27C140.983 35.687 140.829 36.309 140.829 37.139ZM148.345 40.645V34.678H147.253V33.487H148.345V32.832C148.345 32.038 148.565 31.425 149.006 30.993C149.447 30.561 150.064 30.345 150.858 30.345C151.141 30.345 151.441 30.385 151.758 30.464L151.718 31.721C151.516 31.6834 151.31 31.6656 151.104 31.668C150.336 31.668 149.952 32.063 149.952 32.852V33.487H151.407V34.678H149.952V40.645H148.345ZM158.551 33.487L158.597 34.235C159.1 33.648 159.788 33.355 160.661 33.355C161.618 33.355 162.273 33.721 162.626 34.454C163.147 33.721 163.878 33.355 164.822 33.355C165.611 33.355 166.199 33.573 166.585 34.01C166.971 34.446 167.169 35.09 167.178 35.941V40.645H165.57V35.988C165.57 35.534 165.471 35.2 165.272 34.989C165.073 34.777 164.745 34.671 164.287 34.671C163.921 34.671 163.622 34.77 163.39 34.966C163.155 35.168 162.985 35.436 162.904 35.736L162.911 40.646H161.303V35.935C161.281 35.093 160.851 34.671 160.013 34.671C159.369 34.671 158.912 34.933 158.644 35.459V40.645H157.036V33.487H158.551ZM169.069 37.001C169.069 36.299 169.208 35.667 169.485 35.105C169.741 34.5675 170.148 34.1167 170.657 33.808C171.159 33.506 171.737 33.355 172.39 33.355C173.356 33.355 174.14 33.665 174.741 34.287C175.344 34.91 175.669 35.734 175.717 36.762L175.724 37.139C175.724 37.844 175.589 38.476 175.318 39.031C175.065 39.5664 174.659 40.0151 174.152 40.321C173.647 40.625 173.065 40.777 172.403 40.777C171.393 40.777 170.585 40.441 169.979 39.769C169.373 39.096 169.069 38.199 169.069 37.079V37.001ZM170.677 37.139C170.677 37.876 170.829 38.452 171.133 38.869C171.437 39.286 171.861 39.494 172.403 39.494C172.945 39.494 173.367 39.282 173.67 38.858C173.972 38.436 174.123 37.816 174.123 37C174.123 36.277 173.967 35.704 173.657 35.28C173.346 34.856 172.923 34.645 172.39 34.645C171.865 34.645 171.448 34.853 171.139 35.27C170.831 35.687 170.677 36.309 170.677 37.139ZM179.117 33.487L179.163 34.314C179.693 33.674 180.387 33.355 181.247 33.355C182.738 33.355 183.496 34.209 183.523 35.915V40.645H181.916V36.008C181.916 35.554 181.817 35.217 181.621 34.999C181.425 34.781 181.105 34.671 180.658 34.671C180.011 34.671 179.527 34.965 179.21 35.551V40.645H177.602V33.487H179.117ZM188.854 40.777C187.836 40.777 187.01 40.457 186.378 39.815C185.744 39.174 185.428 38.318 185.428 37.252V37.053C185.428 36.339 185.566 35.7 185.841 35.138C186.096 34.5991 186.499 34.1437 187.003 33.825C187.502 33.5115 188.08 33.3483 188.669 33.355C189.645 33.355 190.397 33.665 190.929 34.287C191.46 34.91 191.726 35.789 191.726 36.927V37.576H187.049C187.097 38.166 187.294 38.634 187.64 38.978C187.987 39.322 188.422 39.494 188.947 39.494C189.683 39.494 190.284 39.196 190.746 38.6L191.614 39.428C191.327 39.856 190.93 40.1998 190.466 40.424C189.963 40.6645 189.411 40.7853 188.854 40.777ZM188.663 34.644C188.222 34.644 187.866 34.799 187.594 35.108C187.323 35.416 187.15 35.846 187.075 36.398H190.138V36.278C190.102 35.741 189.96 35.334 189.708 35.058C189.457 34.783 189.108 34.644 188.663 34.644ZM195.933 38.343L197.388 33.487H199.101L196.256 41.73C195.82 42.934 195.079 43.536 194.034 43.536C193.772 43.5319 193.511 43.4918 193.26 43.417V42.173L193.565 42.193C193.97 42.193 194.275 42.119 194.48 41.972C194.685 41.824 194.848 41.575 194.966 41.228L195.198 40.612L192.685 33.487H194.418L195.933 38.343ZM35.08 40.748L24.994 45.083V44.649C23.049 45.141 20.895 45.425 18.854 45.516C9.37 45.425 1.842 40.518 1.754 34.679V32.51C4.869 36.988 11.211 39.988 18.854 39.88C21.441 39.988 24.086 39.584 26.309 39.013L27.186 36.845C24.55 37.623 21.672 38.164 18.855 38.145C9.37 38.164 1.842 33.257 1.755 27.309V25.575C4.869 29.715 11.197 32.715 18.855 32.511C22.3 32.716 25.669 31.999 28.501 30.776L28.941 28.609C26.173 30.052 22.586 30.89 18.855 30.776C9.37 30.89 1.842 25.983 1.755 19.939V18.205C4.869 22.441 11.211 25.442 18.855 25.575C23.199 25.442 27.318 24.307 30.695 22.54L31.133 19.939C28.069 22.184 23.595 23.631 18.855 23.84C9.37 23.631 1.843 18.723 1.755 12.57C1.842 6.718 9.37 1.81 18.855 1.733C24.509 1.811 29.76 3.771 32.887 6.935L33.192 7.436L35.402 7.446L35.08 6.935C31.97 2.758 25.75 0 18.855 0C8.36 0 0 5.718 0 12.571V35.112C0.369 41.802 8.538 47.249 18.855 47.249C25.669 47.249 31.793 44.599 35.08 40.748Z" fill="white"/>
<path d="M30.977 56L34.517 41.125L24.34 45.5L30.536 19.688H18.586L21.683 7H59.742L56.644 19.688H44.254L41.598 26.688L55.316 21L30.977 56ZM37.173 38.062L35.403 46.812L50.006 24.938L38.057 30.188L43.368 17.938H55.316L57.529 8.75H23.01L20.797 17.938H32.747L26.993 42.438L37.172 38.064L37.173 38.062Z" fill="white"/>
<path d="M96.622 40.6599H98.216V34.6659H99.692V33.4999H98.216V32.8119C98.216 32.5609 98.26 32.3489 98.348 32.1769C98.4367 32.0089 98.5754 31.8726 98.745 31.7869C98.922 31.6939 99.131 31.6469 99.374 31.6469C99.493 31.6469 99.604 31.6519 99.704 31.6609C99.811 31.6699 99.908 31.6849 99.996 31.7069L100.036 30.4769C99.8884 30.4369 99.7379 30.4082 99.586 30.3909C99.4303 30.3688 99.2732 30.3578 99.116 30.3579C98.604 30.3579 98.161 30.4519 97.786 30.6419C97.4179 30.8205 97.1148 31.1097 96.919 31.4689C96.721 31.8309 96.622 32.2789 96.622 32.8119V33.4999H95.523V34.6649H96.622V40.6599ZM77.88 34.3229V30.4979H76.293V40.6599H77.88V35.5499C77.928 35.4599 77.98 35.3739 78.04 35.2939C78.185 35.0959 78.366 34.9389 78.582 34.8239C78.802 34.7099 79.056 34.6529 79.342 34.6529C79.616 34.6529 79.848 34.6989 80.037 34.7919C80.227 34.8799 80.37 35.0249 80.467 35.2279C80.569 35.4309 80.62 35.7049 80.62 36.0479V40.6599H82.22V36.0619C82.22 35.5719 82.165 35.1579 82.055 34.8179C81.9676 34.5062 81.8064 34.2201 81.585 33.9839C81.3803 33.7693 81.1263 33.6079 80.845 33.5139C80.5376 33.4131 80.2155 33.3641 79.892 33.3689C79.506 33.3633 79.1238 33.4464 78.775 33.6118C78.4262 33.7772 78.12 34.0205 77.88 34.3229ZM71.642 40.6599V32.3499H74.666V31.0269H66.998V32.3499H69.995V40.6599H71.642Z" fill="white"/>
<path fill-rule="evenodd" clip-rule="evenodd" d="M87.52 40.7918C87.0292 40.7988 86.5416 40.7112 86.084 40.5338C85.6752 40.3673 85.3056 40.1173 84.999 39.7998C84.6998 39.481 84.4678 39.1052 84.317 38.6948C84.1556 38.2562 84.075 37.7921 84.079 37.3248V37.0608C84.079 36.5008 84.161 35.9928 84.324 35.5388C84.487 35.0848 84.714 34.6968 85.005 34.3748C85.2899 34.0527 85.6422 33.7973 86.037 33.6268C86.4446 33.4526 86.8838 33.3647 87.327 33.3688C87.839 33.3688 88.287 33.4548 88.671 33.6268C89.054 33.7988 89.371 34.0418 89.623 34.3548C89.879 34.6638 90.069 35.0318 90.193 35.4598C90.32 35.8878 90.384 36.3598 90.384 36.8758V37.5568H85.688C85.704 37.7828 85.743 37.9968 85.806 38.1988C85.894 38.4638 86.022 38.6948 86.189 38.8938C86.357 39.0918 86.56 39.2488 86.799 39.3638C87.036 39.4738 87.308 39.5288 87.612 39.5288C87.996 39.5288 88.338 39.4508 88.638 39.2968C88.938 39.1428 89.198 38.9238 89.418 38.6418L90.258 39.4558C90.0876 39.698 89.885 39.916 89.656 40.1038C89.409 40.3068 89.107 40.4728 88.75 40.5998C88.3542 40.7346 87.938 40.7996 87.52 40.7918ZM85.786 36.0618C85.7586 36.1773 85.7369 36.2941 85.721 36.4118H88.809V36.2868C88.8024 36.0095 88.7445 35.7359 88.638 35.4798C88.5428 35.2358 88.3797 35.0241 88.168 34.8698C87.956 34.7168 87.674 34.6398 87.321 34.6398C87.056 34.6398 86.821 34.6968 86.613 34.8108C86.4047 34.9258 86.2292 35.0921 86.103 35.2938C85.956 35.5307 85.8489 35.7902 85.786 36.0618Z" fill="white"/>
<path d="M104.951 40.5481C105.255 40.4022 105.523 40.1912 105.737 39.9301L105.778 40.6601H107.286V33.5011H105.685V38.6391C105.574 38.882 105.397 39.0893 105.175 39.2381C104.915 39.4141 104.558 39.5021 104.104 39.5021C103.951 39.5031 103.8 39.4808 103.654 39.4361C103.514 39.3926 103.386 39.3153 103.283 39.2111C103.169 39.0924 103.084 38.9499 103.032 38.7941C102.965 38.5824 102.933 38.3611 102.939 38.1391V33.5011H101.345V38.1261C101.345 38.5981 101.402 39.0041 101.517 39.3441C101.631 39.6841 101.792 39.9591 102 40.1701C102.211 40.3821 102.463 40.5391 102.754 40.6401C103.045 40.7421 103.365 40.7921 103.713 40.7921C104.194 40.7921 104.606 40.7111 104.951 40.5481ZM112.73 34.6661V33.5001H111.453V31.7471H109.859V33.5001H108.694V34.6651H109.859V38.7801C109.859 39.2701 109.938 39.6621 110.097 39.9581C110.256 40.2531 110.476 40.4681 110.759 40.5991C111.041 40.7271 111.365 40.7911 111.731 40.7911C111.956 40.7911 112.155 40.7761 112.327 40.7451C112.503 40.7151 112.658 40.6791 112.79 40.6391L112.783 39.4221C112.598 39.4592 112.41 39.4793 112.221 39.4821C112.067 39.4821 111.932 39.4621 111.817 39.4221C111.701 39.3809 111.604 39.2983 111.546 39.1901C111.484 39.0711 111.453 38.9011 111.453 38.6801V34.6651L112.73 34.6661ZM118.062 40.5481C118.376 40.3951 118.638 40.1881 118.849 39.9301L118.889 40.6601H120.398V33.5011H118.797V38.6391C118.685 38.8816 118.509 39.0888 118.287 39.2381C118.027 39.4141 117.67 39.5021 117.215 39.5021C117.056 39.5021 116.907 39.4801 116.765 39.4361C116.625 39.3925 116.498 39.3153 116.395 39.2111C116.281 39.0924 116.195 38.95 116.143 38.7941C116.077 38.5823 116.045 38.361 116.051 38.1391V33.5011H114.456V38.1261C114.456 38.5981 114.514 39.0041 114.628 39.3441C114.743 39.6841 114.904 39.9591 115.111 40.1701C115.323 40.3821 115.574 40.5391 115.866 40.6401C116.157 40.7421 116.476 40.7921 116.825 40.7921C117.306 40.7921 117.718 40.7111 118.062 40.5481ZM124.161 35.7671V40.6601H122.567V33.5011H124.089L124.134 34.3421L124.161 34.2951C124.342 34.0051 124.567 33.7771 124.836 33.6141C125.11 33.4511 125.425 33.3691 125.782 33.3691C125.879 33.3691 125.983 33.3781 126.093 33.3951C126.208 33.4131 126.294 33.4331 126.351 33.4551L126.338 34.9371C126.124 34.9024 125.907 34.8847 125.69 34.8841C125.416 34.8841 125.176 34.9241 124.969 35.0041C124.788 35.0669 124.622 35.1674 124.483 35.2989C124.344 35.4304 124.234 35.59 124.161 35.7671Z" fill="white"/>
<path fill-rule="evenodd" clip-rule="evenodd" d="M130.903 40.7922C130.373 40.7922 129.895 40.7062 129.467 40.5342C129.058 40.3678 128.689 40.1178 128.382 39.8002C128.083 39.4814 127.851 39.1056 127.7 38.6952C127.539 38.2565 127.458 37.7925 127.462 37.3252V37.0612C127.462 36.5012 127.544 35.9932 127.707 35.5392C127.87 35.0852 128.097 34.6972 128.388 34.3752C128.673 34.053 129.026 33.7977 129.421 33.6272C129.829 33.4529 130.268 33.3651 130.711 33.3692C131.222 33.3692 131.67 33.4552 132.054 33.6272C132.438 33.7992 132.755 34.0422 133.007 34.3552C133.262 34.6642 133.452 35.0322 133.575 35.4602C133.703 35.8882 133.767 36.3602 133.767 36.8762V37.5572H129.071C129.087 37.7832 129.126 37.9972 129.189 38.1992C129.277 38.4642 129.405 38.6952 129.573 38.8942C129.74 39.0922 129.943 39.2492 130.181 39.3642C130.42 39.4742 130.691 39.5292 130.995 39.5292C131.351 39.5356 131.703 39.456 132.021 39.2972C132.321 39.1432 132.581 38.9242 132.801 38.6422L133.642 39.4562C133.471 39.6983 133.269 39.9163 133.04 40.1042C132.768 40.3204 132.462 40.4882 132.133 40.6002C131.737 40.7351 131.321 40.8001 130.903 40.7922ZM129.169 36.0622C129.142 36.1777 129.12 36.2945 129.104 36.4122H132.193V36.2872C132.186 36.0099 132.128 35.7362 132.021 35.4802C131.926 35.2362 131.763 35.0246 131.551 34.8702C131.339 34.7172 131.057 34.6402 130.704 34.6402C130.439 34.6402 130.203 34.6972 129.996 34.8112C129.793 34.9212 129.623 35.0832 129.487 35.2942C129.34 35.531 129.232 35.7905 129.169 36.0622ZM139.138 37.0082V37.1602C139.138 37.6762 139.213 38.1552 139.363 38.5962C139.513 39.0362 139.731 39.4232 140.018 39.7542C140.305 40.0802 140.653 40.3362 141.063 40.5212C141.478 40.7022 141.948 40.7922 142.473 40.7922C142.993 40.7922 143.458 40.7022 143.869 40.5222C144.279 40.3362 144.627 40.0802 144.914 39.7542C145.206 39.4146 145.428 39.0212 145.569 38.5962C145.719 38.1552 145.794 37.6762 145.794 37.1602V37.0082C145.794 36.4922 145.719 36.0132 145.569 35.5722C145.43 35.1463 145.208 34.7525 144.914 34.4142C144.626 34.0824 144.266 33.8202 143.862 33.6472C143.42 33.4553 142.941 33.3605 142.459 33.3692C141.939 33.3692 141.471 33.4622 141.057 33.6472C140.647 33.8272 140.298 34.0842 140.011 34.4142C139.721 34.7541 139.501 35.1475 139.363 35.5722C139.213 36.0132 139.138 36.4922 139.138 37.0082ZM140.733 37.1602V37.0082C140.733 36.6902 140.766 36.3902 140.832 36.1082C140.891 35.8389 140.996 35.5818 141.143 35.3482C141.284 35.1272 141.463 34.9552 141.679 34.8312C141.899 34.7032 142.159 34.6392 142.459 34.6392C142.721 34.6331 142.98 34.6952 143.211 34.8193C143.442 34.9434 143.637 35.1253 143.776 35.3472C143.922 35.5672 144.027 35.8212 144.094 36.1082C144.164 36.3902 144.199 36.6902 144.199 37.0082V37.1602C144.199 37.4822 144.164 37.7862 144.094 38.0732C144.027 38.3602 143.924 38.6112 143.783 38.8272C143.646 39.039 143.46 39.2141 143.24 39.3372C143.005 39.4653 142.741 39.5291 142.473 39.5222C142.168 39.5222 141.906 39.4602 141.685 39.3372C141.465 39.2141 141.279 39.039 141.143 38.8272C140.996 38.5962 140.89 38.3409 140.832 38.0732C140.765 37.7736 140.731 37.4673 140.733 37.1602Z" fill="white"/>
<path d="M149.816 40.6599H148.221V34.6659H147.123V33.4999H148.221V32.8119C148.221 32.2779 148.32 31.8309 148.519 31.4689C148.722 31.1029 149.011 30.8269 149.386 30.6419C149.761 30.4519 150.204 30.3579 150.716 30.3579C150.874 30.3579 151.031 30.3679 151.185 30.3909C151.34 30.4079 151.49 30.4369 151.635 30.4769L151.596 31.7069C151.5 31.6839 151.402 31.6685 151.304 31.6609C151.194 31.6518 151.084 31.6475 150.974 31.6479C150.731 31.6479 150.521 31.6939 150.345 31.7869C150.176 31.8728 150.037 32.009 149.948 32.1769C149.854 32.3751 149.809 32.5928 149.816 32.8119V33.4999H151.291V34.6649H149.816V40.6599ZM158.475 35.5139V40.6599H156.88V33.5009H158.382L158.433 34.3079C158.666 34.0139 158.951 33.7879 159.288 33.6279C159.646 33.4549 160.058 33.3689 160.526 33.3689C160.852 33.3689 161.15 33.4169 161.419 33.5149C161.692 33.6069 161.928 33.7549 162.127 33.9579C162.274 34.1049 162.396 34.2829 162.492 34.4909C162.745 34.1153 163.094 33.8148 163.503 33.6209C163.878 33.4473 164.288 33.3611 164.701 33.3689C165.067 33.3689 165.393 33.4189 165.68 33.5209C165.971 33.6179 166.218 33.7729 166.421 33.9839C166.624 34.1959 166.778 34.4719 166.884 34.8109C166.99 35.1469 167.043 35.5519 167.043 36.0289V40.6599H165.442V36.0219C165.442 35.6599 165.389 35.3799 165.283 35.1819C165.194 34.9952 165.038 34.8489 164.846 34.7719C164.656 34.6919 164.429 34.6519 164.165 34.6519C163.918 34.6519 163.699 34.6989 163.51 34.7919C163.326 34.8789 163.165 35.008 163.04 35.1689C162.912 35.3291 162.814 35.5114 162.752 35.7069C162.754 35.7669 162.755 35.8269 162.755 35.8899V40.6599H161.161V36.0299C161.161 35.6809 161.108 35.4079 161.002 35.2099C160.91 35.0199 160.753 34.8694 160.559 34.7859C160.344 34.6927 160.111 34.6477 159.877 34.6539C159.577 34.6539 159.322 34.7109 159.11 34.8259C158.905 34.9392 158.73 35.1004 158.6 35.2959C158.554 35.3649 158.512 35.4379 158.475 35.5139Z" fill="white"/>
<path fill-rule="evenodd" clip-rule="evenodd" d="M168.908 37.1601V37.0081C168.908 36.4921 168.983 36.0131 169.133 35.5721C169.283 35.1271 169.499 34.7411 169.781 34.4141C170.068 34.0836 170.425 33.8215 170.826 33.6471C171.269 33.4561 171.747 33.3613 172.229 33.3691C172.754 33.3691 173.221 33.4621 173.632 33.6471C174.046 33.8271 174.397 34.0841 174.684 34.4141C174.97 34.7411 175.189 35.1271 175.339 35.5721C175.489 36.0131 175.564 36.4921 175.564 37.0081V37.1601C175.564 37.6761 175.489 38.1551 175.339 38.5961C175.189 39.0361 174.97 39.4231 174.684 39.7541C174.395 40.082 174.038 40.3436 173.638 40.5211C173.228 40.7021 172.763 40.7921 172.242 40.7921C171.759 40.8006 171.279 40.7087 170.833 40.5221C170.433 40.3446 170.077 40.0826 169.788 39.7541C169.496 39.4145 169.274 39.0211 169.133 38.5961C168.98 38.1331 168.903 37.6479 168.908 37.1601ZM170.502 37.0081V37.1601C170.502 37.4821 170.535 37.7861 170.601 38.0731C170.668 38.3601 170.771 38.6111 170.912 38.8271C171.053 39.0441 171.234 39.2131 171.455 39.3371C171.675 39.4601 171.938 39.5221 172.242 39.5221C172.538 39.5221 172.794 39.4601 173.01 39.3371C173.23 39.214 173.416 39.0388 173.552 38.8271C173.699 38.5961 173.805 38.3408 173.863 38.0731C173.934 37.7861 173.969 37.4831 173.969 37.1601V37.0081C173.969 36.6901 173.934 36.3901 173.863 36.1081C173.804 35.8379 173.696 35.5805 173.546 35.3481C173.411 35.1332 173.224 34.9555 173.003 34.8311C172.767 34.6981 172.5 34.6317 172.229 34.6391C171.929 34.6391 171.669 34.7031 171.448 34.8311C171.23 34.9566 171.046 35.1338 170.912 35.3471C170.771 35.5671 170.668 35.8211 170.601 36.1081C170.534 36.4033 170.5 36.7053 170.502 37.0081Z" fill="white"/>
<path d="M179.01 35.5719V40.6599H177.415V33.5009H178.917L178.969 34.3639L179.003 34.3219C179.246 34.0232 179.554 33.7832 179.903 33.6199C180.267 33.449 180.665 33.3631 181.067 33.3689C181.411 33.3689 181.722 33.4169 182 33.5149C182.283 33.6069 182.523 33.7589 182.721 33.9709C182.924 34.1829 183.079 34.4589 183.185 34.7979C183.29 35.1329 183.343 35.5459 183.343 36.0349V40.6599H181.742V36.0299C181.742 35.6859 181.691 35.4139 181.59 35.2159C181.505 35.0245 181.352 34.8713 181.16 34.7859C180.941 34.691 180.704 34.646 180.465 34.6539C180.192 34.6539 179.947 34.7109 179.731 34.8259C179.516 34.9402 179.328 35.1007 179.182 35.2959C179.118 35.3819 179.061 35.4749 179.01 35.5729V35.5719Z" fill="white"/>
<path fill-rule="evenodd" clip-rule="evenodd" d="M188.655 40.7918C188.165 40.7989 187.677 40.7113 187.22 40.5338C186.811 40.3677 186.441 40.1176 186.135 39.7998C185.836 39.481 185.604 39.1052 185.453 38.6948C185.291 38.2563 185.211 37.7921 185.215 37.3248V37.0608C185.215 36.5008 185.296 35.9928 185.46 35.5388C185.623 35.0848 185.85 34.6968 186.141 34.3748C186.426 34.0526 186.778 33.7973 187.173 33.6268C187.581 33.4526 188.02 33.3647 188.463 33.3688C188.975 33.3688 189.423 33.4548 189.807 33.6268C190.19 33.7988 190.508 34.0418 190.759 34.3548C191.015 34.6638 191.205 35.0318 191.328 35.4598C191.456 35.8878 191.52 36.3598 191.52 36.8758V37.5568H186.824C186.84 37.7828 186.879 37.9968 186.942 38.1988C187.03 38.4638 187.158 38.6948 187.325 38.8938C187.493 39.0918 187.696 39.2488 187.934 39.3638C188.172 39.4738 188.444 39.5288 188.748 39.5288C189.132 39.5288 189.473 39.4508 189.773 39.2968C190.073 39.1428 190.334 38.9238 190.554 38.6418L191.394 39.4558C191.224 39.6981 191.021 39.9161 190.792 40.1038C190.521 40.32 190.214 40.4878 189.886 40.5998C189.49 40.7348 189.073 40.7997 188.655 40.7918ZM186.922 36.0618C186.895 36.1773 186.873 36.2941 186.857 36.4118H189.945V36.2868C189.939 36.0094 189.88 35.7357 189.773 35.4798C189.678 35.2359 189.515 35.0242 189.304 34.8698C189.092 34.7168 188.81 34.6398 188.457 34.6398C188.192 34.6398 187.956 34.6968 187.749 34.8108C187.546 34.9208 187.376 35.0828 187.239 35.2938C187.092 35.5308 186.985 35.7902 186.922 36.0618Z" fill="white"/>
<path d="M194.994 40.642L192.459 33.502H194.179L195.731 38.392L197.222 33.502H198.929L196.058 41.752C195.983 41.9484 195.897 42.1403 195.8 42.327C195.689 42.542 195.549 42.7405 195.383 42.917C195.215 43.106 195.006 43.258 194.755 43.373C194.503 43.492 194.199 43.551 193.842 43.551C193.7 43.551 193.564 43.538 193.431 43.511C193.309 43.4903 193.188 43.4663 193.067 43.439L193.061 42.221C193.166 42.2306 193.272 42.2373 193.378 42.241C193.603 42.2474 193.827 42.2139 194.04 42.142C194.21 42.0848 194.359 41.9791 194.47 41.838C194.585 41.697 194.682 41.507 194.761 41.268L194.994 40.642Z" fill="white"/>
</g>
</g>
<defs>
<clipPath id="clip0_972_3312">
<rect width="238" height="56" fill="white"/>
</clipPath>
</defs>
</svg>
