<svg width="235" height="53" viewBox="0 0 235 53" fill="none" xmlns="http://www.w3.org/2000/svg">
<path d="M64.6948 38.4827H63.4054V32.0108H61.1784V30.9706H66.9219V32.0108H64.6948V38.4827Z" fill="white"/>
<path d="M73.1348 38.483H71.8455V35.016C71.8455 34.5537 71.7282 34.207 71.611 34.0914C71.3766 33.8603 71.1422 33.7447 70.7905 33.7447C70.3217 33.7447 69.8528 33.8603 69.6184 34.207C69.384 34.5537 69.2667 35.016 69.2667 35.7094V38.483H68.0946V30.5088H69.2667V32.589C69.2667 32.9357 69.2667 33.2824 69.1495 33.6291H69.2667C69.384 33.398 69.6184 33.1669 69.97 32.9357C70.3217 32.8201 70.5561 32.7046 71.025 32.7046C72.4315 32.7046 73.1348 33.398 73.1348 34.7848V38.483Z" fill="white"/>
<path d="M77.2363 38.5985C76.2986 38.5985 75.5954 38.3674 75.1265 37.7895C74.6576 37.3272 74.4232 36.5182 74.4232 35.7093C74.4232 34.7847 74.6576 34.0913 75.1265 33.5134C75.5954 32.9356 76.2986 32.7045 77.1191 32.7045C77.8224 32.7045 78.5257 32.9356 78.8773 33.3979C79.3462 33.8601 79.5806 34.438 79.5806 35.247V35.9404H75.7126C75.7126 36.5182 75.8298 36.865 76.1814 37.2117C76.4158 37.5584 76.8847 37.6739 77.3536 37.6739C77.7052 37.6739 78.0568 37.6739 78.2913 37.5584C78.6429 37.4428 78.8773 37.4428 79.229 37.2117V38.1362C78.8773 38.2518 78.6429 38.3674 78.2913 38.4829C78.0568 38.5985 77.7052 38.5985 77.2363 38.5985ZM77.1191 33.629C76.7675 33.629 76.4158 33.7446 76.1814 33.9757C75.947 34.2069 75.8298 34.5536 75.7126 35.0158H78.2913C78.2913 34.5536 78.1741 34.2069 77.9396 33.9757C77.7052 33.7446 77.4708 33.629 77.1191 33.629Z" fill="white"/>
<path d="M87.0821 31.8964C86.3788 31.8964 85.7927 32.1275 85.4411 32.5898C85.0895 33.0521 84.855 33.7455 84.855 34.67C84.855 35.5946 85.0895 36.288 85.4411 36.7503C85.7927 37.2126 86.3788 37.4437 87.1993 37.4437C87.551 37.4437 87.7854 37.4437 88.137 37.3281C88.4887 37.2126 88.7231 37.2126 89.0748 37.097V38.1371C88.4887 38.3683 87.7854 38.4838 87.0821 38.4838C85.91 38.4838 85.0895 38.1371 84.5034 37.4437C83.9173 36.7503 83.5657 35.8257 83.5657 34.5545C83.5657 33.7455 83.6829 33.0521 84.0345 32.4742C84.3862 31.8964 84.7378 31.4341 85.3239 31.0874C85.91 30.7407 86.496 30.6251 87.3165 30.6251C88.137 30.6251 88.8403 30.7407 89.4264 31.0874L88.9575 32.1275C88.7231 32.0119 88.3715 31.8964 88.137 31.7808C87.6682 31.8964 87.4337 31.8964 87.0821 31.8964Z" fill="white"/>
<path d="M93.1778 32.7047C93.4122 32.7047 93.6467 32.7047 93.7639 32.7047L93.6467 33.8604C93.5294 33.8604 93.295 33.7448 93.0606 33.7448C92.5917 33.7448 92.1229 33.8604 91.8885 34.2071C91.5368 34.5538 91.4196 34.9005 91.4196 35.4784V38.4832H90.2475V32.8203H91.1852L91.3024 33.8604H91.4196C91.654 33.5137 91.8885 33.2826 92.1229 33.0514C92.4745 32.8203 92.8262 32.7047 93.1778 32.7047Z" fill="white"/>
<path d="M94.4665 32.8202H95.7559L96.928 36.0561C97.1625 36.5184 97.2797 36.9807 97.2797 37.3274C97.2797 37.0962 97.3969 36.8651 97.3969 36.634C97.5141 36.4028 97.8657 35.1316 98.6862 32.8202H99.9756L97.5141 39.2921C97.0452 40.4478 96.3419 41.0256 95.287 41.0256C95.0526 41.0256 94.701 41.0256 94.4665 40.91V39.9855C94.701 39.9855 94.8182 40.1011 95.0526 40.1011C95.6387 40.1011 96.1075 39.7543 96.342 39.0609L96.5764 38.4831L94.4665 32.8202Z" fill="white"/>
<path d="M104.08 38.5987C103.376 38.5987 102.79 38.3675 102.321 37.7897H102.204C102.204 38.2519 102.321 38.5986 102.321 38.7142V41.0256H101.149V32.8202H102.087C102.087 32.9357 102.204 33.1669 102.204 33.6292H102.321C102.673 33.0513 103.259 32.8202 104.08 32.8202C104.783 32.8202 105.369 33.0513 105.721 33.6292C106.072 34.0914 106.307 34.9004 106.307 35.825C106.307 36.7495 106.072 37.443 105.721 38.0208C105.369 38.3675 104.783 38.5987 104.08 38.5987ZM103.728 33.6292C103.259 33.6292 102.908 33.7447 102.673 34.0914C102.439 34.3226 102.321 34.7849 102.321 35.4783V35.7094C102.321 36.4028 102.439 36.8651 102.673 37.2118C102.908 37.5585 103.259 37.6741 103.728 37.6741C104.197 37.6741 104.431 37.5585 104.666 37.2118C104.9 36.8651 105.017 36.4028 105.017 35.7094C105.017 35.016 104.9 34.5537 104.666 34.207C104.549 33.8603 104.197 33.6292 103.728 33.6292Z" fill="white"/>
<path d="M109.94 37.5581C110.292 37.5581 110.526 37.5581 110.878 37.4425V38.3671C110.76 38.4827 110.526 38.4827 110.409 38.4827C110.174 38.4827 109.94 38.5982 109.705 38.5982C108.533 38.5982 107.947 38.0204 107.947 36.7491V33.7443H107.127V33.1665L107.947 32.7042L108.416 31.5485H109.119V32.8198H110.76V33.7443H109.119V36.7491C109.119 37.0958 109.237 37.2114 109.354 37.4425C109.471 37.5581 109.588 37.5581 109.94 37.5581Z" fill="white"/>
<path d="M116.974 35.5947C116.974 36.5192 116.739 37.2126 116.27 37.7905C115.801 38.3683 115.098 38.5995 114.278 38.5995C113.692 38.5995 113.223 38.4839 112.871 38.2528C112.519 38.0216 112.168 37.6749 111.933 37.2126C111.699 36.7504 111.582 36.2881 111.582 35.5947C111.582 34.6701 111.816 33.9767 112.285 33.3988C112.754 32.9366 113.457 32.5899 114.278 32.5899C115.098 32.5899 115.801 32.821 116.27 33.3988C116.739 33.9767 116.974 34.6701 116.974 35.5947ZM112.754 35.5947C112.754 36.8659 113.223 37.5593 114.278 37.5593C115.215 37.5593 115.684 36.8659 115.684 35.5947C115.684 34.3234 115.215 33.63 114.16 33.63C113.692 33.63 113.223 33.7456 112.988 34.0923C112.871 34.5545 112.754 35.0168 112.754 35.5947Z" fill="white"/>
<path d="M122.482 35.4778V38.4827H121.193V30.9706H123.302C124.24 30.9706 125.061 31.2018 125.53 31.5485C125.998 31.8952 126.233 32.473 126.233 33.1665C126.233 34.091 125.764 34.7844 124.709 35.1311L126.819 38.4827H125.412L123.537 35.4778H122.482ZM123.302 34.4377C123.889 34.4377 124.357 34.3222 124.592 34.091C124.826 33.8599 124.943 33.5132 124.943 33.1665C124.943 32.7042 124.826 32.473 124.475 32.2419C124.24 32.0108 123.771 32.0108 123.185 32.0108H122.365V34.4377H123.302Z" fill="white"/>
<path d="M130.453 38.5985C129.515 38.5985 128.812 38.3674 128.343 37.7895C127.874 37.3272 127.639 36.5182 127.639 35.7093C127.639 34.7847 127.874 34.0913 128.343 33.5134C128.812 32.9356 129.515 32.7045 130.335 32.7045C131.039 32.7045 131.742 32.9356 132.094 33.3979C132.562 33.8601 132.797 34.438 132.797 35.247V35.9404H128.929C128.929 36.5182 129.046 36.865 129.398 37.2117C129.632 37.5584 130.101 37.6739 130.57 37.6739C130.921 37.6739 131.273 37.6739 131.508 37.5584C131.859 37.4428 132.094 37.4428 132.445 37.2117V38.1362C132.094 38.2518 131.859 38.3674 131.508 38.4829C131.156 38.5985 130.804 38.5985 130.453 38.5985ZM130.218 33.629C129.867 33.629 129.515 33.7446 129.28 33.9757C129.046 34.2069 128.929 34.5536 128.812 35.0158H131.39C131.39 34.5536 131.273 34.2069 131.039 33.9757C130.921 33.7446 130.57 33.629 130.218 33.629Z" fill="white"/>
<path d="M137.952 36.8659C137.952 37.4438 137.718 37.7905 137.366 38.1372C136.897 38.4839 136.311 38.5995 135.608 38.5995C134.788 38.5995 134.201 38.4839 133.733 38.2528V37.2126C134.436 37.5593 135.022 37.6749 135.608 37.6749C136.311 37.6749 136.78 37.4438 136.78 36.9815C136.78 36.8659 136.78 36.7504 136.663 36.6348C136.546 36.5192 136.429 36.4037 136.194 36.2881C135.96 36.1725 135.725 36.0569 135.374 35.9414C134.67 35.7102 134.319 35.4791 134.084 35.1324C133.85 34.9012 133.733 34.5545 133.733 34.0923C133.733 33.63 133.967 33.2833 134.319 32.9366C134.67 32.7054 135.256 32.5899 135.96 32.5899C136.663 32.5899 137.249 32.7054 137.835 33.0521L137.483 33.9767C136.897 33.7456 136.311 33.63 135.96 33.63C135.256 33.63 135.022 33.8611 135.022 34.2078C135.022 34.439 135.139 34.5545 135.256 34.6701C135.374 34.7857 135.842 35.0168 136.311 35.1324C136.78 35.3635 137.132 35.4791 137.366 35.5947C137.601 35.7102 137.718 35.9414 137.835 36.1725C137.835 36.4037 137.952 36.6348 137.952 36.8659Z" fill="white"/>
<path d="M141.82 38.5988C140.883 38.5988 140.179 38.3676 139.71 37.7898C139.242 37.3275 139.007 36.5185 139.007 35.7095C139.007 34.785 139.242 34.0915 139.71 33.5137C140.179 32.9358 140.883 32.7047 141.703 32.7047C142.406 32.7047 143.11 32.9358 143.461 33.3981C143.93 33.8604 144.165 34.4382 144.165 35.2472V35.9407H140.297C140.297 36.5185 140.414 36.8652 140.765 37.2119C141 37.5586 141.469 37.6742 141.938 37.6742C142.289 37.6742 142.641 37.6742 142.875 37.5586C143.227 37.4431 143.461 37.4431 143.813 37.2119V38.1365C143.461 38.252 143.227 38.3676 142.875 38.4832C142.524 38.5987 142.172 38.5988 141.82 38.5988ZM141.586 33.6293C141.234 33.6293 140.883 33.7448 140.648 33.976C140.414 34.2071 140.297 34.5538 140.179 35.0161H142.758C142.758 34.5538 142.641 34.2071 142.406 33.976C142.289 33.7448 141.938 33.6293 141.586 33.6293Z" fill="white"/>
<path d="M148.971 38.4826L148.737 37.6736C148.503 38.0203 148.151 38.2515 147.916 38.367C147.682 38.4826 147.33 38.5982 146.862 38.5982C146.275 38.5982 145.807 38.4826 145.572 38.1359C145.221 37.7892 145.103 37.4425 145.103 36.8646C145.103 36.2868 145.338 35.8245 145.807 35.5934C146.275 35.2467 146.979 35.1311 147.799 35.1311H148.854V34.7844C148.854 34.4377 148.737 34.2065 148.62 33.9754C148.503 33.7443 148.151 33.7443 147.799 33.7443C147.448 33.7443 147.213 33.7443 146.979 33.8598C146.744 33.9754 146.393 34.091 146.158 34.2065L145.807 33.3975C146.158 33.282 146.51 33.1664 146.862 33.0508C147.213 32.9353 147.565 32.9353 147.916 32.9353C148.62 32.9353 149.206 33.0508 149.557 33.3975C149.909 33.7443 150.144 34.2065 150.144 34.9V38.7137H148.971V38.4826ZM147.096 37.6736C147.565 37.6736 147.916 37.558 148.151 37.3269C148.385 37.0958 148.503 36.7491 148.503 36.2868V35.8245H147.799C147.213 35.8245 146.744 35.9401 146.51 36.0556C146.275 36.1712 146.158 36.5179 146.158 36.8646C146.158 37.0958 146.275 37.3269 146.393 37.4425C146.627 37.5581 146.862 37.6736 147.096 37.6736Z" fill="white"/>
<path d="M154.363 32.7045C154.597 32.7045 154.832 32.7045 154.949 32.7045L154.832 33.8601C154.714 33.8601 154.48 33.7446 154.246 33.7446C153.777 33.7446 153.308 33.8601 153.073 34.2069C152.722 34.5536 152.605 34.9003 152.605 35.4781V38.4829H151.432V32.82H152.37L152.605 33.7446H152.722C152.956 33.3979 153.191 33.1667 153.425 32.9356C153.777 32.82 154.011 32.7045 154.363 32.7045Z" fill="white"/>
<path d="M158.348 38.5995C157.528 38.5995 156.825 38.3683 156.356 37.7905C155.887 37.3282 155.653 36.5192 155.653 35.5947C155.653 34.6701 155.887 33.8611 156.356 33.3988C156.825 32.9366 157.528 32.5899 158.466 32.5899C159.052 32.5899 159.638 32.7054 160.107 32.9366L159.755 33.8611C159.286 33.63 158.817 33.5144 158.466 33.5144C157.411 33.5144 156.942 34.2078 156.942 35.4791C156.942 36.1725 157.059 36.6348 157.294 36.8659C157.528 37.2126 157.88 37.3282 158.348 37.3282C158.934 37.3282 159.403 37.2126 159.872 36.9815V38.0216C159.638 38.1372 159.403 38.2528 159.169 38.2528C159.052 38.5995 158.7 38.5995 158.348 38.5995Z" fill="white"/>
<path d="M166.32 38.483H165.031V35.016C165.031 34.5537 164.913 34.207 164.796 34.0914C164.679 33.9758 164.327 33.7447 163.976 33.7447C163.507 33.7447 163.038 33.8603 162.804 34.207C162.569 34.5537 162.452 35.016 162.452 35.7094V38.483H161.28V30.5088H162.452V32.589C162.452 32.9357 162.452 33.2824 162.335 33.6291H162.452C162.569 33.398 162.804 33.1669 163.155 32.9357C163.507 32.7046 163.741 32.7046 164.21 32.7046C165.617 32.7046 166.32 33.398 166.32 34.7848V38.483Z" fill="white"/>
<path d="M175.932 33.282C175.932 34.091 175.697 34.6689 175.111 35.1311C174.643 35.5934 173.822 35.709 172.884 35.709H172.064V38.4827H170.774V30.9706H173.001C173.939 30.9706 174.643 31.2018 175.111 31.5485C175.697 31.8952 175.932 32.473 175.932 33.282ZM172.181 34.6689H172.884C173.47 34.6689 173.939 34.5533 174.291 34.3222C174.643 34.091 174.76 33.7443 174.76 33.282C174.76 32.8198 174.643 32.473 174.408 32.3575C174.174 32.1263 173.705 32.0108 173.119 32.0108H172.298V34.6689H172.181Z" fill="white"/>
<path d="M178.51 38.483H177.338V30.5088H178.51V38.483Z" fill="white"/>
<path d="M183.784 38.4826L183.55 37.6736C183.316 38.0203 182.964 38.2515 182.73 38.367C182.495 38.4826 182.143 38.5982 181.675 38.5982C181.089 38.5982 180.62 38.4826 180.385 38.1359C180.034 37.7892 179.916 37.4425 179.916 36.8646C179.916 36.2868 180.151 35.8245 180.62 35.5934C181.089 35.3622 181.792 35.1311 182.612 35.1311H183.55V34.7844C183.55 34.4377 183.433 34.2065 183.316 33.9754C183.198 33.7443 182.847 33.7443 182.495 33.7443C182.143 33.7443 181.909 33.7443 181.675 33.8598C181.44 33.9754 181.089 34.091 180.854 34.2065L180.503 33.3975C180.854 33.282 181.206 33.1664 181.557 33.0508C181.909 32.9353 182.261 32.9353 182.612 32.9353C183.316 32.9353 183.902 33.0508 184.253 33.3975C184.605 33.7443 184.839 34.2065 184.839 34.9V38.7137H183.784V38.4826ZM181.909 37.6736C182.378 37.6736 182.73 37.558 182.964 37.3269C183.198 37.0958 183.316 36.7491 183.316 36.2868V35.8245H182.612C182.026 35.8245 181.557 35.9401 181.323 36.0556C181.089 36.1712 180.971 36.5179 180.971 36.8646C180.971 37.0958 181.089 37.3269 181.206 37.4425C181.44 37.5581 181.675 37.6736 181.909 37.6736Z" fill="white"/>
<path d="M188.473 37.5577C188.825 37.5577 189.059 37.5577 189.411 37.4422V38.3667C189.294 38.4823 189.059 38.4823 188.942 38.4823C188.707 38.4823 188.473 38.5979 188.239 38.5979C187.066 38.5979 186.48 38.02 186.48 36.7487V33.7439H185.66V33.1661L186.48 32.7038L186.949 31.5481H187.653V32.8194H189.294V33.7439H187.653V36.7487C187.653 37.0955 187.77 37.211 187.887 37.4422C188.004 37.5577 188.239 37.5577 188.473 37.5577Z" fill="white"/>
<path d="M193.63 33.7447H192.223V38.483H190.934V33.7447H189.996V33.1669L190.934 32.8201V32.4734C190.934 31.78 191.051 31.3177 191.403 30.971C191.754 30.6243 192.223 30.5088 192.809 30.5088C193.278 30.5088 193.63 30.6243 194.099 30.7399L193.747 31.6644C193.395 31.5489 193.161 31.5489 192.927 31.5489C192.692 31.5489 192.458 31.6644 192.34 31.78C192.223 31.8956 192.106 32.2423 192.106 32.589V32.9357H193.513V33.7447H193.63Z" fill="white"/>
<path d="M199.725 35.5947C199.725 36.5192 199.49 37.2126 199.022 37.7905C198.553 38.3683 197.849 38.5995 197.029 38.5995C196.443 38.5995 195.974 38.4839 195.622 38.2528C195.271 38.0216 194.919 37.6749 194.685 37.2126C194.45 36.7504 194.333 36.2881 194.333 35.5947C194.333 34.6701 194.567 33.9767 195.036 33.3988C195.505 32.9366 196.208 32.5899 197.029 32.5899C197.849 32.5899 198.553 32.821 199.022 33.3988C199.49 33.9767 199.725 34.6701 199.725 35.5947ZM195.505 35.5947C195.505 36.8659 195.974 37.5593 197.029 37.5593C197.967 37.5593 198.435 36.8659 198.435 35.5947C198.435 34.3234 197.967 33.63 196.912 33.63C196.443 33.63 195.974 33.7456 195.74 34.0923C195.622 34.5545 195.505 35.0168 195.505 35.5947Z" fill="white"/>
<path d="M204.063 32.7045C204.297 32.7045 204.532 32.7045 204.649 32.7045L204.532 33.8601C204.414 33.8601 204.18 33.7446 203.946 33.7446C203.477 33.7446 203.008 33.8601 202.773 34.2069C202.422 34.5536 202.305 34.9003 202.305 35.4781V38.4829H201.132V32.82H202.07L202.187 33.8601H202.305C202.539 33.5134 202.773 33.2823 203.008 33.0512C203.36 32.82 203.711 32.7045 204.063 32.7045Z" fill="white"/>
<path d="M210.509 38.4831H209.22V35.016C209.22 34.5537 209.103 34.207 208.986 34.0914C208.868 33.8603 208.517 33.7447 208.165 33.7447C207.696 33.7447 207.345 33.8603 207.11 34.207C206.876 34.5537 206.759 35.016 206.759 35.7094V38.5987H205.587V32.9357H206.524L206.641 33.6292H206.759C206.876 33.398 207.11 33.1669 207.462 33.0513C207.814 32.9357 208.048 32.8202 208.517 32.8202C209.455 32.8202 210.041 33.1669 210.275 33.7447H210.392C210.509 33.5136 210.744 33.2825 211.096 33.0513C211.447 32.9357 211.799 32.8202 212.15 32.8202C212.854 32.8202 213.323 32.9357 213.674 33.2825C214.026 33.6292 214.143 34.0914 214.143 34.9004V38.5987H212.971V35.1316C212.971 34.6693 212.854 34.3226 212.737 34.207C212.619 33.9759 212.268 33.8603 211.916 33.8603C211.447 33.8603 211.096 33.9759 210.861 34.3226C210.627 34.6693 210.509 35.016 210.509 35.7094V38.4831Z" fill="white"/>
<path fill-rule="evenodd" clip-rule="evenodd" d="M0.227295 19.5296C0.227295 8.8972 9.01834 0.229492 19.802 0.229492C30.5857 0.229492 39.3768 8.8972 39.3768 19.6452C39.3768 24.4991 37.5013 29.0063 34.3365 32.4734L30.2341 28.4284L19.6848 38.8297C8.90113 38.7141 0.227295 30.162 0.227295 19.5296ZM29.7645 16.2933C29.2957 13.8664 28.2407 12.0172 26.4825 10.6304C24.7243 9.24357 22.6145 8.55016 19.9186 8.31902C17.9259 8.31902 16.1677 8.7813 14.6439 9.59028C13.1202 10.3993 11.948 11.6705 11.1275 13.1729C10.307 14.6753 9.83816 16.5245 9.83816 18.6047C9.83816 20.685 10.307 22.5341 11.1275 24.0365C11.948 25.6544 13.1202 26.8101 14.6439 27.6191C16.1677 28.4281 17.9259 28.8904 19.9186 28.8904C22.6145 28.8904 24.7243 28.197 26.4825 26.8101C28.2407 25.4233 29.2957 23.5742 29.7645 21.1472H24.3727C24.1383 22.3029 23.6694 23.1119 22.8489 23.6898C22.1456 24.2676 21.0907 24.6143 19.9186 24.6143C18.512 24.6143 17.4571 24.152 16.5194 23.1119C15.5816 22.0718 15.1128 20.685 15.1128 18.7203C15.1128 16.7556 15.5816 15.3688 16.5194 14.3286C17.4571 13.2885 18.512 12.8262 19.9186 12.8262C21.0907 12.8262 22.0284 13.1729 22.8489 13.7508C23.6694 14.4442 24.1383 15.2532 24.3727 16.2933H29.7645Z" fill="white"/>
<path d="M39.377 28.5437V32.8198H45.5893L37.1499 41.1408L31.8753 35.9401C30.9376 35.0156 29.531 35.0156 28.5933 35.9401L15.1137 49.3462L18.1613 52.351L30.2343 40.4474L35.5089 45.648C36.4467 46.5725 37.8532 46.5725 38.7909 45.648L48.6369 35.9401V41.9498H52.9738V28.5437H39.377Z" fill="white"/>
<path d="M71.0244 7.6269C69.3834 7.6269 68.094 8.20475 67.1563 9.47601C66.2186 10.7473 65.7497 12.4808 65.7497 14.6766C65.7497 19.2994 67.5079 21.6108 71.0244 21.6108C72.5481 21.6108 74.3064 21.2641 76.299 20.5707V24.2689C74.5408 24.9623 72.6654 25.309 70.5555 25.309C67.5079 25.309 65.1637 24.3845 63.6399 22.5354C61.9989 20.6863 61.1784 18.1437 61.1784 14.6766C61.1784 12.4808 61.53 10.6317 62.3505 9.01374C63.171 7.39576 64.2259 6.1245 65.7497 5.31551C67.2735 4.50653 68.9145 4.04425 70.9071 4.04425C72.8998 4.04425 75.0096 4.50653 77.0023 5.54665L75.5957 9.1293C74.7752 8.7826 74.0719 8.43589 73.2514 8.20475C72.5481 7.74247 71.7276 7.6269 71.0244 7.6269Z" fill="white"/>
<path d="M93.2944 16.9873C93.2944 19.5299 92.5912 21.6101 91.1846 22.997C89.778 24.3838 87.9026 25.1928 85.4411 25.1928C83.9173 25.1928 82.5108 24.8461 81.3386 24.1526C80.1665 23.4592 79.2288 22.5347 78.6427 21.2634C78.0566 19.9921 77.705 18.6053 77.705 16.8718C77.705 14.3292 78.4083 12.249 79.6976 10.8622C80.987 9.47533 82.9796 8.66634 85.4411 8.66634C86.9649 8.66634 88.3715 9.01305 89.5436 9.70647C90.7157 10.3999 91.6534 11.3244 92.2395 12.5957C93.06 13.867 93.2944 15.2538 93.2944 16.9873ZM82.2763 16.9873C82.2763 18.4897 82.5107 19.761 83.0968 20.57C83.5657 21.379 84.5034 21.7257 85.6755 21.7257C86.8477 21.7257 87.6682 21.379 88.137 20.57C88.6059 19.761 88.9575 18.6053 88.9575 16.9873C88.9575 15.4849 88.7231 14.2137 88.137 13.5203C87.551 12.8268 86.7305 12.3646 85.5583 12.3646C84.3862 12.3646 83.5657 12.7113 83.0968 13.5203C82.5107 14.2137 82.2763 15.3694 82.2763 16.9873Z" fill="white"/>
<path d="M95.2886 4.96891C95.2886 3.58208 96.1091 2.88866 97.6329 2.88866C99.1567 2.88866 99.9772 3.58208 99.9772 4.96891C99.9772 5.66233 99.7427 6.12461 99.3911 6.47131C99.0394 6.93359 98.4534 7.16473 97.6329 7.16473C95.9919 7.16473 95.2886 6.47131 95.2886 4.96891ZM99.7427 24.8469H95.4058V9.12941H99.7427V24.8469Z" fill="white"/>
<path d="M117.558 24.8471H113.221V15.6015C113.221 14.4458 112.987 13.6369 112.635 13.059C112.283 12.4812 111.58 12.25 110.642 12.25C109.47 12.25 108.532 12.5967 107.946 13.4057C107.36 14.2147 107.126 15.486 107.126 17.4506V24.8471H102.789V9.12965H106.071L106.657 11.0943H106.891C107.36 10.2853 108.064 9.70749 108.884 9.36079C109.705 9.01408 110.759 8.78294 111.814 8.78294C113.69 8.78294 115.096 9.24522 116.034 10.2853C116.972 11.3255 117.441 12.7123 117.441 14.5614V24.8471H117.558Z" fill="white"/>
<path d="M129.865 7.6269C128.224 7.6269 126.935 8.20475 125.997 9.47601C125.06 10.7473 124.591 12.4808 124.591 14.6766C124.591 19.2994 126.349 21.6108 129.865 21.6108C131.389 21.6108 133.147 21.2641 135.14 20.5707V24.2689C133.382 24.9623 131.506 25.309 129.397 25.309C126.349 25.309 124.005 24.3845 122.481 22.5354C120.84 20.6863 120.019 18.1437 120.019 14.6766C120.019 12.4808 120.371 10.6317 121.192 9.01374C122.012 7.39576 123.067 6.1245 124.591 5.31551C126.115 4.50653 127.756 4.04425 129.748 4.04425C131.741 4.04425 133.851 4.50653 135.843 5.54665L134.437 9.1293C133.616 8.7826 132.913 8.43589 132.092 8.20475C131.389 7.74247 130.686 7.6269 129.865 7.6269Z" fill="white"/>
<path d="M152.605 24.8469H148.268V15.6013C148.268 13.2899 147.448 12.2498 145.69 12.2498C144.518 12.2498 143.58 12.7121 142.994 13.5211C142.408 14.33 142.173 15.7169 142.173 17.4504V24.8469H137.836V2.88866H142.173V7.39587C142.173 7.74258 142.173 8.55157 142.056 9.82283L141.939 11.0941H142.173C143.111 9.59169 144.635 8.7827 146.745 8.7827C148.62 8.7827 150.027 9.24498 150.964 10.2851C151.902 11.3252 152.371 12.7121 152.371 14.5612V24.8469H152.605Z" fill="white"/>
<path d="M162.802 25.0782C160.224 25.0782 158.231 24.3848 156.825 22.998C155.418 21.6112 154.598 19.6465 154.598 17.1039C154.598 14.4458 155.301 12.4812 156.59 10.9788C157.88 9.59193 159.755 8.78294 162.099 8.78294C164.326 8.78294 166.084 9.36079 167.374 10.6321C168.663 11.9033 169.249 13.6369 169.249 15.8327V17.9129H158.934C158.934 19.1842 159.403 20.1087 159.989 20.8022C160.693 21.4956 161.63 21.8423 162.92 21.8423C163.857 21.8423 164.795 21.7267 165.616 21.4956C166.436 21.2644 167.374 21.0333 168.312 20.571V23.9225C167.491 24.2692 166.788 24.616 165.85 24.7315C165.147 25.0782 164.092 25.0782 162.802 25.0782ZM162.216 11.9033C161.279 11.9033 160.575 12.25 159.989 12.7123C159.52 13.2901 159.169 14.0991 159.052 15.1393H165.147C165.147 14.0991 164.795 13.2901 164.326 12.7123C163.857 12.1345 163.154 11.9033 162.216 11.9033Z" fill="white"/>
<path d="M178.158 25.0782C173.235 25.0782 170.656 22.4201 170.656 16.9884C170.656 14.3303 171.36 12.25 172.649 10.8632C174.055 9.47636 175.931 8.78294 178.51 8.78294C180.385 8.78294 182.026 9.12965 183.433 9.82306L182.143 13.1746C181.44 12.9434 180.854 12.7123 180.268 12.4812C179.682 12.3656 179.096 12.25 178.51 12.25C176.282 12.25 175.11 13.868 175.11 16.9884C175.11 20.1087 176.282 21.6111 178.51 21.6111C179.33 21.6111 180.151 21.4956 180.854 21.2644C181.557 21.0333 182.26 20.6866 182.964 20.2243V23.9225C182.26 24.3848 181.557 24.616 180.854 24.8471C180.151 25.0782 179.33 25.0782 178.158 25.0782Z" fill="white"/>
<path d="M189.411 16.2947L191.286 13.8678L195.74 9.12941H200.663L194.334 15.948L201.015 24.8469H195.975L191.403 18.4905L189.528 19.9929V24.8469H185.191V2.88866H189.528V12.7121L189.411 16.2947Z" fill="white"/>
<path d="M213.439 24.8472L212.852 22.8825H212.618C212.149 23.5759 211.446 24.1538 210.625 24.616C209.805 24.9627 208.75 25.1939 207.695 25.1939C205.82 25.1939 204.413 24.7316 203.475 23.6915C202.538 22.6514 202.069 21.2645 202.069 19.4154V9.12973H206.406V18.3753C206.406 19.531 206.64 20.34 206.992 20.9178C207.343 21.4957 208.047 21.7268 208.984 21.7268C210.157 21.7268 211.094 21.3801 211.68 20.5711C212.266 19.7621 212.501 18.4909 212.501 16.5262V9.12973H216.838V24.8472H213.439Z" fill="white"/>
<path d="M228.56 25.0788C226.685 25.0788 225.161 24.3853 224.106 23.1141H223.872C223.989 24.3853 224.106 25.1943 224.106 25.4255V31.7818H219.769V9.13017H223.286L223.872 11.2104H224.106C225.161 9.70802 226.685 8.89904 228.677 8.89904C230.553 8.89904 232.077 9.59245 233.132 11.0949C234.186 12.4817 234.773 14.5619 234.773 17.1045C234.773 18.838 234.538 20.2248 234.069 21.4961C233.6 22.7674 232.897 23.6919 231.959 24.3853C230.787 24.8476 229.732 25.0788 228.56 25.0788ZM227.271 12.2506C226.216 12.2506 225.395 12.5973 224.927 13.1751C224.458 13.8685 224.223 14.9086 224.106 16.4111V16.8733C224.106 18.6069 224.34 19.7626 224.927 20.456C225.395 21.1494 226.216 21.6117 227.388 21.6117C229.381 21.6117 230.318 19.9937 230.318 16.8733C230.318 15.3709 230.084 14.2152 229.615 13.4062C229.029 12.5973 228.209 12.2506 227.271 12.2506Z" fill="white"/>
</svg>
