<svg width="256" height="49" viewBox="0 0 256 49" fill="none" xmlns="http://www.w3.org/2000/svg">
<g clip-path="url(#clip0_972_3330)">
<path d="M71.6082 34.2926C66.887 34.2926 63.9614 30.0554 63.9614 24.1928C63.9614 18.3883 66.4235 14.0639 71.5791 14.0639C74.9678 14.0639 77.1981 16.2406 77.6041 19.1138H85.4826C85.0766 15.5441 83.4837 12.4097 80.7033 10.32C78.4439 8.57866 75.3156 7.50488 71.6082 7.50488C62.1076 7.50488 55.938 14.7024 55.938 24.1928C55.938 33.7412 62.3104 40.7356 71.6663 40.7356C76.1554 40.7356 79.4284 39.4877 81.8617 37.1078C84.0339 35.0182 85.4826 32.1159 85.6849 28.9525H77.8065C77.4593 32.0579 75.1417 34.2926 71.6082 34.2926Z" fill="white"/>
<path d="M100.226 16.5889C92.9268 16.5889 88.0318 21.8129 88.0318 28.6913C88.0318 35.5696 92.9268 40.7937 100.226 40.7937C107.583 40.7937 112.391 35.5696 112.391 28.6913C112.391 21.8129 107.583 16.5889 100.226 16.5889ZM100.197 35.5986C97.0396 35.5986 95.3886 32.8415 95.3886 28.6913C95.3886 24.541 97.0396 21.7259 100.197 21.7259C103.354 21.7259 105.063 24.541 105.063 28.6913C105.034 32.8415 103.354 35.5986 100.197 35.5986Z" fill="white"/>
<path d="M122.697 14.1596C124.247 12.6068 124.247 10.0894 122.697 8.53663C121.147 6.98388 118.635 6.98388 117.085 8.53663C115.536 10.0894 115.536 12.6068 117.085 14.1596C118.635 15.7123 121.147 15.7123 122.697 14.1596Z" fill="white"/>
<path d="M113.578 22.3352H116.619V40.068H123.861V17.1982H113.578V22.3352Z" fill="white"/>
<path d="M141.675 16.5312C138.518 16.5312 136.316 17.8663 134.637 20.3332H134.492V17.1988H127.511V40.0395H134.781V27.4147C134.781 24.5995 136.374 22.597 138.778 22.597C141.154 22.597 142.341 24.2512 142.341 26.6601V40.0395H149.611V25.18C149.611 20.101 146.657 16.5312 141.675 16.5312Z" fill="white"/>
<path d="M166.642 8.14355H153.058V40.0393H166.15C170.148 40.0393 173.362 39.0236 175.854 37.137C179.417 34.409 181.386 29.9105 181.386 24.2801C181.386 14.5285 175.448 8.14355 166.642 8.14355ZM165.571 33.4222H160.937V14.7607H165.658C170.611 14.7607 173.421 18.5046 173.421 24.3091C173.391 30.1426 170.727 33.4222 165.571 33.4222Z" fill="white"/>
<path d="M202.906 19.5493C200.937 17.7789 198.359 16.7051 195.115 16.7051C188.163 16.7051 183.413 21.9291 183.413 28.7494C183.413 35.6568 188.047 40.8809 195.579 40.8809C198.475 40.8809 200.792 40.1262 202.704 38.7912C204.702 37.3982 206.035 35.4536 206.527 33.393H199.46C198.823 34.8151 197.577 35.6568 195.665 35.6568C192.682 35.6568 191.002 33.7413 190.538 30.6649H206.933C206.962 25.9923 205.629 22.0452 202.906 19.5493ZM190.567 26.3115C191.06 23.5834 192.479 21.8421 195.231 21.8421C197.577 21.8421 199.286 23.5834 199.547 26.3115H190.567Z" fill="white"/>
<path d="M221.241 25.7598C218.345 25.2374 215.767 25.0052 215.767 23.409C215.767 21.9869 217.157 21.3193 218.924 21.3193C220.923 21.3193 222.313 21.9579 222.574 23.9894H229.265C228.917 19.4909 225.442 16.6758 218.982 16.6758C213.594 16.6758 209.134 19.1717 209.134 23.9894C209.134 29.3586 213.363 30.4034 217.331 31.0709C220.373 31.5933 223.124 31.8256 223.124 33.8861C223.124 35.3662 221.734 36.1499 219.561 36.1499C217.157 36.1499 215.651 35.047 215.361 32.7543H208.497C208.729 37.8042 212.899 40.8805 219.59 40.8805C225.557 40.8805 229.96 38.2976 229.96 33.3057C229.989 27.4721 225.268 26.4273 221.241 25.7598Z" fill="white"/>
<path d="M247.05 25.7893L255.073 17.1986H246.702L239.924 24.9186V8.14355H232.77V40.0683H239.924V33.0449L242.125 30.7231L247.6 40.0683H256L247.05 25.7893Z" fill="white"/>
<path d="M24.0189 26.3118C25.2347 26.3118 26.2202 25.3243 26.2202 24.1061C26.2202 22.8879 25.2347 21.9004 24.0189 21.9004C22.8032 21.9004 21.8176 22.8879 21.8176 24.1061C21.8176 25.3243 22.8032 26.3118 24.0189 26.3118Z" fill="white"/>
<path d="M41.5718 26.3118C42.7876 26.3118 43.7732 25.3243 43.7732 24.1061C43.7732 22.8879 42.7876 21.9004 41.5718 21.9004C40.356 21.9004 39.3705 22.8879 39.3705 24.1061C39.3705 25.3243 40.356 26.3118 41.5718 26.3118Z" fill="white"/>
<path d="M41.5718 43.928C42.7876 43.928 43.7732 42.9405 43.7732 41.7223C43.7732 40.5041 42.7876 39.5166 41.5718 39.5166C40.356 39.5166 39.3705 40.5041 39.3705 41.7223C39.3705 42.9405 40.356 43.928 41.5718 43.928Z" fill="white"/>
<path d="M48.0309 6.0829C47.7991 2.86139 45.2213 0.24937 42.0062 0.0171898C39.9496 -0.127923 38.0958 0.655683 36.7924 1.99072C35.8076 3.00651 34.4753 3.61598 33.0559 3.61598H32.5346C31.0864 3.61598 29.725 3.00651 28.7112 1.9617C27.5236 0.742749 25.8726 0.0171898 24.0478 0.0171898C22.223 0.0171898 20.572 0.771775 19.3844 1.9617C18.3707 3.00651 17.0093 3.61598 15.561 3.61598H15.0686C13.6494 3.61598 12.288 3.06455 11.3032 2.04877C11.1004 1.84561 10.8976 1.64245 10.6949 1.46832C8.23292 -0.534238 4.61226 -0.476194 2.23713 1.64245C-0.630412 4.16741 -0.746272 8.57885 1.91851 11.2489C1.94748 11.2779 1.97644 11.3069 2.00541 11.336C3.04815 12.3227 3.59849 13.7158 3.59849 15.1379V15.6313C3.59849 17.0824 2.99022 18.4465 1.94747 19.4623C0.730945 20.6522 0.00681984 22.3065 0.00681984 24.1349C0.00681984 25.9633 0.759913 27.6176 1.94747 28.8076C2.99022 29.8234 3.59849 31.1874 3.59849 32.6385V33.3061C3.59849 34.7281 2.99022 36.0632 1.97644 37.0499C0.701983 38.2979 -0.080075 40.0683 0.00681984 42.0128C0.151645 45.4374 2.93229 48.1946 6.3212 48.3107C8.29084 48.3687 10.0577 47.5851 11.3032 46.2791C12.288 45.2633 13.6204 44.6248 15.0397 44.6248H15.59C17.0093 44.6248 18.3417 45.2343 19.3265 46.2791C20.6299 47.6432 22.5127 48.4267 24.5692 48.2817C27.7843 48.0495 30.3911 45.4374 30.6229 42.1869C30.8836 38.3269 27.8712 35.1344 24.0768 35.1344C22.2809 35.1344 20.6299 35.86 19.4424 37.0499C18.4286 38.0657 17.0672 38.6752 15.6479 38.6752H15.0397C13.6204 38.6752 12.2301 38.1238 11.2163 37.0789C11.1873 37.0499 11.1873 37.0499 11.1584 37.0209C10.1156 36.0051 9.50736 34.6411 9.50736 33.1899V32.6095C9.50736 31.1584 10.1156 29.7943 11.1584 28.7785C12.3749 27.5886 13.0991 25.9343 13.0991 24.1059C13.0991 22.2775 12.3459 20.6232 11.1584 19.4332C10.1156 18.4175 9.50736 17.0534 9.50736 15.6023V15.0799C9.50736 13.6288 10.1156 12.2647 11.1294 11.2489C11.1584 11.2199 11.1584 11.2199 11.1873 11.1909C11.2163 11.1619 11.2163 11.1619 11.2453 11.1328C12.259 10.117 13.6204 9.50756 15.0686 9.50756H15.59C17.0383 9.50756 18.3996 10.117 19.4134 11.1619C20.601 12.3808 22.252 13.1064 24.0768 13.1064C25.9016 13.1064 27.5526 12.3517 28.7401 11.1619C29.7539 10.117 31.1153 9.50756 32.5635 9.50756H33.027C34.4753 9.50756 35.8366 10.117 36.8504 11.1619C38.0379 12.3808 39.6889 13.1064 41.5138 13.1064C45.2792 13.1354 48.2916 9.94289 48.0309 6.0829Z" fill="white"/>
</g>
<defs>
<clipPath id="clip0_972_3330">
<rect width="256" height="48.4848" fill="white"/>
</clipPath>
</defs>
</svg>
