<svg width="229" height="55" viewBox="0 0 229 55" fill="none" xmlns="http://www.w3.org/2000/svg">
<path fill-rule="evenodd" clip-rule="evenodd" d="M13.4409 0H40.2281L53.6691 13.7014H26.8818L26.7872 13.7986V13.7014L13.442 0.00119972L26.7872 13.7986H0L13.4409 0ZM26.7871 41.2987H53.5743L40.2281 55H13.3463L0 41.2985V13.7986H26.6925L13.3934 27.4515L13.4409 27.4999V27.5973L26.7871 41.2987ZM40.2281 27.5001L40.1334 27.4999L26.7872 13.7986H53.5743L40.2281 27.5001ZM40.2281 27.5001H40.3228L53.6691 41.2015H26.8818L40.2281 27.5001ZM70.7076 31.9698C70.329 32.3585 69.7611 32.5528 69.0985 32.5528L69.0038 32.65C68.0573 32.65 67.3 32.2613 66.9214 31.4839C66.5428 30.6094 66.3535 29.4433 66.3535 27.9857V27.597C66.2588 26.4309 66.4481 25.2648 66.9214 24.1959C67.3 23.3214 67.9626 22.9327 69.0038 22.9327C69.7611 22.9327 70.2343 23.2242 70.613 23.7101C70.9916 24.2931 71.1809 25.0705 71.1809 25.7507L76.1029 25.6535C76.1976 23.8073 75.535 21.8638 74.2098 20.6005C72.8847 19.3373 71.1809 18.7543 69.0038 18.7543C66.4481 18.7543 64.4604 19.5316 63.0406 21.1836C61.6208 22.8355 60.9582 24.9733 60.9582 27.597V27.9857C60.7689 30.3178 61.6208 32.5528 63.0406 34.3991C64.4604 35.9539 66.4481 36.8284 69.0985 36.8284C70.9916 36.8284 72.79 36.2454 74.2098 34.9821C75.535 33.8161 76.2922 32.0669 76.1976 30.2207H71.2755C71.2755 30.998 71.0862 31.5811 70.7076 31.9698ZM86.0415 23.7101H88.0295L88.5975 18.7543C88.0295 18.5599 87.5565 18.5599 87.0825 18.5599C86.3255 18.5599 85.5685 18.8514 85.0005 19.3373C84.3375 19.9203 83.8645 20.6005 83.5805 21.4751L83.3915 18.8514H78.3746V36.4397H83.6755V24.8762C83.8645 24.4875 84.1485 24.1959 84.5275 24.0016C84.9055 23.8073 85.4735 23.7101 86.0415 23.7101ZM98.2525 28.7631L98.1575 28.6659L97.9685 28.5687L95.3175 18.7543H89.6385L95.6015 36.5369L95.2235 37.703C95.0335 38.1888 94.7495 38.5775 94.3715 38.8691C93.9925 39.1606 93.4245 39.2577 92.5725 39.2577L92.2885 39.1606H92.0045L91.3425 43.0475C92.0045 43.2418 92.4785 43.339 92.7625 43.339C93.0465 43.4362 93.4245 43.4362 93.8985 43.4362C95.6965 43.4362 97.0215 43.0475 97.8735 42.1729C98.7255 41.2984 99.3875 40.2295 99.9555 38.9662L106.771 18.8514H101.091L98.2525 28.7631ZM118.035 24.0988C118.508 24.9733 118.697 26.2366 118.697 27.6942L118.602 27.7913V28.0829C118.697 29.2489 118.508 30.3178 118.035 31.3867C117.657 32.1641 116.993 32.5528 116.048 32.5528C115.574 32.5528 115.006 32.4556 114.533 32.2613C114.155 32.0669 113.587 31.3867 113.587 31.3867V24.0016C113.776 23.6129 114.155 23.2242 114.533 23.0299C114.911 22.8355 115.479 22.7383 116.048 22.7383C116.899 22.7383 117.657 23.2242 118.035 24.0988ZM122.294 34.3019C123.43 32.7472 123.999 30.6094 123.999 27.9857V27.7913C124.093 25.4592 123.524 23.127 122.294 21.1836C121.158 19.5316 119.454 18.6571 117.372 18.6571C115.763 18.5599 114.248 19.4345 113.396 20.8921L113.208 18.9486H108.191V43.1447H113.492V34.885C114.438 36.051 115.857 36.7312 117.372 36.7312C119.36 36.7312 121.158 35.8567 122.294 34.3019ZM132.706 18.8514V14.4787L132.611 14.5758H127.217V18.9486H124.85V22.7383H127.217V30.8037C127.217 32.9415 127.69 34.3991 128.637 35.3708C129.489 36.3426 130.813 36.8284 132.611 36.8284C133.747 36.8284 134.883 36.7312 135.924 36.4397L135.546 32.3585C135.072 32.4556 134.599 32.4556 134.031 32.4556C133.747 32.4556 133.369 32.3585 133.085 32.0669C132.801 31.7754 132.706 31.2896 132.706 30.7065V22.6412H135.641V18.8514H132.706ZM142.93 31.2896C142.456 30.415 142.266 29.2489 142.266 27.7913V27.4026C142.266 26.0422 142.456 24.8762 142.93 24.0016C143.403 23.127 144.16 22.7383 145.201 22.7383C146.243 22.7383 146.999 23.127 147.473 24.0016C147.946 25.0705 148.135 26.2366 148.135 27.4026V27.7913C148.135 29.2489 147.946 30.415 147.473 31.2896C146.999 32.1641 146.243 32.5528 145.201 32.5528C144.16 32.5528 143.403 32.1641 142.93 31.2896ZM139.143 21.0864C137.628 22.8355 136.872 25.1677 136.965 27.4998H136.872V27.8885C136.777 30.2207 137.534 32.5528 139.049 34.3019C140.563 35.8567 142.646 36.7312 145.201 36.7312C147.757 36.7312 149.839 35.9539 151.258 34.3019C152.678 32.65 153.436 30.5122 153.436 27.8885V27.4998C153.531 25.1677 152.773 22.8355 151.258 21.0864C149.839 19.4345 147.757 18.5599 145.201 18.5599C142.646 18.5599 140.562 19.4345 139.143 21.0864ZM160.827 18.9486L160.818 18.8514L161.008 18.9486H160.827ZM160.827 18.9486H155.992V36.5369H161.292V23.9044C161.86 23.2242 162.712 22.8355 163.564 22.8355C164.416 22.8355 164.984 23.0299 165.363 23.4186C165.741 23.8073 165.93 24.5846 165.93 25.5564V36.4397H171.23V25.5564C171.23 23.127 170.758 21.3779 169.812 20.2119C168.865 19.143 167.539 18.5599 165.835 18.5599C164.889 18.4627 163.943 18.7543 163.09 19.2401C162.238 19.726 161.576 20.4062 161.008 21.2808L160.827 18.9486ZM179.844 23.6129C180.223 23.0299 180.791 22.7383 181.549 22.7383C182.401 22.7383 182.874 22.9327 183.253 23.4186C183.631 23.9044 183.82 24.5846 183.82 25.4592V25.8479H179.182C179.277 24.8762 179.465 24.1959 179.844 23.6129ZM175.868 34.3019C177.383 35.9539 179.372 36.7312 181.926 36.7312V36.8284C183.253 36.8284 184.482 36.6341 185.714 36.2454C186.755 35.8567 187.796 35.3708 188.648 34.7878L187.417 31.4839C185.902 32.2613 184.293 32.5528 182.684 32.5528C181.737 32.5528 180.885 32.2613 180.318 31.6783C179.656 31.0952 179.372 30.3178 179.182 29.3461H189.025V26.4309C189.12 24.3903 188.458 22.2525 187.038 20.6977C185.714 19.2401 183.915 18.5599 181.549 18.5599C178.993 18.5599 177.1 19.4345 175.68 21.0864C174.26 22.7383 173.598 24.8762 173.598 27.597V28.18C173.503 30.415 174.354 32.65 175.868 34.3019ZM206.064 29.0546H205.969H205.874L202.941 18.8514H199.533L196.693 29.0546H196.598L194.706 18.8514H189.784L193.854 36.4397H198.396L201.236 27.1111H201.331L204.171 36.4397H208.715L212.785 18.8514H207.863L206.064 29.0546ZM223.007 30.3178C223.385 30.7065 223.669 31.4839 223.669 31.4839V31.5811C223.669 32.1641 223.48 32.5528 223.102 32.7472C222.723 33.0387 222.156 33.1358 221.493 33.1358C220.641 33.1358 219.979 32.9415 219.505 32.5528C219.031 32.2613 218.747 31.6783 218.747 30.8037L213.921 30.9009C213.921 32.3585 214.583 33.8161 215.908 34.9821C217.234 36.2454 219.032 36.8284 221.398 36.8284C223.291 36.9256 225.185 36.3426 226.794 35.2737C228.213 34.3019 228.876 32.9415 228.876 31.3867C228.971 29.9291 228.402 28.6659 227.361 27.7913C225.941 26.8196 224.426 26.2366 222.723 25.9451C221.776 25.8479 220.924 25.5564 220.072 25.0705C219.694 24.779 219.411 24.3903 219.411 23.9044C219.411 23.4186 219.6 23.0299 219.979 22.7383C220.357 22.3497 220.83 22.2525 221.398 22.2525C222.156 22.2525 222.628 22.4468 223.007 22.8355C223.385 23.2242 223.574 23.7101 223.574 24.3903L228.781 24.2931C228.781 22.6412 228.023 21.0864 226.794 20.2119C225.374 19.143 223.574 18.6571 221.303 18.6571C219.221 18.6571 217.423 19.143 216.191 20.2119C214.962 21.0864 214.299 22.544 214.299 24.0988C214.299 25.4592 214.773 26.7224 215.814 27.597C217.139 28.5687 218.748 29.1518 220.357 29.4433C221.304 29.5405 222.156 29.832 223.007 30.3178Z" fill="white"/>
</svg>
