<svg width="238" height="40" viewBox="0 0 238 40" fill="none" xmlns="http://www.w3.org/2000/svg">
<path d="M76.4686 20.1782C76.447 21.624 76.1911 23.0562 75.7112 24.4171C75.255 25.834 74.4765 27.1213 73.439 28.1742C72.3554 29.3087 71.0705 30.224 69.652 30.8717C67.8809 31.6097 65.9798 31.9703 64.0663 31.9314H54.5988C53.8414 31.9314 52.9894 32.0277 52.232 32.0277C52.232 31.9314 52.1373 31.7387 52.1373 31.6424V31.3534C52.1373 31.0644 52.1373 30.968 52.232 30.8717C52.3267 30.7754 52.3267 30.7754 52.516 30.7754C53.0737 30.7002 53.6166 30.5377 54.1255 30.2937C54.33 30.2083 54.5035 30.0606 54.6222 29.8709C54.7408 29.6811 54.7988 29.4586 54.7882 29.234V10.9298C54.8115 10.7261 54.7798 10.5197 54.6963 10.333C54.6129 10.1463 54.481 9.98622 54.3148 9.87014C53.7477 9.60315 53.1388 9.44009 52.516 9.38845C52.232 9.38845 52.232 9.29211 52.1373 9.19578C52.0965 9.03725 52.0649 8.8764 52.0426 8.71409V8.42508C52.0426 8.2324 52.0426 8.13606 52.1373 8.03973C52.6107 8.03973 52.9894 8.13606 53.5574 8.13606H63.9716C65.7718 8.15014 67.5595 8.44249 69.2733 9.0031C70.6863 9.61796 71.9715 10.5007 73.0603 11.6042C74.0947 12.6777 74.9004 13.9567 75.4272 15.3614C76.1125 16.8715 76.4678 18.5149 76.4686 20.1782ZM71.5455 20.9489C71.5447 19.2882 71.3217 17.6353 70.8828 16.0357C70.5425 14.7667 69.891 13.6065 68.9893 12.6639C68.1552 11.7721 67.1131 11.1093 65.9597 10.7372C64.6119 10.3026 63.2079 10.0753 61.7941 10.0628H59.5219V28.6559C59.5067 28.885 59.5389 29.1147 59.6166 29.3303L59.9953 29.7156C60.2881 29.7826 60.5736 29.8794 60.8473 30.0047C61.226 30.0047 61.6994 30.101 62.3621 30.101C65.3917 30.101 67.7586 29.3303 69.1787 27.6926C70.7881 26.1223 71.5455 23.8102 71.5455 20.92V20.9489Z" fill="white"/>
<path d="M90.1963 24.0316H82.7265L80.833 29.0412C80.7577 29.1542 80.7242 29.2907 80.7383 29.4265V29.8119C80.7318 29.9493 80.764 30.0858 80.8311 30.2052C80.8981 30.3247 80.9974 30.4222 81.117 30.4862C81.5902 30.7204 82.1061 30.8516 82.6318 30.8716C83.0105 30.8716 83.1052 31.1606 83.1052 31.5459C83.1088 31.7744 83.0768 32.002 83.0105 32.2203C82.3478 32.2203 81.7797 32.124 81.0224 32.124H77.3301C76.8567 32.124 76.194 32.2203 75.5312 32.2203C75.5312 32.124 75.4366 31.9313 75.4366 31.835V31.5459C75.4366 31.0643 75.5312 30.8716 75.91 30.7752C76.4706 30.7147 77.0158 30.5515 77.5194 30.2936C77.7086 30.228 77.8778 30.1137 78.0106 29.9618C78.1433 29.8098 78.235 29.6254 78.2768 29.4265L86.8922 8.71397C87.1762 8.32862 87.3655 8.03961 87.7442 8.03961H88.5016L97.2117 29.6192C97.2565 29.8059 97.3508 29.9765 97.4844 30.1124C97.6179 30.2483 97.7856 30.3443 97.969 30.3899C98.3477 30.4862 98.8211 30.6789 99.1998 30.7752C99.5785 30.8716 99.6732 31.0643 99.6732 31.5459C99.6884 31.775 99.6562 32.0048 99.5785 32.2203C98.8211 32.2203 98.0637 32.124 97.3063 32.124H89.8271C89.8271 32.0276 89.7324 31.835 89.7324 31.7386V31.4496C89.7324 31.1606 89.7324 31.0643 89.8271 30.9679L90.1111 30.6789C90.5962 30.6005 91.0721 30.4714 91.5312 30.2936C91.6686 30.2441 91.7877 30.1529 91.8723 30.0323C91.957 29.9117 92.0032 29.7674 92.0046 29.6192C92.0046 29.5229 92.0046 29.2338 91.9099 29.1375L90.1963 24.0316ZM89.4389 22.2976L86.4093 14.1089L83.2851 22.2976H89.4389Z" fill="white"/>
<path d="M108.373 29.397V30.0714C108.386 30.1542 108.419 30.2324 108.469 30.2995C108.518 30.3666 108.583 30.4206 108.657 30.4567C108.839 30.6275 109.073 30.7296 109.32 30.7458C109.706 30.8078 110.086 30.9045 110.456 31.0348C110.74 31.0348 110.835 31.3238 110.835 31.7091V32.4798C110.077 32.4798 109.32 32.3835 108.468 32.3835H103.924C103.071 32.3835 102.314 32.4798 101.557 32.4798C101.557 32.3835 101.462 32.1908 101.462 32.0945V31.738C101.462 31.3527 101.557 31.0637 101.841 31.0637C102.233 31.0367 102.618 30.9389 102.977 30.7747C103.261 30.582 103.45 30.6783 103.639 30.4856C103.829 30.293 103.924 30.1966 103.924 30.1003C103.969 29.8777 104.001 29.6525 104.018 29.4259V11.1893C104.033 10.9602 104.001 10.7304 103.924 10.5149C103.91 10.4321 103.877 10.3539 103.828 10.2868C103.779 10.2197 103.714 10.1657 103.639 10.1295C103.458 9.95875 103.224 9.85672 102.977 9.84053C102.59 9.7785 102.21 9.68178 101.841 9.55152C101.557 9.45518 101.462 9.26251 101.462 8.87716V8.49181C101.448 8.35601 101.481 8.21949 101.557 8.10646C102.314 8.10646 103.071 8.2028 103.924 8.2028H108.468C109.32 8.2028 110.077 8.10646 110.835 8.10646V8.87716C110.852 9.01616 110.825 9.15713 110.756 9.27879C110.688 9.40044 110.583 9.49617 110.456 9.55152C110.172 9.64786 109.793 9.64786 109.604 9.84053C109.415 10.0332 109.131 9.93687 108.941 10.1295C108.752 10.3222 108.657 10.4186 108.657 10.5149V11.1893L108.373 29.397Z" fill="white"/>
<path d="M121.249 29.0112C121.249 29.4929 121.628 29.8782 122.291 30.0709C123.322 30.2576 124.367 30.3543 125.415 30.3599H126.835C127.357 30.4338 127.889 30.3324 128.35 30.0709C128.776 29.9424 129.166 29.711 129.486 29.3965C129.85 29.0794 130.141 28.6847 130.338 28.2405C130.624 27.6454 130.877 27.0343 131.095 26.4101C131.19 26.121 131.379 26.121 131.569 26.121C131.702 26.1066 131.836 26.1408 131.947 26.2174C132.042 26.3137 132.326 26.3137 132.421 26.5064C132.155 27.3494 131.996 28.2235 131.947 29.1075C131.853 29.9745 131.663 30.9379 131.569 31.805C131.569 32.094 131.474 32.2866 131.285 32.2866C131.174 32.3633 131.039 32.3974 130.906 32.383H116.231C115.379 32.383 114.622 32.4793 113.865 32.4793C113.865 32.383 113.77 32.1903 113.77 32.094V31.7375C113.753 31.5985 113.78 31.4575 113.848 31.3359C113.917 31.2142 114.022 31.1185 114.149 31.0632C114.793 30.9614 115.427 30.8002 116.042 30.5815C116.259 30.5147 116.445 30.3711 116.567 30.1766C116.688 29.9822 116.737 29.7499 116.705 29.5218V11.5067C116.72 11.2776 116.688 11.0478 116.61 10.8323C116.597 10.7495 116.564 10.6713 116.515 10.6042C116.465 10.5371 116.401 10.4831 116.326 10.4469C116.144 10.2762 115.91 10.1741 115.663 10.1579C115.277 10.0959 114.897 9.99918 114.527 9.86892C114.243 9.77258 114.054 9.67624 114.054 9.2909V8.90555C114.04 8.76975 114.073 8.63323 114.149 8.5202C114.906 8.5202 115.663 8.61653 116.516 8.61653H122.764C123.177 8.63629 123.59 8.60393 123.995 8.5202V9.2909C124.012 9.42989 123.985 9.57087 123.916 9.69252C123.848 9.81418 123.743 9.90991 123.616 9.96526C122.961 9.90074 122.303 10.0348 121.723 10.3506C121.563 10.4733 121.437 10.6345 121.354 10.8195C121.271 11.0045 121.235 11.2076 121.249 11.4103V29.0112Z" fill="white"/>
<path d="M139.048 22.2675L133.368 11.1887C133.123 10.7452 132.762 10.3787 132.327 10.129C131.878 9.83263 131.345 9.69703 130.812 9.7436C130.528 9.7436 130.433 9.45459 130.433 8.97291V8.39488C130.906 8.39488 131.569 8.49122 132.421 8.49122H139.048C139.398 8.51159 139.749 8.47912 140.09 8.39488C140.101 8.5589 140.133 8.72077 140.185 8.87657V9.16558C140.185 9.55093 140.09 9.83994 139.806 9.83994C139.143 9.93628 138.764 9.93628 138.575 10.129C138.467 10.1532 138.371 10.2142 138.302 10.3018C138.233 10.3894 138.196 10.4984 138.196 10.6106C138.235 10.8854 138.332 11.1483 138.48 11.3813L142.646 19.859L146.812 12.0557C147.038 11.7122 147.169 11.3127 147.19 10.8997C147.197 10.7622 147.165 10.6258 147.098 10.5063C147.031 10.3868 146.931 10.2893 146.812 10.2253C146.353 10.0475 145.877 9.91833 145.392 9.83994C145.108 9.83994 144.918 9.55093 144.918 9.16558C144.92 8.93749 144.952 8.71067 145.013 8.49122C145.486 8.49122 146.149 8.58756 146.906 8.58756H150.693C151.356 8.58756 151.924 8.49122 152.587 8.49122C152.587 8.58756 152.682 8.78023 152.682 8.87657V9.16558C152.682 9.55093 152.587 9.83994 152.303 9.83994C151.678 9.87787 151.066 10.0416 150.504 10.3216C150.311 10.3986 150.136 10.5154 149.989 10.6646C149.842 10.8138 149.728 10.9922 149.652 11.1887L143.687 22.2675V29.4928C143.665 29.722 143.697 29.9534 143.782 30.1671C143.877 30.3598 144.066 30.4562 144.161 30.5525C144.38 30.722 144.643 30.8225 144.918 30.8415C145.336 30.9023 145.747 30.999 146.149 31.1305C146.248 31.1471 146.344 31.1796 146.433 31.2268C146.519 31.3712 146.552 31.5417 146.528 31.7085V32.3829H144.445C143.782 32.3829 143.309 32.2866 142.646 32.2866H139.616C139.078 32.2706 138.54 32.3028 138.007 32.3829H136.303V31.7374C136.303 31.4484 136.303 31.3521 136.398 31.2558C136.492 31.1594 136.492 31.1594 136.682 31.1594C137.103 31.1195 137.517 31.0223 137.912 30.8704C138.291 30.6777 138.575 30.7741 138.67 30.5814C138.954 30.4851 139.048 30.2924 139.048 30.196C139.048 30.0997 139.143 29.8107 139.143 29.5217L139.048 22.2675Z" fill="white"/>
<path d="M163.664 32.7027C161.863 32.6887 160.076 32.3963 158.362 31.8357C156.964 31.2445 155.705 30.3579 154.67 29.2346C153.711 28.1016 152.972 26.7941 152.492 25.3811C152.003 23.8564 151.748 22.2643 151.735 20.6606C151.764 19.1842 152.02 17.7216 152.492 16.3254C152.989 14.8707 153.761 13.5289 154.764 12.3755C155.809 11.1296 157.143 10.1693 158.646 9.58174C160.432 8.77491 162.372 8.38013 164.326 8.42569C165.469 8.41805 166.609 8.51478 167.735 8.71471C168.885 8.89978 170.023 9.15718 171.143 9.48541C171.155 10.2961 171.25 11.1033 171.427 11.8938C171.547 12.9098 171.769 13.9105 172.09 14.8803C171.927 14.8739 171.764 14.9069 171.616 14.9766H171.238C170.954 14.9766 170.859 14.9766 170.764 14.8803C170.669 14.784 170.48 14.784 170.48 14.495C170.271 13.7902 169.986 13.1116 169.628 12.4719C169.324 11.9905 168.939 11.5667 168.492 11.2195C168.113 11.0268 167.451 10.7378 166.883 10.4488C166.165 10.299 165.437 10.2024 164.705 10.1598C163.539 10.179 162.385 10.4072 161.297 10.8341C160.295 11.2408 159.415 11.9047 158.741 12.7609C158.051 13.6474 157.536 14.6616 157.226 15.7473C156.859 17.0292 156.699 18.3632 156.752 19.6972C156.765 21.1673 156.989 22.6277 157.415 24.0324C157.759 25.271 158.303 26.443 159.025 27.5005C159.681 28.4698 160.558 29.2631 161.581 29.8126C162.604 30.3589 163.739 30.6557 164.894 30.6796C165.693 30.7099 166.492 30.6124 167.261 30.3906C167.898 30.2345 168.505 29.9742 169.06 29.6199C169.542 29.2064 169.957 28.7189 170.291 28.1749C170.696 27.5332 171.045 26.8562 171.332 26.1518C171.427 25.8628 171.427 25.7664 171.711 25.7664C171.853 25.6791 172.02 25.645 172.184 25.6701H172.658C172.752 25.6701 173.036 25.7664 173.131 25.7664C173.036 26.1518 172.847 26.6335 172.658 27.2115C172.468 27.7895 172.279 28.2712 172.184 28.7529C172.09 29.2346 171.806 29.8126 171.711 30.3906C171.616 30.9687 171.427 31.4503 171.332 31.932C170.179 32.187 169.008 32.348 167.829 32.4137C166.454 32.657 165.058 32.7538 163.664 32.7027Z" fill="white"/>
<path d="M174.93 20.4384C174.926 18.8055 175.282 17.1926 175.971 15.7178C176.622 14.2829 177.52 12.9779 178.622 11.8644C179.72 10.7719 181.003 9.89067 182.409 9.26324C183.877 8.64271 185.459 8.34715 187.048 8.3962C188.696 8.37715 190.334 8.6712 191.876 9.26324C193.308 9.84294 194.599 10.7302 195.663 11.8644C196.737 12.9814 197.603 14.2869 198.219 15.7178C198.846 17.2746 199.137 18.9501 199.071 20.6311C199.075 22.2639 198.719 23.8768 198.03 25.3516C197.427 26.8138 196.523 28.1277 195.379 29.2051C194.264 30.3204 192.945 31.2039 191.498 31.8062C190.029 32.4267 188.448 32.7223 186.858 32.6732C185.21 32.6923 183.573 32.3982 182.03 31.8062C180.599 31.2265 179.307 30.3393 178.243 29.2051C177.2 28.0629 176.338 26.7629 175.687 25.3516C175.175 23.7664 174.919 22.107 174.93 20.4384ZM187.427 30.8428C188.35 30.837 189.26 30.6058 190.077 30.1685C190.91 29.7027 191.648 29.0817 192.255 28.3381C192.894 27.5396 193.376 26.6239 193.675 25.6406C194.024 24.5531 194.184 23.4122 194.148 22.2688C194.193 20.681 194.034 19.0941 193.675 17.5483C193.386 16.1864 192.874 14.8838 192.16 13.6948C191.523 12.6969 190.722 11.8172 189.793 11.0937C188.766 10.4706 187.58 10.1691 186.385 10.2266C185.57 10.1904 184.757 10.3556 184.018 10.7083C183.22 11.0582 182.533 11.6248 182.03 12.346C181.393 13.1091 180.91 13.9932 180.61 14.9471C180.255 16.0662 180.094 17.24 180.137 18.4153C180.092 20.0986 180.251 21.781 180.61 23.4248C180.925 24.8091 181.435 26.1395 182.125 27.3747C182.709 28.4138 183.518 29.3034 184.492 29.9758C185.349 30.587 186.381 30.8919 187.427 30.8428Z" fill="white"/>
<path d="M208.643 29.686V30.3603C208.656 30.4431 208.689 30.5214 208.738 30.5885C208.788 30.6556 208.853 30.7095 208.927 30.7457C209.119 30.8988 209.348 30.9984 209.59 31.0347C209.976 31.0967 210.356 31.1934 210.726 31.3237C211.01 31.3237 211.104 31.6127 211.104 31.9981V32.7688C210.347 32.7688 209.59 32.6724 208.738 32.6724H204.193C203.341 32.6724 202.584 32.7688 201.826 32.7688C201.826 32.6724 201.732 32.4797 201.732 32.3834V31.9981C201.732 31.6127 201.826 31.3237 202.11 31.3237C202.503 31.2968 202.888 31.1989 203.246 31.0347C203.53 30.9384 203.72 30.9383 203.909 30.7457C204.098 30.553 204.193 30.4567 204.193 30.3603C204.239 30.1378 204.27 29.9125 204.288 29.686V11.5071C204.303 11.278 204.271 11.0483 204.193 10.8327C204.18 10.75 204.147 10.6717 204.098 10.6046C204.048 10.5375 203.984 10.4836 203.909 10.4474C203.727 10.2766 203.493 10.1746 203.246 10.1584C202.86 10.0963 202.48 9.99962 202.11 9.86936C201.826 9.77302 201.732 9.58034 201.732 9.19499V8.80964C201.717 8.67385 201.751 8.53733 201.826 8.42429C202.584 8.42429 203.341 8.52063 204.193 8.52063H208.738C209.59 8.52063 210.347 8.42429 211.104 8.42429V9.19499C211.122 9.33399 211.094 9.47496 211.026 9.59662C210.958 9.71828 210.852 9.81401 210.726 9.86936C210.333 9.8963 209.948 9.99416 209.59 10.1584C209.306 10.2547 209.116 10.2547 208.927 10.4474C208.738 10.6401 208.643 10.7364 208.643 10.8327V29.7149V29.686Z" fill="white"/>
<path d="M232.775 24.5807V11.6715C232.794 11.4593 232.762 11.2456 232.681 11.049C232.6 10.8525 232.473 10.6792 232.311 10.5443C231.725 10.2348 231.077 10.0698 230.417 10.0626C230.273 10.0247 230.147 9.93627 230.06 9.81298C229.974 9.68969 229.932 9.53935 229.944 9.38828V9.09927C229.944 8.9066 229.944 8.81026 230.039 8.71392C230.635 8.79403 231.236 8.82624 231.837 8.81026H235.814C236.287 8.81026 236.95 8.71392 237.423 8.71392V9.38828C237.423 9.77363 237.328 10.0626 237.044 10.0626C236.484 10.1232 235.939 10.2864 235.435 10.5443C235.292 10.6761 235.182 10.8416 235.116 11.0263C235.05 11.211 235.03 11.4094 235.056 11.604V32.7983H234.11C234.015 32.7983 233.731 32.7983 233.636 32.7019C233.425 32.5274 233.204 32.3665 232.973 32.2203L218.772 14.0125V30.3898C218.786 30.4726 218.818 30.5509 218.868 30.618C218.917 30.6851 218.982 30.739 219.056 30.7752C219.249 30.9283 219.477 31.0279 219.719 31.0642C220.105 31.1262 220.486 31.223 220.855 31.3532C220.954 31.3698 221.05 31.4023 221.139 31.4496C221.225 31.5939 221.259 31.7644 221.234 31.9312C221.237 32.1597 221.205 32.3873 221.139 32.6056C220.476 32.6056 220.003 32.5093 219.53 32.5093H215.743C215.08 32.5093 214.512 32.6056 213.944 32.6056C213.944 32.5093 213.849 32.3166 213.849 32.2203V31.9312C213.849 31.6422 213.849 31.5459 213.944 31.4496C214.039 31.3532 214.039 31.3532 214.228 31.3532C214.842 31.2544 215.445 31.0931 216.027 30.8715C216.17 30.7398 216.28 30.5743 216.346 30.3896C216.412 30.2048 216.432 30.0065 216.405 29.8118V11.2861C216.421 11.1206 216.395 10.9538 216.328 10.8019C216.262 10.6499 216.158 10.5181 216.027 10.4191C215.535 10.1314 214.984 9.9663 214.417 9.93741C214.133 9.84107 214.039 9.6484 214.039 9.26305V8.61759H218.772C219.248 8.58643 219.725 8.61882 220.192 8.71392C220.476 8.71392 220.571 8.81026 220.855 9.09927L232.775 24.5807Z" fill="white"/>
<path d="M3.76809 7.07697C5.44127 7.07697 6.79766 5.69676 6.79766 3.99417C6.79766 2.29159 5.44127 0.911377 3.76809 0.911377C2.0949 0.911377 0.73851 2.29159 0.73851 3.99417C0.73851 5.69676 2.0949 7.07697 3.76809 7.07697Z" fill="white"/>
<path d="M3.76737 15.1695C5.44056 15.1695 6.79694 13.7893 6.79694 12.0867C6.79694 10.3841 5.44056 9.0039 3.76737 9.0039C2.09418 9.0039 0.737793 10.3841 0.737793 12.0867C0.737793 13.7893 2.09418 15.1695 3.76737 15.1695Z" fill="white"/>
<path d="M3.76737 23.2603C5.44056 23.2603 6.79694 21.8801 6.79694 20.1775C6.79694 18.4749 5.44056 17.0947 3.76737 17.0947C2.09418 17.0947 0.737793 18.4749 0.737793 20.1775C0.737793 21.8801 2.09418 23.2603 3.76737 23.2603Z" fill="white"/>
<path d="M3.76799 31.354C5.44118 31.354 6.79757 29.9738 6.79757 28.2712C6.79757 26.5686 5.44118 25.1884 3.76799 25.1884C2.0948 25.1884 0.738417 26.5686 0.738417 28.2712C0.738417 29.9738 2.0948 31.354 3.76799 31.354Z" fill="white"/>
<path d="M3.76799 39.4455C5.44118 39.4455 6.79757 38.0653 6.79757 36.3627C6.79757 34.6601 5.44118 33.2799 3.76799 33.2799C2.0948 33.2799 0.738417 34.6601 0.738417 36.3627C0.738417 38.0653 2.0948 39.4455 3.76799 39.4455Z" fill="white"/>
<path d="M3.76809 7.07697C5.44127 7.07697 6.79766 5.69676 6.79766 3.99417C6.79766 2.29159 5.44127 0.911377 3.76809 0.911377C2.0949 0.911377 0.73851 2.29159 0.73851 3.99417C0.73851 5.69676 2.0949 7.07697 3.76809 7.07697Z" fill="white"/>
<path d="M3.76737 15.1695C5.44056 15.1695 6.79694 13.7893 6.79694 12.0867C6.79694 10.3841 5.44056 9.0039 3.76737 9.0039C2.09418 9.0039 0.737793 10.3841 0.737793 12.0867C0.737793 13.7893 2.09418 15.1695 3.76737 15.1695Z" fill="white"/>
<path d="M3.76737 23.2603C5.44056 23.2603 6.79694 21.8801 6.79694 20.1775C6.79694 18.4749 5.44056 17.0947 3.76737 17.0947C2.09418 17.0947 0.737793 18.4749 0.737793 20.1775C0.737793 21.8801 2.09418 23.2603 3.76737 23.2603Z" fill="white"/>
<path d="M3.76799 31.354C5.44118 31.354 6.79757 29.9738 6.79757 28.2712C6.79757 26.5686 5.44118 25.1884 3.76799 25.1884C2.0948 25.1884 0.738417 26.5686 0.738417 28.2712C0.738417 29.9738 2.0948 31.354 3.76799 31.354Z" fill="white"/>
<path d="M3.76799 39.4455C5.44118 39.4455 6.79757 38.0653 6.79757 36.3627C6.79757 34.6601 5.44118 33.2799 3.76799 33.2799C2.0948 33.2799 0.738417 34.6601 0.738417 36.3627C0.738417 38.0653 2.0948 39.4455 3.76799 39.4455Z" fill="white"/>
<path d="M11.7216 7.07673C13.3948 7.07673 14.7512 5.69651 14.7512 3.99393C14.7512 2.29135 13.3948 0.911133 11.7216 0.911133C10.0484 0.911133 8.69206 2.29135 8.69206 3.99393C8.69206 5.69651 10.0484 7.07673 11.7216 7.07673Z" fill="white"/>
<path d="M11.72 15.1695C13.3932 15.1695 14.7496 13.7893 14.7496 12.0867C14.7496 10.3841 13.3932 9.0039 11.72 9.0039C10.0468 9.0039 8.69045 10.3841 8.69045 12.0867C8.69045 13.7893 10.0468 15.1695 11.72 15.1695Z" fill="white"/>
<path d="M11.72 23.2603C13.3932 23.2603 14.7496 21.8801 14.7496 20.1775C14.7496 18.4749 13.3932 17.0947 11.72 17.0947C10.0468 17.0947 8.69045 18.4749 8.69045 20.1775C8.69045 21.8801 10.0468 23.2603 11.72 23.2603Z" fill="white"/>
<path d="M11.7216 31.354C13.3948 31.354 14.7512 29.9738 14.7512 28.2712C14.7512 26.5686 13.3948 25.1884 11.7216 25.1884C10.0484 25.1884 8.69206 26.5686 8.69206 28.2712C8.69206 29.9738 10.0484 31.354 11.7216 31.354Z" fill="white"/>
<path d="M11.7216 39.4455C13.3948 39.4455 14.7512 38.0653 14.7512 36.3627C14.7512 34.6601 13.3948 33.2799 11.7216 33.2799C10.0484 33.2799 8.69206 34.6601 8.69206 36.3627C8.69206 38.0653 10.0484 39.4455 11.7216 39.4455Z" fill="white"/>
<path d="M19.6732 7.07673C21.3464 7.07673 22.7028 5.69651 22.7028 3.99393C22.7028 2.29135 21.3464 0.911133 19.6732 0.911133C18 0.911133 16.6436 2.29135 16.6436 3.99393C16.6436 5.69651 18 7.07673 19.6732 7.07673Z" fill="white"/>
<path d="M19.6732 15.1695C21.3464 15.1695 22.7028 13.7893 22.7028 12.0867C22.7028 10.3841 21.3464 9.0039 19.6732 9.0039C18 9.0039 16.6436 10.3841 16.6436 12.0867C16.6436 13.7893 18 15.1695 19.6732 15.1695Z" fill="white"/>
<path d="M19.6732 23.2603C21.3464 23.2603 22.7028 21.8801 22.7028 20.1775C22.7028 18.4749 21.3464 17.0947 19.6732 17.0947C18 17.0947 16.6436 18.4749 16.6436 20.1775C16.6436 21.8801 18 23.2603 19.6732 23.2603Z" fill="white"/>
<path d="M19.6732 31.354C21.3464 31.354 22.7028 29.9738 22.7028 28.2712C22.7028 26.5686 21.3464 25.1884 19.6732 25.1884C18 25.1884 16.6436 26.5686 16.6436 28.2712C16.6436 29.9738 18 31.354 19.6732 31.354Z" fill="white"/>
<path d="M27.6262 15.1695C29.2994 15.1695 30.6558 13.7893 30.6558 12.0867C30.6558 10.3841 29.2994 9.0039 27.6262 9.0039C25.953 9.0039 24.5967 10.3841 24.5967 12.0867C24.5967 13.7893 25.953 15.1695 27.6262 15.1695Z" fill="white"/>
<path d="M27.6262 23.2603C29.2994 23.2603 30.6558 21.8801 30.6558 20.1775C30.6558 18.4749 29.2994 17.0947 27.6262 17.0947C25.953 17.0947 24.5967 18.4749 24.5967 20.1775C24.5967 21.8801 25.953 23.2603 27.6262 23.2603Z" fill="white"/>
<path d="M27.6262 31.354C29.2994 31.354 30.6558 29.9738 30.6558 28.2712C30.6558 26.5686 29.2994 25.1884 27.6262 25.1884C25.953 25.1884 24.5967 26.5686 24.5967 28.2712C24.5967 29.9738 25.953 31.354 27.6262 31.354Z" fill="white"/>
<path d="M19.6732 39.4455C21.3464 39.4455 22.7028 38.0653 22.7028 36.3627C22.7028 34.6601 21.3464 33.2799 19.6732 33.2799C18 33.2799 16.6436 34.6601 16.6436 36.3627C16.6436 38.0653 18 39.4455 19.6732 39.4455Z" fill="white"/>
<path d="M35.5789 39.4455C37.2521 39.4455 38.6085 38.0653 38.6085 36.3627C38.6085 34.6601 37.2521 33.2799 35.5789 33.2799C33.9057 33.2799 32.5493 34.6601 32.5493 36.3627C32.5493 38.0653 33.9057 39.4455 35.5789 39.4455Z" fill="white"/>
</svg>
