<svg width="488" height="524" viewBox="0 0 488 524" fill="none" xmlns="http://www.w3.org/2000/svg">
<g clip-path="url(#clip0_7955_22814)">
<rect width="488" height="524" rx="24" fill="#1B1B1C"/>
<g filter="url(#filter0_d_7955_22814)">
<path d="M243.333 752.588C537.473 752.588 775.921 514.14 775.921 220C775.921 -74.1402 537.473 -312.588 243.333 -312.588C-50.8071 -312.588 -289.255 -74.1402 -289.255 220C-289.255 514.14 -50.8071 752.588 243.333 752.588Z" stroke="#00239C" stroke-width="1.17569"/>
</g>
<g filter="url(#filter1_d_7955_22814)">
<path d="M243.333 708.499C513.124 708.499 731.833 489.791 731.833 220C731.833 -49.7908 513.124 -268.499 243.333 -268.499C-26.4573 -268.499 -245.166 -49.7908 -245.166 220C-245.166 489.791 -26.4573 708.499 243.333 708.499Z" stroke="#00239C" stroke-width="1.17569"/>
</g>
<g filter="url(#filter2_d_7955_22814)">
<path d="M243.333 654.418C483.255 654.418 677.75 459.922 677.75 220C677.75 -19.9223 483.255 -214.418 243.333 -214.418C3.41051 -214.418 -191.085 -19.9223 -191.085 220C-191.085 459.922 3.41051 654.418 243.333 654.418Z" stroke="#00239C" stroke-width="1.17569"/>
</g>
<g filter="url(#filter3_d_7955_22814)">
<path d="M243.333 613.268C460.529 613.268 636.602 437.196 636.602 220C636.602 2.8038 460.529 -173.269 243.333 -173.269C26.1368 -173.269 -149.936 2.8038 -149.936 220C-149.936 437.196 26.1368 613.268 243.333 613.268Z" stroke="#00239C" stroke-width="1.17569"/>
</g>
<g filter="url(#filter4_d_7955_22814)">
<path d="M243.333 581.525C442.997 581.525 604.857 419.665 604.857 220C604.857 20.3353 442.997 -141.525 243.333 -141.525C43.6678 -141.525 -118.192 20.3353 -118.192 220C-118.192 419.665 43.6678 581.525 243.333 581.525Z" stroke="#00239C" stroke-width="1.17569"/>
</g>
<g filter="url(#filter5_d_7955_22814)">
<path d="M243.333 546.842C423.843 546.842 570.175 400.51 570.175 220C570.175 39.4902 423.843 -106.842 243.333 -106.842C62.8234 -106.842 -83.5087 39.4902 -83.5087 220C-83.5087 400.51 62.8234 546.842 243.333 546.842Z" stroke="#00239C" stroke-width="1.17569"/>
</g>
<g filter="url(#filter6_d_7955_22814)">
<path d="M243.333 515.686C406.636 515.686 539.019 383.303 539.019 220C539.019 56.697 406.636 -75.6862 243.333 -75.6862C80.0297 -75.6862 -52.3535 56.697 -52.3535 220C-52.3535 383.303 80.0297 515.686 243.333 515.686Z" stroke="#00239C" stroke-width="1.17569"/>
</g>
<g filter="url(#filter7_d_7955_22814)">
<path d="M243.333 489.233C392.026 489.233 512.566 368.693 512.566 220C512.566 71.3067 392.026 -49.2331 243.333 -49.2331C94.6394 -49.2331 -25.9003 71.3067 -25.9003 220C-25.9003 368.693 94.6394 489.233 243.333 489.233Z" stroke="#00239C" stroke-width="1.17569"/>
</g>
<g filter="url(#filter8_d_7955_22814)">
<path d="M243.333 466.307C379.364 466.307 489.64 356.032 489.64 220C489.64 83.9683 379.364 -26.3072 243.333 -26.3072C107.301 -26.3072 -2.97456 83.9683 -2.97456 220C-2.97456 356.032 107.301 466.307 243.333 466.307Z" stroke="#00239C" stroke-width="1.17569"/>
</g>
<g filter="url(#filter9_d_7955_22814)">
<path d="M243.333 445.733C368.002 445.733 469.066 344.669 469.066 220C469.066 95.3313 368.002 -5.73262 243.333 -5.73262C118.665 -5.73262 17.6006 95.3313 17.6006 220C17.6006 344.669 118.665 445.733 243.333 445.733Z" stroke="#00239C" stroke-width="1.17569"/>
</g>
<g filter="url(#filter10_d_7955_22814)">
<path d="M243.333 428.097C358.262 428.097 451.43 334.929 451.43 220C451.43 105.071 358.262 11.9028 243.333 11.9028C128.404 11.9028 35.2354 105.071 35.2354 220C35.2354 334.929 128.404 428.097 243.333 428.097Z" stroke="#00239C" stroke-width="1.17569"/>
</g>
<g filter="url(#filter11_d_7955_22814)">
<path d="M243.333 412.225C349.496 412.225 435.558 326.163 435.558 220C435.558 113.837 349.496 27.7746 243.333 27.7746C137.17 27.7746 51.1075 113.837 51.1075 220C51.1075 326.163 137.17 412.225 243.333 412.225Z" stroke="#00239C" stroke-width="1.17569"/>
</g>
<g filter="url(#filter12_d_7955_22814)">
<path d="M243.333 392.239C338.458 392.239 415.572 315.125 415.572 220C415.572 124.875 338.458 47.7613 243.333 47.7613C148.209 47.7613 71.0948 124.875 71.0948 220C71.0948 315.125 148.209 392.239 243.333 392.239Z" stroke="#00239C" stroke-width="1.17569"/>
</g>
<g filter="url(#filter13_d_7955_22814)">
<path d="M243.333 369.313C325.796 369.313 392.646 302.463 392.646 220C392.646 137.537 325.796 70.6873 243.333 70.6873C160.87 70.6873 94.0206 137.537 94.0206 220C94.0206 302.463 160.87 369.313 243.333 369.313Z" stroke="#00239C" stroke-width="1.17569"/>
</g>
<g filter="url(#filter14_d_7955_22814)">
<path d="M243.333 349.914C315.082 349.914 373.247 291.749 373.247 220C373.247 148.251 315.082 90.0862 243.333 90.0862C171.583 90.0862 113.419 148.251 113.419 220C113.419 291.749 171.583 349.914 243.333 349.914Z" stroke="#00239C" stroke-width="1.17569"/>
</g>
<g filter="url(#filter15_d_7955_22814)">
<path d="M243.333 332.866C305.667 332.866 356.199 282.334 356.199 220C356.199 157.666 305.667 107.134 243.333 107.134C180.999 107.134 130.467 157.666 130.467 220C130.467 282.334 180.999 332.866 243.333 332.866Z" stroke="#00239C" stroke-width="1.17569"/>
</g>
<g filter="url(#filter16_di_7955_22814)">
<path d="M243.201 307.736C291.729 307.736 331.068 268.396 331.068 219.868C331.068 171.34 291.729 132 243.201 132C194.673 132 155.333 171.34 155.333 219.868C155.333 268.396 194.673 307.736 243.201 307.736Z" fill="black"/>
</g>
<path d="M243.201 295.183C284.796 295.183 318.516 261.463 318.516 219.868C318.516 178.272 284.796 144.553 243.201 144.553C201.605 144.553 167.886 178.272 167.886 219.868C167.886 261.463 201.605 295.183 243.201 295.183Z" fill="#00239C"/>
<path d="M290.315 178.403L284.373 191.123C290.064 199.282 293.411 209.177 293.411 219.868C293.411 228.822 291.068 237.211 286.967 244.492L288.599 263.216C299.353 251.961 305.964 236.688 305.964 219.889C305.964 203.968 300.064 189.47 290.315 178.403ZM249.561 269.681V170.055C254.833 170.725 259.854 172.21 264.478 174.386L269.791 163.005C261.716 159.218 252.699 157.105 243.201 157.105C233.703 157.105 224.686 159.218 216.611 163.005L221.925 174.386C226.611 172.189 231.695 170.704 237.029 170.035V269.701C232.05 269.095 227.28 267.735 222.866 265.789L221.715 278.865C228.41 281.292 235.649 282.631 243.201 282.631C250.774 282.631 258.055 281.292 264.77 278.823L263.62 265.747C259.247 267.714 254.519 269.053 249.561 269.681ZM196.087 178.403C186.338 189.47 180.438 203.968 180.438 219.868C180.438 236.709 187.07 252.002 197.866 263.258L199.497 244.576C195.355 237.295 192.991 228.864 192.991 219.868C192.991 209.177 196.338 199.282 202.029 191.144L196.087 178.403ZM276.193 193.612L285.545 173.549C282.386 170.662 278.955 168.11 275.252 165.913L255.879 207.504V237.211L265.586 216.395L270.817 276.25C275.084 274.158 279.08 271.584 282.741 268.614L276.193 193.612ZM230.774 208.194L211.088 165.955C207.405 168.152 203.954 170.725 200.815 173.612L210.209 193.759L210.188 194.114L203.682 268.614C207.343 271.584 211.339 274.158 215.606 276.25L220.837 216.5L230.816 237.902V208.194H230.774Z" fill="white"/>
<g style="mix-blend-mode:multiply" filter="url(#filter17_f_7955_22814)">
<ellipse cx="244.235" cy="619.385" rx="987.603" ry="198.385" fill="#040308"/>
</g>
<path d="M181.767 350.195C177.892 350.195 175.045 349.129 173.224 346.996C171.417 344.864 170.513 341.476 170.513 336.834C170.513 332.205 171.417 328.817 173.224 326.672C175.032 324.526 177.879 323.454 181.767 323.454C185.642 323.454 188.484 324.526 190.291 326.672C192.111 328.817 193.022 332.205 193.022 336.834C193.022 341.476 192.111 344.864 190.291 346.996C188.484 349.129 185.642 350.195 181.767 350.195ZM181.767 347.425C183.926 347.425 185.675 346.73 187.014 345.338C188.367 343.947 189.043 341.112 189.043 336.834C189.043 332.53 188.367 329.689 187.014 328.31C185.675 326.919 183.926 326.223 181.767 326.223C179.609 326.223 177.853 326.919 176.501 328.31C175.162 329.689 174.492 332.53 174.492 336.834C174.492 341.112 175.162 343.947 176.501 345.338C177.853 346.73 179.609 347.425 181.767 347.425ZM195.588 350V323.668H212.168V326.438H199.568V336.346H211.154V338.999H199.568V350H195.588ZM214.618 350V323.668H231.197V326.438H218.597V336.346H230.183V338.999H218.597V350H214.618ZM234.721 350V323.668H238.7V350H234.721ZM253.297 350.176C249.357 350.176 246.574 349.116 244.949 346.996C243.323 344.864 242.511 341.457 242.511 336.776C242.511 332.107 243.323 328.72 244.949 326.613C246.574 324.507 249.351 323.454 253.278 323.454C257.192 323.454 259.89 324.442 261.372 326.418C262.855 328.382 263.596 330.924 263.596 334.045H259.558C259.558 331.223 259.025 329.214 257.959 328.018C256.906 326.821 255.339 326.223 253.258 326.223C251.126 326.223 249.474 326.899 248.304 328.252C247.133 329.591 246.548 332.432 246.548 336.776C246.548 341.145 247.133 344.012 248.304 345.377C249.487 346.73 251.139 347.406 253.258 347.406C255.339 347.406 256.906 346.795 257.959 345.572C259.025 344.337 259.558 342.328 259.558 339.545H263.596C263.596 342.601 262.855 345.137 261.372 347.152C259.89 349.168 257.198 350.176 253.297 350.176ZM267.751 350V323.668H271.73V350H267.751ZM275.202 350L284.019 323.629H289.734L298.55 350H294.434L292.133 342.686H281.658L279.337 350H275.202ZM282.341 339.994H291.45L286.925 325.989H286.866L282.341 339.994ZM300.508 350V323.668H304.487V347.25H316.034V350H300.508Z" fill="white"/>
<path d="M124.208 382.266V355.934H139.402C142.614 355.934 144.623 356.597 145.429 357.923C146.236 359.237 146.639 360.66 146.639 362.195C146.639 363.729 146.294 365.095 145.605 366.291C144.929 367.474 143.817 368.092 142.27 368.144C143.856 368.235 145.085 368.892 145.956 370.114C146.827 371.323 147.263 372.858 147.263 374.717C147.263 376.85 146.86 378.644 146.054 380.101C145.26 381.544 143.238 382.266 139.988 382.266H124.208ZM130.859 377.76H138.33C139.253 377.76 139.864 377.461 140.163 376.863C140.475 376.265 140.631 375.322 140.631 374.034C140.631 372.799 140.456 371.863 140.105 371.226C139.753 370.589 139.038 370.27 137.959 370.27H130.859V377.76ZM130.859 366.252H137.53C138.492 366.252 139.136 365.972 139.461 365.413C139.786 364.854 139.949 364.1 139.949 363.151C139.949 362.253 139.805 361.577 139.519 361.122C139.233 360.654 138.635 360.42 137.725 360.42H130.859V366.252ZM149.981 382.266V355.934H156.632V377.779H167.321V382.266H149.981ZM181.542 382.48C176.887 382.48 173.629 381.355 171.77 379.106C169.91 376.856 168.981 373.521 168.981 369.1C168.981 364.692 169.91 361.363 171.77 359.113C173.629 356.85 176.887 355.719 181.542 355.719C186.21 355.719 189.468 356.85 191.314 359.113C193.173 361.363 194.103 364.692 194.103 369.1C194.103 373.521 193.173 376.856 191.314 379.106C189.468 381.355 186.21 382.48 181.542 382.48ZM181.542 377.975C183.336 377.975 184.773 377.467 185.853 376.453C186.945 375.426 187.491 372.975 187.491 369.1C187.491 365.173 186.945 362.715 185.853 361.727C184.773 360.725 183.336 360.225 181.542 360.225C179.747 360.225 178.311 360.725 177.231 361.727C176.152 362.715 175.612 365.173 175.612 369.1C175.612 372.975 176.152 375.426 177.231 376.453C178.311 377.467 179.747 377.975 181.542 377.975ZM207.701 382.422C202.994 382.422 199.769 381.284 198.027 379.008C196.297 376.733 195.433 373.41 195.433 369.041C195.433 364.659 196.297 361.343 198.027 359.094C199.769 356.844 202.988 355.719 207.682 355.719C212.389 355.719 215.529 356.792 217.103 358.938C218.676 361.083 219.463 363.625 219.463 366.564H212.753C212.753 364.028 212.311 362.338 211.427 361.493C210.556 360.647 209.294 360.225 207.643 360.225C205.952 360.225 204.613 360.719 203.625 361.707C202.636 362.682 202.142 365.127 202.142 369.041C202.142 372.981 202.636 375.445 203.625 376.434C204.626 377.422 205.965 377.916 207.643 377.916C209.281 377.916 210.543 377.48 211.427 376.609C212.311 375.725 212.753 374.047 212.753 371.577H219.463C219.463 374.438 218.676 376.96 217.103 379.145C215.529 381.329 212.396 382.422 207.701 382.422ZM221.889 382.266V355.934H228.501V367.344L237.044 355.934H244.476L234.489 369.119L244.495 382.266H237.064L228.501 370.875V382.266H221.889ZM256.504 382.422C251.796 382.422 248.572 381.284 246.829 379.008C245.1 376.733 244.235 373.41 244.235 369.041C244.235 364.659 245.1 361.343 246.829 359.094C248.572 356.844 251.79 355.719 256.484 355.719C261.191 355.719 264.332 356.792 265.905 358.938C267.479 361.083 268.265 363.625 268.265 366.564H261.556C261.556 364.028 261.113 362.338 260.229 361.493C259.358 360.647 258.097 360.225 256.445 360.225C254.755 360.225 253.415 360.719 252.427 361.707C251.439 362.682 250.945 365.127 250.945 369.041C250.945 372.981 251.439 375.445 252.427 376.434C253.428 377.422 254.768 377.916 256.445 377.916C258.084 377.916 259.345 377.48 260.229 376.609C261.113 375.725 261.556 374.047 261.556 371.577H268.265C268.265 374.438 267.479 376.96 265.905 379.145C264.332 381.329 261.198 382.422 256.504 382.422ZM270.691 382.266V355.934H277.342V366.837H287.056V355.934H293.688V382.266H287.056V371.362H277.342V382.266H270.691ZM295.711 382.266L304.118 355.914H313.5L321.907 382.266H315.06L313.286 375.848H304.333L302.558 382.266H295.711ZM305.425 371.479H312.213L308.858 359.776H308.799L305.425 371.479ZM324.545 382.266V355.934H331.157V382.266H324.545ZM334.866 382.266V355.934H345.574L355.951 379.145H354.995L355.054 355.934H361.666V382.266H351.055L340.679 358.996H341.478V382.266H334.866Z" fill="white"/>
<path d="M166.305 414.531V388.199H177.989C180.902 388.199 182.859 389.09 183.86 390.871C184.874 392.64 185.381 394.857 185.381 397.523C185.381 400.201 184.874 402.425 183.86 404.193C182.859 405.962 180.902 406.846 177.989 406.846H170.284V414.531H166.305ZM170.284 404.076H176.78C178.496 404.076 179.699 403.517 180.388 402.399C181.077 401.281 181.422 399.655 181.422 397.523C181.422 395.403 181.077 393.784 180.388 392.666C179.699 391.535 178.496 390.969 176.78 390.969H170.284V404.076ZM185.459 414.531L194.275 388.16H199.99L208.806 414.531H204.691L202.389 407.217H191.915L189.594 414.531H185.459ZM192.598 404.525H201.707L197.181 390.52H197.123L192.598 404.525ZM210.765 414.531V388.199H223.619C226.167 388.199 227.89 388.934 228.788 390.403C229.685 391.873 230.133 393.661 230.133 395.767C230.133 397.861 229.672 399.623 228.749 401.053C227.825 402.47 226.063 403.179 223.463 403.179H214.744V414.531H210.765ZM226.018 414.531L220.79 402.126L224.77 401.872L230.348 414.531H226.018ZM214.744 400.663H222.351C223.794 400.663 224.783 400.227 225.316 399.356C225.862 398.472 226.135 397.295 226.135 395.826C226.135 394.356 225.862 393.18 225.316 392.295C224.783 391.411 223.794 390.969 222.351 390.969H214.744V400.663ZM239.862 414.531V390.969H231.787V388.199H251.916V390.969H243.86V414.531H239.862ZM254.234 414.531V388.199H260.729L273.368 412.62H272.822L272.842 388.199H276.821V414.531H270.365L257.745 390.072H258.193V414.531H254.234ZM280.272 414.531V388.199H297.71V390.969H284.271V399.746H296.91V402.399H284.271V411.761H297.71V414.531H280.272ZM300.712 414.531V388.199H313.566C316.115 388.199 317.838 388.934 318.735 390.403C319.632 391.873 320.081 393.661 320.081 395.767C320.081 397.861 319.619 399.623 318.696 401.053C317.773 402.47 316.011 403.179 313.41 403.179H304.691V414.531H300.712ZM315.965 414.531L310.738 402.126L314.717 401.872L320.295 414.531H315.965ZM304.691 400.663H312.298C313.742 400.663 314.73 400.227 315.263 399.356C315.809 398.472 316.082 397.295 316.082 395.826C316.082 394.356 315.809 393.18 315.263 392.295C314.73 391.411 313.742 390.969 312.298 390.969H304.691V400.663Z" fill="white"/>
</g>
<rect x="0.5" y="0.5" width="487" height="523" rx="23.5" stroke="#444444"/>
<defs>
<filter id="filter0_d_7955_22814" x="-309.536" y="-330.517" width="1105.74" height="1105.74" filterUnits="userSpaceOnUse" color-interpolation-filters="sRGB">
<feFlood flood-opacity="0" result="BackgroundImageFix"/>
<feColorMatrix in="SourceAlpha" type="matrix" values="0 0 0 0 0 0 0 0 0 0 0 0 0 0 0 0 0 0 127 0" result="hardAlpha"/>
<feOffset dy="2.35138"/>
<feGaussianBlur stdDeviation="9.84641"/>
<feColorMatrix type="matrix" values="0 0 0 0 0.0791667 0 0 0 0 0.285764 0 0 0 0 1 0 0 0 1 0"/>
<feBlend mode="normal" in2="BackgroundImageFix" result="effect1_dropShadow_7955_22814"/>
<feBlend mode="normal" in="SourceGraphic" in2="effect1_dropShadow_7955_22814" result="shape"/>
</filter>
<filter id="filter1_d_7955_22814" x="-265.447" y="-286.429" width="1017.56" height="1017.56" filterUnits="userSpaceOnUse" color-interpolation-filters="sRGB">
<feFlood flood-opacity="0" result="BackgroundImageFix"/>
<feColorMatrix in="SourceAlpha" type="matrix" values="0 0 0 0 0 0 0 0 0 0 0 0 0 0 0 0 0 0 127 0" result="hardAlpha"/>
<feOffset dy="2.35138"/>
<feGaussianBlur stdDeviation="9.84641"/>
<feColorMatrix type="matrix" values="0 0 0 0 0.0791667 0 0 0 0 0.285764 0 0 0 0 1 0 0 0 1 0"/>
<feBlend mode="normal" in2="BackgroundImageFix" result="effect1_dropShadow_7955_22814"/>
<feBlend mode="normal" in="SourceGraphic" in2="effect1_dropShadow_7955_22814" result="shape"/>
</filter>
<filter id="filter2_d_7955_22814" x="-211.366" y="-232.347" width="909.396" height="909.397" filterUnits="userSpaceOnUse" color-interpolation-filters="sRGB">
<feFlood flood-opacity="0" result="BackgroundImageFix"/>
<feColorMatrix in="SourceAlpha" type="matrix" values="0 0 0 0 0 0 0 0 0 0 0 0 0 0 0 0 0 0 127 0" result="hardAlpha"/>
<feOffset dy="2.35138"/>
<feGaussianBlur stdDeviation="9.84641"/>
<feColorMatrix type="matrix" values="0 0 0 0 0.0791667 0 0 0 0 0.285764 0 0 0 0 1 0 0 0 1 0"/>
<feBlend mode="normal" in2="BackgroundImageFix" result="effect1_dropShadow_7955_22814"/>
<feBlend mode="normal" in="SourceGraphic" in2="effect1_dropShadow_7955_22814" result="shape"/>
</filter>
<filter id="filter3_d_7955_22814" x="-170.216" y="-191.198" width="827.099" height="827.098" filterUnits="userSpaceOnUse" color-interpolation-filters="sRGB">
<feFlood flood-opacity="0" result="BackgroundImageFix"/>
<feColorMatrix in="SourceAlpha" type="matrix" values="0 0 0 0 0 0 0 0 0 0 0 0 0 0 0 0 0 0 127 0" result="hardAlpha"/>
<feOffset dy="2.35138"/>
<feGaussianBlur stdDeviation="9.84641"/>
<feColorMatrix type="matrix" values="0 0 0 0 0.0791667 0 0 0 0 0.285764 0 0 0 0 1 0 0 0 1 0"/>
<feBlend mode="normal" in2="BackgroundImageFix" result="effect1_dropShadow_7955_22814"/>
<feBlend mode="normal" in="SourceGraphic" in2="effect1_dropShadow_7955_22814" result="shape"/>
</filter>
<filter id="filter4_d_7955_22814" x="-138.473" y="-159.454" width="763.611" height="763.611" filterUnits="userSpaceOnUse" color-interpolation-filters="sRGB">
<feFlood flood-opacity="0" result="BackgroundImageFix"/>
<feColorMatrix in="SourceAlpha" type="matrix" values="0 0 0 0 0 0 0 0 0 0 0 0 0 0 0 0 0 0 127 0" result="hardAlpha"/>
<feOffset dy="2.35138"/>
<feGaussianBlur stdDeviation="9.84641"/>
<feColorMatrix type="matrix" values="0 0 0 0 0.0791667 0 0 0 0 0.285764 0 0 0 0 1 0 0 0 1 0"/>
<feBlend mode="normal" in2="BackgroundImageFix" result="effect1_dropShadow_7955_22814"/>
<feBlend mode="normal" in="SourceGraphic" in2="effect1_dropShadow_7955_22814" result="shape"/>
</filter>
<filter id="filter5_d_7955_22814" x="-103.789" y="-124.771" width="694.245" height="694.245" filterUnits="userSpaceOnUse" color-interpolation-filters="sRGB">
<feFlood flood-opacity="0" result="BackgroundImageFix"/>
<feColorMatrix in="SourceAlpha" type="matrix" values="0 0 0 0 0 0 0 0 0 0 0 0 0 0 0 0 0 0 127 0" result="hardAlpha"/>
<feOffset dy="2.35138"/>
<feGaussianBlur stdDeviation="9.84641"/>
<feColorMatrix type="matrix" values="0 0 0 0 0.0791667 0 0 0 0 0.285764 0 0 0 0 1 0 0 0 1 0"/>
<feBlend mode="normal" in2="BackgroundImageFix" result="effect1_dropShadow_7955_22814"/>
<feBlend mode="normal" in="SourceGraphic" in2="effect1_dropShadow_7955_22814" result="shape"/>
</filter>
<filter id="filter6_d_7955_22814" x="-72.6342" y="-93.6155" width="631.933" height="631.934" filterUnits="userSpaceOnUse" color-interpolation-filters="sRGB">
<feFlood flood-opacity="0" result="BackgroundImageFix"/>
<feColorMatrix in="SourceAlpha" type="matrix" values="0 0 0 0 0 0 0 0 0 0 0 0 0 0 0 0 0 0 127 0" result="hardAlpha"/>
<feOffset dy="2.35138"/>
<feGaussianBlur stdDeviation="9.84641"/>
<feColorMatrix type="matrix" values="0 0 0 0 0.0791667 0 0 0 0 0.285764 0 0 0 0 1 0 0 0 1 0"/>
<feBlend mode="normal" in2="BackgroundImageFix" result="effect1_dropShadow_7955_22814"/>
<feBlend mode="normal" in="SourceGraphic" in2="effect1_dropShadow_7955_22814" result="shape"/>
</filter>
<filter id="filter7_d_7955_22814" x="-46.1811" y="-67.1624" width="579.028" height="579.028" filterUnits="userSpaceOnUse" color-interpolation-filters="sRGB">
<feFlood flood-opacity="0" result="BackgroundImageFix"/>
<feColorMatrix in="SourceAlpha" type="matrix" values="0 0 0 0 0 0 0 0 0 0 0 0 0 0 0 0 0 0 127 0" result="hardAlpha"/>
<feOffset dy="2.35138"/>
<feGaussianBlur stdDeviation="9.84641"/>
<feColorMatrix type="matrix" values="0 0 0 0 0.0791667 0 0 0 0 0.285764 0 0 0 0 1 0 0 0 1 0"/>
<feBlend mode="normal" in2="BackgroundImageFix" result="effect1_dropShadow_7955_22814"/>
<feBlend mode="normal" in="SourceGraphic" in2="effect1_dropShadow_7955_22814" result="shape"/>
</filter>
<filter id="filter8_d_7955_22814" x="-23.2553" y="-44.2365" width="533.176" height="533.176" filterUnits="userSpaceOnUse" color-interpolation-filters="sRGB">
<feFlood flood-opacity="0" result="BackgroundImageFix"/>
<feColorMatrix in="SourceAlpha" type="matrix" values="0 0 0 0 0 0 0 0 0 0 0 0 0 0 0 0 0 0 127 0" result="hardAlpha"/>
<feOffset dy="2.35138"/>
<feGaussianBlur stdDeviation="9.84641"/>
<feColorMatrix type="matrix" values="0 0 0 0 0.0791667 0 0 0 0 0.285764 0 0 0 0 1 0 0 0 1 0"/>
<feBlend mode="normal" in2="BackgroundImageFix" result="effect1_dropShadow_7955_22814"/>
<feBlend mode="normal" in="SourceGraphic" in2="effect1_dropShadow_7955_22814" result="shape"/>
</filter>
<filter id="filter9_d_7955_22814" x="-2.68012" y="-23.6619" width="492.026" height="492.027" filterUnits="userSpaceOnUse" color-interpolation-filters="sRGB">
<feFlood flood-opacity="0" result="BackgroundImageFix"/>
<feColorMatrix in="SourceAlpha" type="matrix" values="0 0 0 0 0 0 0 0 0 0 0 0 0 0 0 0 0 0 127 0" result="hardAlpha"/>
<feOffset dy="2.35138"/>
<feGaussianBlur stdDeviation="9.84641"/>
<feColorMatrix type="matrix" values="0 0 0 0 0.0791667 0 0 0 0 0.285764 0 0 0 0 1 0 0 0 1 0"/>
<feBlend mode="normal" in2="BackgroundImageFix" result="effect1_dropShadow_7955_22814"/>
<feBlend mode="normal" in="SourceGraphic" in2="effect1_dropShadow_7955_22814" result="shape"/>
</filter>
<filter id="filter10_d_7955_22814" x="14.9546" y="-6.02649" width="456.756" height="456.756" filterUnits="userSpaceOnUse" color-interpolation-filters="sRGB">
<feFlood flood-opacity="0" result="BackgroundImageFix"/>
<feColorMatrix in="SourceAlpha" type="matrix" values="0 0 0 0 0 0 0 0 0 0 0 0 0 0 0 0 0 0 127 0" result="hardAlpha"/>
<feOffset dy="2.35138"/>
<feGaussianBlur stdDeviation="9.84641"/>
<feColorMatrix type="matrix" values="0 0 0 0 0.0791667 0 0 0 0 0.285764 0 0 0 0 1 0 0 0 1 0"/>
<feBlend mode="normal" in2="BackgroundImageFix" result="effect1_dropShadow_7955_22814"/>
<feBlend mode="normal" in="SourceGraphic" in2="effect1_dropShadow_7955_22814" result="shape"/>
</filter>
<filter id="filter11_d_7955_22814" x="30.8267" y="9.84533" width="425.013" height="425.012" filterUnits="userSpaceOnUse" color-interpolation-filters="sRGB">
<feFlood flood-opacity="0" result="BackgroundImageFix"/>
<feColorMatrix in="SourceAlpha" type="matrix" values="0 0 0 0 0 0 0 0 0 0 0 0 0 0 0 0 0 0 127 0" result="hardAlpha"/>
<feOffset dy="2.35138"/>
<feGaussianBlur stdDeviation="9.84641"/>
<feColorMatrix type="matrix" values="0 0 0 0 0.0791667 0 0 0 0 0.285764 0 0 0 0 1 0 0 0 1 0"/>
<feBlend mode="normal" in2="BackgroundImageFix" result="effect1_dropShadow_7955_22814"/>
<feBlend mode="normal" in="SourceGraphic" in2="effect1_dropShadow_7955_22814" result="shape"/>
</filter>
<filter id="filter12_d_7955_22814" x="50.814" y="29.832" width="385.039" height="385.039" filterUnits="userSpaceOnUse" color-interpolation-filters="sRGB">
<feFlood flood-opacity="0" result="BackgroundImageFix"/>
<feColorMatrix in="SourceAlpha" type="matrix" values="0 0 0 0 0 0 0 0 0 0 0 0 0 0 0 0 0 0 127 0" result="hardAlpha"/>
<feOffset dy="2.35138"/>
<feGaussianBlur stdDeviation="9.84641"/>
<feColorMatrix type="matrix" values="0 0 0 0 0.0791667 0 0 0 0 0.285764 0 0 0 0 1 0 0 0 1 0"/>
<feBlend mode="normal" in2="BackgroundImageFix" result="effect1_dropShadow_7955_22814"/>
<feBlend mode="normal" in="SourceGraphic" in2="effect1_dropShadow_7955_22814" result="shape"/>
</filter>
<filter id="filter13_d_7955_22814" x="73.7398" y="52.7581" width="339.186" height="339.187" filterUnits="userSpaceOnUse" color-interpolation-filters="sRGB">
<feFlood flood-opacity="0" result="BackgroundImageFix"/>
<feColorMatrix in="SourceAlpha" type="matrix" values="0 0 0 0 0 0 0 0 0 0 0 0 0 0 0 0 0 0 127 0" result="hardAlpha"/>
<feOffset dy="2.35138"/>
<feGaussianBlur stdDeviation="9.84641"/>
<feColorMatrix type="matrix" values="0 0 0 0 0.0791667 0 0 0 0 0.285764 0 0 0 0 1 0 0 0 1 0"/>
<feBlend mode="normal" in2="BackgroundImageFix" result="effect1_dropShadow_7955_22814"/>
<feBlend mode="normal" in="SourceGraphic" in2="effect1_dropShadow_7955_22814" result="shape"/>
</filter>
<filter id="filter14_d_7955_22814" x="93.1382" y="72.157" width="300.389" height="300.389" filterUnits="userSpaceOnUse" color-interpolation-filters="sRGB">
<feFlood flood-opacity="0" result="BackgroundImageFix"/>
<feColorMatrix in="SourceAlpha" type="matrix" values="0 0 0 0 0 0 0 0 0 0 0 0 0 0 0 0 0 0 127 0" result="hardAlpha"/>
<feOffset dy="2.35138"/>
<feGaussianBlur stdDeviation="9.84641"/>
<feColorMatrix type="matrix" values="0 0 0 0 0.0791667 0 0 0 0 0.285764 0 0 0 0 1 0 0 0 1 0"/>
<feBlend mode="normal" in2="BackgroundImageFix" result="effect1_dropShadow_7955_22814"/>
<feBlend mode="normal" in="SourceGraphic" in2="effect1_dropShadow_7955_22814" result="shape"/>
</filter>
<filter id="filter15_d_7955_22814" x="110.186" y="89.2045" width="266.294" height="266.294" filterUnits="userSpaceOnUse" color-interpolation-filters="sRGB">
<feFlood flood-opacity="0" result="BackgroundImageFix"/>
<feColorMatrix in="SourceAlpha" type="matrix" values="0 0 0 0 0 0 0 0 0 0 0 0 0 0 0 0 0 0 127 0" result="hardAlpha"/>
<feOffset dy="2.35138"/>
<feGaussianBlur stdDeviation="9.84641"/>
<feColorMatrix type="matrix" values="0 0 0 0 0.0791667 0 0 0 0 0.285764 0 0 0 0 1 0 0 0 1 0"/>
<feBlend mode="normal" in2="BackgroundImageFix" result="effect1_dropShadow_7955_22814"/>
<feBlend mode="normal" in="SourceGraphic" in2="effect1_dropShadow_7955_22814" result="shape"/>
</filter>
<filter id="filter16_di_7955_22814" x="115.092" y="91.7597" width="256.217" height="256.217" filterUnits="userSpaceOnUse" color-interpolation-filters="sRGB">
<feFlood flood-opacity="0" result="BackgroundImageFix"/>
<feColorMatrix in="SourceAlpha" type="matrix" values="0 0 0 0 0 0 0 0 0 0 0 0 0 0 0 0 0 0 127 0" result="hardAlpha"/>
<feOffset/>
<feGaussianBlur stdDeviation="20.1204"/>
<feComposite in2="hardAlpha" operator="out"/>
<feColorMatrix type="matrix" values="0 0 0 0 0 0 0 0 0 0.0972222 0 0 0 0 0.75 0 0 0 1 0"/>
<feBlend mode="normal" in2="BackgroundImageFix" result="effect1_dropShadow_7955_22814"/>
<feBlend mode="normal" in="SourceGraphic" in2="effect1_dropShadow_7955_22814" result="shape"/>
<feColorMatrix in="SourceAlpha" type="matrix" values="0 0 0 0 0 0 0 0 0 0 0 0 0 0 0 0 0 0 127 0" result="hardAlpha"/>
<feOffset dy="1.99954"/>
<feGaussianBlur stdDeviation="8.84798"/>
<feComposite in2="hardAlpha" operator="arithmetic" k2="-1" k3="1"/>
<feColorMatrix type="matrix" values="0 0 0 0 0 0 0 0 0 0.0360119 0 0 0 0 0.275 0 0 0 1 0"/>
<feBlend mode="normal" in2="shape" result="effect2_innerShadow_7955_22814"/>
</filter>
<filter id="filter17_f_7955_22814" x="-1094.73" y="69.6376" width="2677.93" height="1099.49" filterUnits="userSpaceOnUse" color-interpolation-filters="sRGB">
<feFlood flood-opacity="0" result="BackgroundImageFix"/>
<feBlend mode="normal" in="SourceGraphic" in2="BackgroundImageFix" result="shape"/>
<feGaussianBlur stdDeviation="175.681" result="effect1_foregroundBlur_7955_22814"/>
</filter>
<clipPath id="clip0_7955_22814">
<rect width="488" height="524" rx="24" fill="white"/>
</clipPath>
</defs>
</svg>
