<svg width="226" height="93" viewBox="0 0 226 93" fill="none" xmlns="http://www.w3.org/2000/svg">
<path d="M45.2883 76.3283C50.2485 72.6037 54.0828 72.6953 55.9695 76.5726C57.4302 75.1987 58.9213 74.0386 60.9906 73.7333C64.9162 73.1838 66.8638 74.8324 66.8638 78.8012C66.8638 81.3351 66.8638 83.8996 66.8638 86.4335C66.8638 87.1662 66.8942 87.8684 67.7767 88.1432C68.7505 88.4485 68.2636 89.2422 68.2636 89.8223C68.3245 92.4783 68.2941 92.4783 65.7074 92.4783C64.0337 92.4783 62.36 92.4173 60.6863 92.5089C59.5604 92.5699 59.1039 92.3257 59.1648 91.0435C59.2561 87.7463 59.1952 84.4186 59.1952 81.1214C59.1952 79.595 57.978 78.8317 56.5173 79.4118C56.0304 79.595 56.1217 79.9308 56.1217 80.2666C56.1217 82.6174 56.1217 84.9376 56.1217 87.2884C56.1217 87.6242 56 88.0211 56.5173 88.1432C56.9433 88.2653 57.6737 87.8379 57.6737 88.6927C57.7041 89.9139 57.6737 91.1045 57.552 92.3257C57.5215 92.6005 57.0042 92.4783 56.7303 92.4783C54.2958 92.4783 51.8614 92.4478 49.4269 92.5089C48.5748 92.5394 48.4531 92.1425 48.4531 91.4098C48.4836 88.0516 48.4836 84.6934 48.4531 81.3351C48.4531 79.595 47.4489 78.8928 45.7752 79.3813C45.2274 79.5339 45.2579 79.9003 45.2579 80.3277C45.2579 82.6174 45.2579 84.9071 45.2579 87.1968C45.2579 87.5631 45.1361 88.0516 45.7143 88.1737C46.1708 88.2653 46.8707 87.96 46.8707 88.7843C46.9011 89.9444 46.9011 91.1351 46.7794 92.2646C46.749 92.6615 46.1708 92.5089 45.8361 92.5089C42.8538 92.5089 39.8412 92.4783 36.8589 92.5394C36.0373 92.5394 35.7939 92.2646 35.8547 91.4709C35.9156 90.6466 35.8547 89.8528 35.8852 89.0285C35.8852 88.6927 35.8547 88.2348 36.3416 88.2042C37.711 88.1432 37.6197 87.1968 37.6197 86.2504C37.6197 84.2049 37.6197 82.1899 37.6197 80.1445C37.6197 79.5644 37.6501 78.8012 36.9807 78.7707C35.4287 78.6791 35.7634 77.6411 35.7634 76.7252C35.7634 74.0081 35.7634 74.0081 38.4414 74.0081C39.7194 74.0081 40.9671 74.0081 42.2452 74.0081C44.5884 73.9776 44.5884 73.9776 45.2883 76.3283Z" fill="white"/>
<path d="M18.2336 46.5006C18.4466 47.0502 18.9639 46.9891 19.39 47.1112C21.4897 47.7829 22.9504 49.0956 23.2851 51.3243C23.6503 53.7972 23.0417 55.9953 20.9115 57.5217C19.0857 58.8345 16.9555 59.3535 14.7645 59.4146C10.4129 59.5367 6.06125 59.4756 1.70963 59.5061C0.94886 59.5061 0.735843 59.2314 0.796705 58.5292C0.857567 57.8576 0.827136 57.2164 0.796705 56.5448C0.766274 55.7816 0.644551 55.0489 1.86179 55.0794C2.53127 55.1099 2.77471 54.3772 2.77471 53.7056C2.77471 49.4315 2.77471 45.1574 2.77471 40.8832C2.77471 40.3642 2.71385 39.6315 2.1661 39.6315C0.309811 39.601 0.827136 38.3188 0.796705 37.2808C0.766274 36.7618 0.827136 36.2733 0.796705 35.7543C0.766274 35.1743 0.97929 34.93 1.55748 34.9606C6.57858 35.1132 11.5997 34.5942 16.5903 35.2964C18.4162 35.5406 20.1508 36.1817 21.3984 37.6166C24.1372 40.8832 22.5244 45.2795 18.2336 46.5006ZM10.8085 52.118C10.8085 52.637 10.8693 53.1255 10.8085 53.6445C10.6867 54.6825 11.0215 55.0794 12.117 55.0183C14.4602 54.9267 15.3122 53.9803 15.0992 51.5075C14.9775 49.8283 13.9733 49.1262 11.8736 49.1567C9.98684 49.1872 11.1128 50.6221 10.8085 51.3853C10.7476 51.5685 10.8085 51.8738 10.8085 52.118ZM10.8085 42.2571C10.8085 42.8677 10.8085 43.4782 10.8085 44.0888C10.8085 44.3636 10.778 44.6689 11.1432 44.8215C12.0866 45.2184 14.0037 44.5773 14.4906 43.6309C15.0992 42.4708 14.7645 40.639 13.7907 40.0284C12.9691 39.54 11.9953 39.4178 11.1432 39.7231C10.3824 39.9979 10.8998 40.8832 10.778 41.4938C10.778 41.7381 10.8085 42.0128 10.8085 42.2571Z" fill="white"/>
<path d="M12.2996 67.9626C15.7079 67.9626 19.0857 67.9932 22.494 67.9321C23.346 67.9321 23.7416 68.0848 23.7112 69.0617C23.6199 71.443 23.6503 73.8548 23.7112 76.2361C23.7112 76.9688 23.4982 77.152 22.7678 77.1825C18.964 77.3657 18.9335 77.3962 18.4771 73.6411C18.3554 72.7252 17.9293 72.6336 17.199 72.6336C16.3165 72.6031 16.3773 73.1526 16.4078 73.7327C16.4078 77.9457 16.4078 82.1588 16.4078 86.4024C16.4078 87.3793 16.6512 88.1731 17.8076 88.1425C18.4466 88.112 18.5684 88.4478 18.5379 88.9668C18.5379 89.0584 18.5379 89.1805 18.5379 89.2721C18.6292 92.4472 18.6292 92.4472 15.434 92.4472C12.6952 92.4472 9.95643 92.4167 7.21765 92.4777C6.36558 92.4777 6.00041 92.2335 6.0917 91.3481C6.15257 90.7375 6.12214 90.127 6.0917 89.5164C6.06127 88.7226 6.00041 88.0204 7.21765 88.051C8.00885 88.0815 8.2523 87.3793 8.2523 86.6161C8.2523 82.2809 8.2523 77.9763 8.2523 73.6411C8.2523 73.0305 8.22187 72.5726 7.3698 72.5726C6.63946 72.5726 6.183 72.7558 6.21343 73.5495C6.21343 73.6106 6.21343 73.6411 6.21343 73.7022C5.63524 77.4268 5.42222 77.5794 1.61836 77.152C1.00974 77.0909 0.88802 76.8467 0.88802 76.2972C0.918451 73.7938 0.918451 71.3209 0.88802 68.8175C0.857589 67.9016 1.34448 67.8711 2.04439 67.8711C5.39179 67.9627 8.83048 67.9626 12.2996 67.9626Z" fill="white"/>
<path d="M84.0254 43.2645C85.6686 41.9518 87.4336 40.9138 89.5638 40.7306C90.5071 40.639 91.3896 40.7306 92.2721 40.9138C93.9154 41.2801 95.0109 42.4708 95.0718 44.272C95.1935 47.2639 95.163 50.2558 95.1935 53.2476C95.1935 54.1025 95.0413 54.9878 96.2586 55.2626C96.8976 55.4152 96.5629 56.1174 96.5629 56.5753C96.5933 59.5062 96.5933 59.5062 93.7024 59.5062C92.0895 59.5062 90.4463 59.4451 88.8334 59.5367C87.7075 59.5978 87.4945 59.2009 87.5249 58.1629C87.5858 54.9573 87.5553 51.7517 87.5553 48.5461C87.5553 46.7449 85.9121 45.7374 84.3297 46.4701C83.9036 46.6533 83.9036 46.9891 83.9036 47.3555C83.9036 49.7062 83.9341 52.0265 83.8732 54.3772C83.8428 55.2321 84.3297 55.2626 84.9383 55.2015C85.7295 55.1099 85.9425 55.4458 85.9729 56.2395C86.0946 59.5367 86.1251 59.5367 82.8081 59.5367C80.4345 59.5367 78.0305 59.5062 75.6568 59.5672C74.8048 59.5977 74.47 59.3535 74.5613 58.4682C74.6222 57.827 74.5918 57.1554 74.5918 56.4838C74.5918 55.8426 74.4092 55.171 75.5047 55.171C76.1742 55.171 76.2959 54.4993 76.2959 53.8888C76.2959 51.5991 76.2959 49.3094 76.2959 47.0197C76.2959 46.4701 76.2046 46.0122 75.6568 45.7374C75.2612 45.5542 74.5005 45.8901 74.5005 45.0963C74.47 43.8446 74.5005 42.5624 74.5918 41.3107C74.6222 41.0359 75.1091 41.0664 75.4134 41.0664C77.6348 41.0664 79.8867 41.0359 82.1082 41.0664C83.2037 41.097 83.2037 41.1275 84.0254 43.2645Z" fill="white"/>
<path d="M36.2796 57.1256C34.1799 59.0795 31.928 59.9954 29.2501 59.8122C26.5722 59.629 25.0202 58.1636 24.9593 55.4771C24.8985 52.7905 24.9593 50.0734 24.9593 47.3868C24.9593 46.593 24.9593 45.7993 23.9247 45.6466C23.3769 45.555 23.3769 45.2192 23.3465 44.7612C23.0117 41.0367 23.0117 41.0367 26.6939 41.0367C28.3067 41.0367 29.95 41.0672 31.5628 41.0061C32.4149 40.9756 32.6888 41.2809 32.6888 42.1357C32.6583 45.4329 32.6583 48.7606 32.6583 52.0578C32.6583 53.9506 33.8147 54.7444 35.671 54.2559C36.2188 54.1032 36.2492 53.7674 36.2492 53.34C36.2492 51.0503 36.2188 48.7606 36.2492 46.4709C36.2492 45.7687 35.9449 45.555 35.3363 45.6161C34.4538 45.7077 34.3929 45.2192 34.3625 44.4865C34.2712 41.0061 34.2407 41.0061 37.6794 41.0061C39.2923 41.0061 40.9355 41.0672 42.5484 40.9756C43.583 40.9146 43.9482 41.2504 43.9178 42.3189C43.8569 45.9824 43.8873 49.6459 43.8873 53.3095C43.8873 54.1948 43.796 55.1107 45.1046 55.1718C45.6523 55.2023 45.5002 55.6602 45.5306 55.9961C45.8653 59.4459 45.8653 59.4459 42.3962 59.4459C41.3311 59.4459 40.2661 59.3543 39.201 59.4764C37.4664 59.7206 36.3405 59.2932 36.2796 57.1256Z" fill="white"/>
<path d="M23.0121 10.6584C25.2031 8.61295 27.4246 7.69707 30.0721 7.78866C32.9326 7.91077 34.4541 9.40671 34.4846 12.307C34.515 14.9936 34.4846 17.7107 34.4846 20.3973C34.4846 21.191 34.3324 21.9848 35.4888 22.3206C36.2191 22.5343 35.854 23.3586 35.854 23.9081C35.8844 26.5947 35.8844 26.5947 33.2065 26.5947C31.4719 26.5947 29.7678 26.5337 28.0332 26.5947C27.0899 26.6253 26.816 26.3505 26.816 25.4041C26.8768 22.1985 26.8464 18.9929 26.8464 15.7873C26.8464 13.8029 25.9031 13.1008 23.9555 13.4976C23.3773 13.6198 23.2251 13.864 23.2251 14.4135C23.2556 16.7643 23.2556 19.0845 23.2251 21.4353C23.2251 22.168 23.5599 22.3206 24.1381 22.229C25.1727 22.0764 25.264 22.6259 25.264 23.4807C25.2944 26.5947 25.3249 26.5947 22.1905 26.5947C19.756 26.5947 17.3215 26.5642 14.8871 26.5947C14.1263 26.5947 13.7611 26.4421 13.822 25.5873C13.8829 24.8851 13.822 24.1524 13.8524 23.4502C13.8524 22.8091 13.6698 22.1069 14.7653 22.168C15.3435 22.1985 15.5566 21.6184 15.5566 21.0384C15.5566 18.6571 15.587 16.2453 15.5566 13.864C15.5566 13.4671 15.4653 12.8871 15.0392 12.8565C13.3351 12.7955 13.7916 11.5743 13.7611 10.5974C13.7611 10.2005 13.7916 9.77306 13.7307 9.37618C13.5785 8.30766 13.9741 7.97183 15.0697 8.03289C16.8346 8.12448 18.6301 8.15501 20.3951 8.03289C22.0383 7.97183 23.0121 8.52136 23.0121 10.6584Z" fill="white"/>
<path d="M180.644 10.415C182.713 8.58326 184.965 7.60632 187.673 7.78949C190.442 8.0032 191.812 9.40755 191.872 12.1857C191.903 14.9944 191.872 17.7726 191.872 20.5813C191.872 21.314 191.812 22.0467 192.785 22.2604C193.668 22.4436 193.303 23.1458 193.303 23.6342C193.364 26.6261 193.364 26.6261 190.442 26.6261C188.769 26.6261 187.095 26.565 185.421 26.6566C184.447 26.7177 184.234 26.3819 184.265 25.466C184.326 22.1993 184.295 18.9632 184.295 15.6966C184.295 13.8954 182.804 12.949 181.1 13.5901C180.644 13.7732 180.644 14.048 180.644 14.4144C180.644 16.7651 180.674 19.0854 180.613 21.4361C180.583 22.2604 181.039 22.3825 181.648 22.2909C182.561 22.1688 182.713 22.5962 182.743 23.4205C182.804 26.6566 182.835 26.6566 179.639 26.6566C177.205 26.6566 174.77 26.6261 172.336 26.6872C171.484 26.7177 171.119 26.4735 171.21 25.5881C171.271 24.8859 171.24 24.1532 171.21 23.451C171.179 22.7794 171.21 22.2909 172.123 22.2909C172.762 22.2909 173.005 21.7109 173.005 21.0698C173.005 18.719 173.005 16.3988 173.005 14.048C173.005 13.5595 172.823 12.9795 172.366 12.949C170.966 12.9184 171.149 12.0025 171.149 11.0867C171.179 8.18637 171.149 8.18637 173.979 8.18637C175.196 8.18637 176.414 8.18637 177.631 8.18637C179.883 8.12532 179.883 8.12532 180.644 10.415Z" fill="white"/>
<path d="M93.2469 10.5677C95.3466 8.70539 97.5072 7.66739 100.155 7.78951C103.198 7.94215 104.567 9.31597 104.628 12.3689C104.658 15.025 104.628 17.6505 104.628 20.3065C104.628 21.1614 104.506 22.0162 105.724 22.3215C106.423 22.5047 106.058 23.39 106.058 23.9395C106.089 26.5956 106.089 26.5956 103.472 26.5956C101.707 26.5956 99.9113 26.5345 98.1463 26.6261C97.2029 26.6566 96.929 26.3819 96.9595 25.4355C97.0203 22.2299 96.9899 19.0243 96.9899 15.8187C96.9899 13.7733 96.3204 13.2543 94.2815 13.529C93.5512 13.6206 93.3686 13.9259 93.3686 14.5975C93.399 16.7957 93.399 18.9632 93.3686 21.1614C93.3382 21.9857 93.5512 22.4436 94.4641 22.2909C95.3162 22.1383 95.4379 22.5657 95.4683 23.3289C95.5596 26.6566 95.5901 26.6566 92.334 26.6566C89.9908 26.6566 87.678 26.5956 85.3349 26.6872C84.2089 26.7177 83.9046 26.3208 83.9959 25.3133C84.0568 24.6112 83.9959 23.8785 83.9959 23.1763C83.9959 22.7794 83.9655 22.3215 84.5741 22.3215C85.6392 22.2909 85.7609 21.5582 85.7609 20.7339C85.7609 18.5969 85.7609 16.4598 85.7305 14.3228C85.7305 13.7427 85.7609 12.949 85.1218 12.9184C83.5699 12.8574 83.8742 11.8194 83.8742 10.9035C83.8742 8.15586 83.8742 8.15586 86.6738 8.15586C87.891 8.15586 89.1083 8.24745 90.3255 8.12533C92.0601 7.94215 93.2469 8.33903 93.2469 10.5677Z" fill="white"/>
<path d="M213.265 25.8311C210.374 27.6628 206.6 27.266 204.714 24.8847C202.979 26.5333 200.879 27.0522 198.567 26.808C195.828 26.5333 193.972 24.732 193.728 22.1676C193.454 19.2062 194.915 17.0081 197.593 16.2143C199.266 15.7259 201.001 15.8175 202.736 15.8175C203.253 15.8175 204.075 16.367 204.196 15.39C204.318 14.5047 204.196 13.6193 203.131 13.2835C201.762 12.8561 200.332 12.9172 199.175 13.6804C198.019 14.4436 196.862 14.2299 195.676 14.291C195.158 14.3215 194.915 14.1078 194.945 13.5888C194.976 13.2225 194.945 12.8866 194.945 12.5203C194.945 8.70412 194.945 8.70412 198.81 8.12406C201.488 7.72718 204.166 7.544 206.844 8.03247C210.252 8.67359 211.743 10.4138 211.865 13.8941C211.926 15.9701 211.956 18.0766 211.865 20.1526C211.804 21.3433 212.047 22.1981 213.295 22.5644C213.295 23.633 213.265 24.732 213.265 25.8311ZM204.196 20.4579C204.501 19.2978 203.862 19.0841 202.888 19.0841C201.701 19.0841 200.94 19.481 200.94 20.8243C200.94 21.9539 201.427 22.5644 202.583 22.5339C203.922 22.5034 204.47 21.8012 204.196 20.4579Z" fill="white"/>
<path d="M124.59 16.9174C124.59 18.1386 124.59 19.3598 124.59 20.581C124.59 21.3747 124.56 22.1074 125.625 22.2906C126.446 22.4432 126.051 23.2065 126.051 23.695C126.112 26.3205 125.96 26.5342 123.373 26.8089C121.395 27.0226 119.386 27.2669 117.895 25.4351C117.53 24.9772 117.226 25.3435 116.861 25.5267C114.761 26.7784 112.54 27.2058 110.166 26.5647C108.005 25.9541 106.727 24.4277 106.514 22.199C106.271 19.6345 107.184 17.7417 109.192 16.6732C111.17 15.6352 113.3 15.7878 115.43 15.7878C115.917 15.7878 116.83 16.49 116.952 15.2994C117.043 14.2919 116.769 13.4371 115.674 13.1623C114.365 12.857 112.966 12.8876 111.87 13.6813C110.775 14.4446 109.649 14.2003 108.523 14.2919C107.914 14.3224 107.731 14.0477 107.762 13.4676C107.792 12.9486 107.762 12.4602 107.762 11.9412C107.762 8.79663 107.762 8.7661 110.805 8.21657C113.878 7.69757 116.952 7.42281 120.026 8.09445C123.129 8.7661 124.529 10.5063 124.59 13.6508C124.59 14.7804 124.59 15.8489 124.59 16.9174ZM116.952 20.6115C117.287 19.4208 116.739 19.024 115.583 19.0545C114.365 19.085 113.665 19.543 113.665 20.8252C113.665 21.9242 114.213 22.5348 115.339 22.5043C116.526 22.5043 117.256 22.0158 116.952 20.6115Z" fill="white"/>
<path d="M160.226 26.9311C156.483 26.7784 152.984 25.6488 151.127 21.7716C149.423 18.1997 149.758 14.6277 152.162 11.4222C155.144 7.45334 162.478 6.53746 166.86 9.55986C170.938 12.3686 172.155 18.2913 169.477 22.5959C167.377 25.8931 164.121 26.87 160.226 26.9311ZM163.178 17.6501C163.087 16.49 163.087 15.2689 162.539 14.1393C162.143 13.315 161.504 12.7654 160.53 12.7654C159.557 12.7654 158.857 13.2539 158.522 14.1087C157.639 16.3679 157.67 18.6576 158.522 20.9168C158.857 21.7716 159.526 22.2601 160.53 22.2906C161.535 22.3211 162.143 21.7716 162.539 20.9473C163.056 19.9704 163.056 18.8408 163.178 17.6501Z" fill="white"/>
<path d="M61.7799 18.9938C60.1975 18.9938 58.6456 18.9938 57.0632 18.9938C56.3328 18.9938 56.0894 19.1464 56.3024 19.9707C56.911 22.352 60.1367 23.2984 62.1755 21.4972C63.5754 20.2455 65.0665 21.0393 66.4663 20.795C66.5576 20.795 66.6793 20.8255 66.7402 20.8866C67.3792 21.4361 66.8315 25.4049 66.0403 25.7102C61.7799 27.2672 57.4588 27.542 53.1071 25.985C51.8899 25.5576 50.8857 24.7638 50.1553 23.6648C47.9643 20.215 47.8426 16.5514 49.425 12.8879C50.8857 9.52969 53.807 8.15587 57.337 7.85057C57.8544 7.82004 58.3412 7.82004 58.8586 7.82004C66.0403 7.91163 67.8661 12.3994 67.5922 18.2916C67.5618 19.0854 67.0749 19.0243 66.588 19.0243C65.0056 18.9938 63.3928 19.0243 61.7799 18.9938ZM58.1891 15.4219C60.4106 15.4219 60.4105 15.4219 60.441 14.6281C60.441 13.1932 59.6802 12.1857 58.5238 12.1552C57.3066 12.1247 56.1502 13.3153 56.3024 14.7197C56.4241 16.1851 57.7022 14.9944 58.1891 15.4219Z" fill="white"/>
<path d="M81.8361 84.8758C80.3145 84.8758 78.793 84.9369 77.2714 84.8453C76.0238 84.7842 76.0542 85.3643 76.3585 86.2191C77.0584 88.234 79.9189 89.0583 81.8361 87.5013C83.2968 86.3107 84.7879 86.7686 86.279 86.6465C86.7659 86.616 86.8876 86.8907 86.8876 87.3182C86.8876 88.4477 86.8876 89.5468 86.8876 90.6764C86.8876 91.287 86.4007 91.4091 86.0051 91.5617C81.9578 93.0577 77.8192 93.3324 73.6806 92.0197C71.1244 91.1954 69.5724 89.3331 68.9029 86.7381C68.3856 84.7842 68.3248 82.7998 68.7508 80.8459C69.8159 75.8697 74.1371 73.122 79.6755 73.641C85.9442 74.2211 87.8918 78.0678 87.6179 83.9905C87.5875 84.7842 87.1919 84.9063 86.5529 84.8758C85.0009 84.8453 83.4185 84.8758 81.8361 84.8758ZM78.2452 81.2123C80.6797 81.2123 80.8927 80.9986 80.1624 79.2279C79.7059 78.1288 78.8538 77.8541 77.8192 78.1288C76.5715 78.4646 76.2368 79.6553 76.2976 80.6322C76.3585 81.7923 77.5149 80.8765 78.0931 81.1818C78.1235 81.2123 78.1844 81.2123 78.2452 81.2123Z" fill="white"/>
<path d="M110.133 51.9352C108.551 51.9352 106.999 51.9657 105.417 51.9352C104.626 51.9046 104.473 52.2099 104.656 52.9426C105.204 55.2629 108.369 56.2398 110.438 54.4691C111.838 53.2784 113.298 53.9196 114.759 53.7364C114.881 53.7059 115.124 53.828 115.155 53.889C115.428 55.2018 115.276 56.5146 115.246 57.8273C115.215 58.6211 114.394 58.6516 113.876 58.8348C110.073 60.056 106.238 60.3307 102.374 59.2011C99.6044 58.4074 97.9307 56.484 97.2308 53.7059C96.0744 49.1875 97.3525 44.8523 100.487 42.5626C103.5 40.334 109.312 40.0592 112.507 41.9826C115.155 43.5701 115.794 46.1956 116.037 49.0349C116.281 51.9352 116.25 51.9352 113.39 51.9657C112.264 51.9352 111.199 51.9352 110.133 51.9352ZM106.695 48.4243C107.334 47.8747 108.673 49.157 108.795 47.5695C108.916 46.043 108.003 45.0966 106.756 45.1271C105.599 45.1576 104.534 46.3178 104.686 47.6305C104.839 49.0654 106.056 47.9053 106.695 48.4243Z" fill="white"/>
<path d="M140.627 59.7798C138.588 59.9019 136.58 59.5967 134.602 59.1998C133.689 59.0166 133.263 58.6197 133.445 57.6733C133.476 57.4291 133.415 57.1543 133.445 56.9101C133.628 55.8721 132.867 54.1319 133.81 53.8877C135.18 53.5213 136.945 53.1244 138.345 54.5898C139.197 55.5057 140.475 55.4447 141.662 55.2615C142.209 55.1699 142.666 54.8951 142.696 54.3151C142.727 53.7045 142.27 53.4603 141.722 53.3687C140.566 53.1855 139.41 53.0328 138.284 52.8191C135.241 52.2391 133.658 50.5905 133.476 47.7818C133.232 44.4846 134.602 42.2255 137.614 41.3401C141.205 40.3021 144.826 40.6379 148.417 41.4622C148.965 41.5843 149.208 41.8286 149.178 42.3781C149.178 42.6834 149.239 42.9887 149.178 43.294C148.995 44.332 149.787 46.0416 148.782 46.3469C147.443 46.7438 145.739 47.0186 144.339 45.7974C143.457 45.0342 142.24 45.1257 141.114 45.3089C140.688 45.37 140.323 45.6142 140.262 46.0722C140.201 46.6522 140.627 46.8964 141.083 46.9575C142.27 47.1712 143.487 47.3849 144.674 47.5681C149.695 48.3313 150.517 51.8422 149.482 55.5973C148.63 58.6808 145.983 59.4135 143.214 59.7798C142.361 59.8714 141.509 59.7798 140.627 59.7798Z" fill="white"/>
<path d="M123.525 59.8116C121.639 59.8726 119.661 59.5979 117.652 59.1704C116.831 58.9873 116.374 58.6514 116.526 57.7356C116.587 57.3997 116.526 57.0334 116.526 56.667C116.526 53.5225 116.526 53.5225 119.661 53.6446C120.178 53.6752 120.604 53.7667 120.969 54.1942C121.943 55.2932 123.252 55.3848 124.621 55.2016C125.23 55.1406 125.716 54.8963 125.747 54.1942C125.777 53.5225 125.26 53.3699 124.743 53.2783C123.586 53.0951 122.43 52.9425 121.304 52.7287C118.109 52.1182 116.618 50.378 116.496 47.2335C116.374 44.2416 117.926 41.9824 120.817 41.2192C124.317 40.2728 127.847 40.5781 131.346 41.3718C132.016 41.5245 132.29 41.8298 132.229 42.5014C132.198 42.8067 132.259 43.112 132.229 43.4173C132.077 44.4248 132.776 46.0428 131.833 46.3176C130.525 46.6839 128.881 46.9892 127.512 45.8291C126.66 45.0964 125.534 45.0964 124.469 45.2491C123.982 45.3406 123.404 45.4322 123.343 46.0733C123.312 46.745 123.86 46.8976 124.347 46.9892C125.503 47.2029 126.66 47.3556 127.786 47.5388C131.346 48.1799 132.807 49.7063 132.868 52.8814C132.929 56.5755 131.316 58.682 127.907 59.4757C126.508 59.8116 125.108 59.8421 123.525 59.8116Z" fill="white"/>
<path d="M95.2845 92.7527C93.3065 92.8138 91.3589 92.5085 89.4113 92.1422C88.4375 91.959 88.0115 91.501 88.1636 90.4936C88.2245 90.1883 88.1332 89.883 88.1941 89.5777C88.4071 88.6008 87.555 86.9827 88.6505 86.7079C89.9895 86.4026 91.6936 85.9752 93.0326 87.4101C93.9151 88.3565 95.2236 88.326 96.4713 88.1123C97.019 88.0207 97.4146 87.6543 97.4146 87.1048C97.4146 86.5858 96.9886 86.3416 96.5017 86.25C95.1932 86.0058 93.8847 85.8531 92.6066 85.5783C89.6548 84.9067 88.3158 83.3192 88.1332 80.4189C87.9506 77.5491 89.1983 75.4121 91.8458 74.4351C95.6192 73.0919 99.4231 73.5498 103.197 74.4046C103.683 74.5267 103.866 74.771 103.866 75.2594C103.866 76.4195 103.866 77.6102 103.866 78.7703C103.866 79.0145 103.836 79.3809 103.531 79.3504C102.162 79.2588 100.671 79.8999 99.4231 78.9535C98.358 78.1597 97.2016 78.0376 95.9844 78.1902C95.4975 78.2513 94.9497 78.465 94.9497 79.1061C94.9497 79.6862 95.4671 79.8388 95.8931 79.8999C97.1712 80.1441 98.4797 80.2968 99.7883 80.5715C102.983 81.2127 104.383 82.7086 104.535 85.5783C104.718 89.0587 103.379 91.1957 100.397 92.2032C98.7232 92.7222 97.0191 92.8443 95.2845 92.7527Z" fill="white"/>
<path d="M53.0483 59.8113C51.0703 59.8419 49.1227 59.5976 47.1752 59.1702C46.384 58.987 45.8666 58.6818 46.0188 57.7659C46.0797 57.4301 45.9884 57.0332 46.0188 56.6973C46.1709 55.6899 45.471 54.0718 46.4144 53.8276C47.7534 53.4918 49.4575 53.0644 50.7964 54.4992C51.7398 55.4762 53.1092 55.4456 54.3873 55.1709C54.8438 55.0793 55.2394 54.774 55.2089 54.2245C55.2089 53.6444 54.8133 53.4307 54.3264 53.3391C53.1396 53.1254 51.9224 52.9728 50.7356 52.7591C47.7229 52.179 46.1709 50.4999 45.9884 47.6607C45.7753 44.4856 47.0534 42.318 49.9139 41.3716C53.5961 40.181 57.3087 40.6084 61.0212 41.4327C61.6907 41.5853 61.6603 41.9822 61.6298 42.4401C61.4777 43.7529 62.3298 45.6457 61.2647 46.2868C60.3213 46.8669 58.5259 46.989 57.2478 46.0121C56.1523 45.1573 54.935 45.0657 53.6569 45.3099C53.2005 45.4015 52.744 45.6152 52.7745 46.1953C52.8049 46.6837 53.2005 46.8669 53.5961 46.9585C54.7829 47.1722 56.0001 47.3554 57.1869 47.5691C60.8995 48.2407 62.2993 49.7672 62.3298 53.1865C62.3602 56.6973 60.6561 58.7733 57.2478 59.5366C55.8784 59.8113 54.4482 59.8419 53.0483 59.8113Z" fill="white"/>
<path d="M11.1131 14.4437C11.1131 16.4892 11.1131 18.5041 11.1131 20.5496C11.1131 21.5265 11.3261 22.3203 12.5129 22.2592C13.152 22.2287 13.3042 22.5645 13.2737 23.0835C13.2737 23.1751 13.2737 23.2972 13.2737 23.3888C13.365 26.5944 13.365 26.5944 10.1698 26.5944C7.43099 26.5944 4.69221 26.5639 1.95343 26.6249C1.0405 26.6555 0.614468 26.4418 0.736192 25.4648C0.797054 24.8542 0.766623 24.2437 0.736192 23.6331C0.736192 22.8088 0.67533 22.1371 1.89257 22.2287C2.62291 22.2898 2.92722 21.6792 2.92722 20.977C2.92722 16.6113 2.92722 12.2151 2.92722 7.8494C2.92722 7.14722 2.53161 6.59769 1.8317 6.62822C0.766623 6.68928 0.766623 6.10922 0.736192 5.31546C0.736192 2.10988 0.736192 2.10988 3.9923 2.10988C6.67022 2.10988 9.37857 2.17094 12.0565 2.07935C13.0911 2.04882 13.3954 2.38464 13.3042 3.36158C13.2433 4.0027 13.2433 4.67435 13.3042 5.34599C13.365 6.17028 13.2433 6.68928 12.2086 6.65875C11.2957 6.65875 11.1131 7.42199 11.1436 8.18522C11.1131 10.2917 11.1131 12.3677 11.1131 14.4437Z" fill="white"/>
<path d="M37.3746 17.7409C37.3746 16.367 37.3442 14.9932 37.3746 13.6194C37.3746 13.0088 37.2529 12.6425 36.5226 12.7646C35.6401 12.9172 35.5183 12.3982 35.5488 11.6961C35.5792 10.9328 35.5792 10.1696 35.5488 9.40636C35.5183 8.61259 35.5792 7.97148 36.6747 8.12412C37.3442 8.21571 37.3746 7.75777 37.3746 7.2693C37.3746 6.29236 37.4051 5.34595 37.3442 4.36902C37.3138 3.57525 37.5572 3.30049 38.3789 3.30049C40.2656 3.36155 42.1219 3.36155 44.0086 3.30049C44.7998 3.26996 45.1345 3.51419 45.0432 4.33849C45.0128 4.79643 45.0432 5.25437 45.0432 5.71231C45.0432 7.94095 45.0432 7.94095 47.2647 8.15465C47.5994 8.18518 48.0863 8.0936 48.1167 8.55154C48.1776 9.83377 48.2385 11.116 48.0863 12.3677C47.995 13.1004 47.143 12.7951 46.6865 12.7341C45.378 12.5814 44.9215 12.9783 45.0128 14.3521C45.1649 16.3365 45.0737 18.3209 45.0737 20.3053C45.0737 21.6181 45.6823 22.3813 47.0212 22.2592C48.1167 22.1676 48.2385 22.6561 48.2385 23.572C48.2385 26.8081 48.2689 26.8081 44.9519 26.9913C44.8911 26.9913 44.8606 26.9913 44.7998 26.9913C38.3484 27.1439 37.1616 24.8237 37.3746 19.8779C37.4051 19.1757 37.3746 18.443 37.3746 17.7409Z" fill="white"/>
<path d="M127.572 18.0157C127.572 16.8861 127.572 15.787 127.572 14.6575C127.542 13.711 127.846 12.9478 126.264 12.5815C125.047 12.2762 126.02 10.2612 125.807 9.04006C125.716 8.61265 125.716 8.03259 126.446 8.15471C127.603 8.33788 127.603 7.60518 127.603 6.78089C127.603 3.33107 127.633 3.33107 131.041 3.33107C132.107 3.33107 133.172 3.3616 134.237 3.30054C135.058 3.23948 135.332 3.57531 135.241 4.36907C135.211 4.76595 135.241 5.19336 135.241 5.59024C135.241 7.91047 135.302 7.69677 137.462 8.21577C139.258 8.64318 138.01 10.3833 138.284 11.5129C138.436 12.1235 138.467 12.7646 137.371 12.7952C135.211 12.8257 135.211 12.8868 135.211 15.0849C135.211 16.825 135.241 18.5347 135.211 20.2749C135.18 21.5876 135.789 22.3508 137.128 22.2593C138.193 22.1677 138.375 22.6256 138.345 23.572C138.345 26.8081 138.375 26.8081 135.058 26.9913C133.78 27.0524 132.533 26.9913 131.285 26.7165C128.972 26.167 127.725 24.6711 127.633 22.3203C127.572 20.8854 127.633 19.4811 127.633 18.0462C127.603 18.0157 127.603 18.0157 127.572 18.0157Z" fill="white"/>
<path d="M213.69 22.6262C215.577 22.3209 215.638 21.0082 215.608 19.4512C215.516 15.696 215.547 11.9409 215.577 8.18583C215.577 7.30048 215.395 6.65936 214.36 6.62883C213.721 6.62883 213.66 6.23195 213.63 5.71295C213.295 2.11049 213.295 2.11049 216.947 2.11049C218.377 2.11049 219.777 2.11049 221.207 2.11049C223.002 2.11049 223.246 2.3242 223.246 4.12543C223.246 9.46806 223.246 14.7802 223.246 20.1228C223.246 21.1913 223.002 22.4125 224.706 22.2904C224.95 22.2904 225.041 22.443 225.072 22.6567C225.102 22.8094 225.072 22.962 225.102 23.1147C225.376 26.6256 225.376 26.6256 221.876 26.6256C219.533 26.6256 217.22 26.6256 214.877 26.6256C214.329 26.6256 213.69 26.7782 213.69 25.8929C213.812 24.7938 213.812 23.6947 213.69 22.6262Z" fill="white"/>
<path d="M77.5739 10.3233C78.6998 9.04107 79.917 8.06413 81.682 7.94201C82.7775 7.88095 83.4166 8.06413 83.2949 9.40742C83.1731 10.7812 83.7209 12.4604 83.1123 13.4373C82.4428 14.4448 80.5865 13.8647 79.278 14.0174C77.9695 14.17 77.3304 14.5974 77.4826 16.0628C77.6347 17.4672 77.513 18.902 77.513 20.3369C77.513 21.3444 77.1478 22.5961 78.9432 22.3213C79.3084 22.2603 79.4606 22.5961 79.4301 22.9319C79.4301 23.9394 79.4301 24.9774 79.4301 25.9849C79.4301 26.6565 78.9737 26.6565 78.4868 26.6565C75.3524 26.6565 72.218 26.6565 69.0532 26.6565C68.4142 26.6565 68.1403 26.4428 68.1403 25.8017C68.1707 24.8858 68.1403 23.9699 68.1403 23.054C68.1403 22.6877 68.1098 22.3213 68.6576 22.3213C69.8444 22.3213 69.8748 21.497 69.8748 20.6422C69.8748 18.5968 69.8444 16.5818 69.8748 14.5364C69.8748 13.5899 69.8444 12.7656 68.5663 12.7962C68.0794 12.7962 68.0186 12.4604 68.0186 12.0635C68.0186 11.056 68.049 10.018 68.0186 9.01054C67.9881 8.30836 68.3229 8.15572 68.9315 8.15572C71.2138 8.18625 73.4961 8.18625 75.7784 8.15572C77.3 8.09466 77.0261 9.46848 77.5739 10.3233Z" fill="white"/>
<path d="M72.431 48.2414C72.431 50.0731 72.431 51.9049 72.431 53.7366C72.431 54.3167 72.4615 55.0799 73.0701 55.1105C74.5003 55.141 74.1656 56.0874 74.1656 56.8812C74.1656 59.5067 74.1656 59.5067 71.6094 59.5067C69.0836 59.5067 66.5579 59.4762 64.0017 59.5067C63.2105 59.5067 62.9062 59.293 62.967 58.4992C63.0279 57.7055 62.967 56.8812 62.967 56.0569C62.967 55.5379 63.0279 55.2021 63.6974 55.1715C64.5494 55.141 64.732 54.5609 64.732 53.7977C64.732 51.5691 64.7016 49.3404 64.732 47.0812C64.732 46.3485 64.5799 45.7074 63.7278 45.6464C62.9366 45.6158 62.8757 45.1884 62.8757 44.5473C62.754 41.0059 62.7236 41.0059 66.2536 41.0364C67.7142 41.0364 69.2054 41.0975 70.666 41.0059C71.9441 40.9143 72.4006 41.5554 72.4006 42.7155C72.4006 44.5778 72.4006 46.4096 72.431 48.2414C72.4006 48.2414 72.4006 48.2414 72.431 48.2414Z" fill="white"/>
<path d="M33.6925 81.1517C33.6925 82.9835 33.6925 84.8152 33.6925 86.647C33.6925 87.227 33.7838 87.746 34.362 88.0819C34.7271 88.2956 35.4879 87.8681 35.4879 88.723C35.4879 89.8831 35.5183 91.0737 35.427 92.2338C35.3966 92.6613 34.8184 92.4781 34.5141 92.4781C31.471 92.4781 28.4279 92.4475 25.4153 92.5086C24.5328 92.5086 24.2285 92.2338 24.3198 91.379C24.3806 90.6768 24.3502 89.9442 24.3198 89.242C24.2893 88.6314 24.3198 88.1734 25.1414 88.1124C25.8717 88.0819 26.1152 87.5018 26.1152 86.7996C26.1152 84.5099 26.1152 82.2202 26.1152 79.9305C26.1152 79.4115 26.0543 78.7399 25.4761 78.7094C23.8937 78.6483 24.2893 77.5492 24.2893 76.6639C24.2589 73.9773 24.2893 73.9773 26.9977 73.9773C28.7323 73.9773 30.4364 74.0384 32.1709 73.9773C33.2969 73.9468 33.7533 74.4352 33.7533 75.5038C33.6621 77.3966 33.6621 79.2589 33.6925 81.1517C33.6621 81.1517 33.6621 81.1517 33.6925 81.1517Z" fill="white"/>
<path d="M148.264 15.5122C148.264 17.2829 148.264 19.0842 148.264 20.8549C148.264 21.3739 148.234 22.1066 148.812 22.1371C150.394 22.1982 149.968 23.2972 149.999 24.1826C150.029 26.6249 149.999 26.6249 147.503 26.6249C144.977 26.6249 142.421 26.5944 139.895 26.6554C139.104 26.6554 138.8 26.4417 138.861 25.6174C138.922 24.9763 138.891 24.3047 138.861 23.633C138.861 22.9309 138.678 22.1982 139.835 22.2287C140.413 22.2287 140.595 21.6181 140.595 21.0686C140.626 18.7178 140.626 16.3976 140.595 14.0468C140.595 13.5278 140.413 12.8562 139.865 12.8562C138.587 12.8867 138.739 12.0624 138.709 11.2381C138.709 8.15467 138.678 8.15467 141.813 8.15467C143.273 8.15467 144.764 8.15467 146.225 8.15467C147.929 8.15467 148.234 8.42943 148.264 10.1696C148.294 11.9403 148.264 13.7415 148.264 15.5122Z" fill="white"/>
<path d="M115.825 81.152C117.134 81.152 118.442 81.1826 119.781 81.152C120.573 81.152 120.938 81.2131 120.816 82.2511C120.42 85.0293 119.477 87.7158 119.355 90.5245C119.294 91.8373 118.686 92.6311 117.043 92.4784C114.669 92.2952 112.295 92.3868 109.922 92.4479C108.887 92.4784 108.674 92.051 108.826 91.1962C109.404 88.1738 109.983 85.1209 110.53 82.0985C110.682 81.3047 111.078 81.1215 111.778 81.152C113.087 81.1826 114.456 81.152 115.825 81.152Z" fill="white"/>
<path d="M29.8588 73.2452C27.7287 73.2452 26.2984 71.9325 26.3288 69.9786C26.3593 68.0247 27.8199 66.6509 29.8892 66.6509C31.989 66.6509 33.4192 67.9942 33.4192 69.9786C33.3888 71.963 32.0194 73.2452 29.8588 73.2452Z" fill="white"/>
<path d="M68.5359 33.77C70.6661 33.7394 72.1267 35.0522 72.1572 37.0366C72.1876 38.8989 70.7574 40.2422 68.6881 40.3032C66.5275 40.3643 65.0363 39.0821 65.0059 37.1282C65.0059 35.1133 66.3753 33.8005 68.5359 33.77Z" fill="white"/>
<path d="M144.46 0.828635C146.53 0.859164 148.051 2.29404 147.99 4.18686C147.93 6.11021 146.408 7.4535 144.308 7.42297C142.269 7.36191 140.839 6.01862 140.87 4.1258C140.87 2.1414 142.33 0.798105 144.46 0.828635Z" fill="white"/>
</svg>
