<svg width="257" height="105" viewBox="0 0 257 105" fill="none" xmlns="http://www.w3.org/2000/svg">
<path d="M14.9586 60.4023L21.3638 42.5045C21.5922 41.8631 22.0447 41.5424 22.7213 41.5424H27.0442C27.5186 41.5424 27.8349 41.7621 27.9931 42.2014L31.7492 52.376C32.0216 53.1316 32.294 53.1316 32.5664 52.376L38.6157 35.5458C38.809 35.0098 39.1517 34.8824 39.6437 35.1636L48.2236 40.0795C48.6629 40.3255 48.8826 40.6945 48.8826 41.1866L48.8694 63.539C48.8689 63.7144 48.8223 63.8862 48.7342 64.0368C48.6462 64.1874 48.52 64.3112 48.3686 64.3957L28.9288 75.6246C28.551 75.8442 28.1732 75.8442 27.7954 75.6246L20.2963 71.1436C19.8657 70.8888 19.7383 70.5241 19.9141 70.0497L21.4956 65.8454C21.5344 65.7371 21.5972 65.639 21.6794 65.5581C21.7616 65.4773 21.8611 65.4157 21.9708 65.3779C22.0804 65.3401 22.1976 65.3269 22.3137 65.3394C22.4298 65.3519 22.542 65.3896 22.6422 65.45L27.8745 68.6395C28.0331 68.7388 28.2156 68.7925 28.4017 68.7949C28.5878 68.7972 28.7703 68.748 28.9288 68.6526L42.1874 60.8372C42.3547 60.7423 42.4932 60.6053 42.5883 60.4405C42.6835 60.2758 42.7316 60.0895 42.7277 59.9015L42.7014 44.2442C42.697 44.1732 42.6688 44.1058 42.6213 44.0528C42.5739 43.9998 42.51 43.9644 42.4399 43.9522C42.3698 43.94 42.2977 43.9518 42.2351 43.9856C42.1726 44.0195 42.1232 44.0734 42.0951 44.1388L35.8744 60.9953C35.5893 61.7763 35.0696 62.4494 34.3864 62.9225C33.7032 63.3956 32.8899 63.6456 32.0577 63.6384C31.2254 63.6312 30.4149 63.3671 29.7369 62.8822C29.0589 62.3973 28.5465 61.7153 28.2698 60.9295L25.2386 52.2837C24.9662 51.5193 24.6894 51.5149 24.4083 52.2705L18.2139 69.0217C18.0206 69.5488 17.6823 69.6718 17.1991 69.3907L8.80375 64.6329C8.35564 64.3781 8.13159 63.9959 8.13159 63.4863V41.1866C8.13159 40.6858 8.34686 40.3123 8.77739 40.0663L27.8876 29.0087C28.3094 28.7627 28.7267 28.7627 29.1397 29.0087L36.5861 33.4107C37.0078 33.6655 37.1352 34.0257 36.9683 34.4914L35.4 38.6957C35.1979 39.2404 34.8464 39.3678 34.3456 39.0779L29.0606 36.0993C28.6037 35.8357 28.1468 35.8401 27.69 36.1125L14.7872 43.7566C14.3743 43.9938 14.1678 44.354 14.1678 44.8373V60.2573C14.1677 60.353 14.2011 60.4457 14.2623 60.5192C14.3235 60.5928 14.4086 60.6425 14.5027 60.6598C14.5968 60.677 14.694 60.6607 14.7773 60.6136C14.8606 60.5666 14.9248 60.4918 14.9586 60.4023Z" fill="white"/>
<path d="M165.033 57.7397C165.121 56.0615 164.265 54.9457 162.463 54.3921C157.864 52.9819 147.676 51.1104 151.248 43.809C153.528 39.183 162.437 40.0924 166.351 42.0693C166.852 42.3241 166.962 42.6975 166.681 43.1896L166.154 44.1121C165.925 44.5075 165.609 44.5998 165.205 44.3889C162.292 42.926 156.744 41.8057 154.187 44.5734C152.381 46.5108 153.752 48.6854 155.874 49.4103C160.381 50.9391 169.62 52.4811 167.34 59.6376C165.337 65.9505 155.544 64.6194 151.3 61.9967C150.896 61.7507 150.813 61.4212 151.05 61.0082L151.445 60.3097C151.7 59.8792 152.043 59.7825 152.473 60.0198C155.32 61.6013 164.717 63.6705 165.033 57.7397Z" fill="#FCFCFC"/>
<path d="M245.705 46.4841C242.551 44.7971 239.774 44.4369 237.376 45.4034C227.794 49.265 234.832 64.9881 245.112 58.3193C245.525 58.0557 245.876 58.1172 246.166 58.5038L247.893 60.8366C248.148 61.1704 248.113 61.4692 247.788 61.7328C240.657 67.5713 229.929 63.0375 228.348 54.3918C226.265 42.9388 238.628 36.9685 247.682 42.5962C248.183 42.9037 248.253 43.2903 247.893 43.756L245.863 46.4446C245.845 46.4679 245.82 46.4846 245.791 46.4917C245.762 46.4989 245.732 46.4962 245.705 46.4841Z" fill="white"/>
<path d="M77.2582 56.9356V41.2916C77.2582 41.2345 77.2694 41.1779 77.2913 41.1251C77.3131 41.0724 77.3452 41.0244 77.3855 40.984C77.4259 40.9437 77.4739 40.9116 77.5266 40.8898C77.5794 40.8679 77.636 40.8567 77.6931 40.8567L79.4723 40.8303C79.5877 40.8303 79.6983 40.8761 79.7799 40.9577C79.8614 41.0392 79.9072 41.1499 79.9072 41.2652L79.8941 63.3804C79.895 63.4679 79.8695 63.5536 79.821 63.6264C79.7724 63.6992 79.703 63.7556 79.6219 63.7884C79.5408 63.8211 79.4517 63.8286 79.3662 63.8099C79.2807 63.7912 79.2029 63.7472 79.1428 63.6835L63.4065 47.196C63.3465 47.1324 63.2686 47.0883 63.1832 47.0696C63.0977 47.0509 63.0086 47.0584 62.9274 47.0911C62.8463 47.1239 62.7769 47.1803 62.7284 47.2531C62.6798 47.3259 62.6544 47.4116 62.6553 47.4991L62.6157 63.1827C62.6157 63.298 62.5699 63.4087 62.4884 63.4902C62.4068 63.5718 62.2962 63.6176 62.1808 63.6176L60.4016 63.5913C60.2863 63.5913 60.1756 63.5454 60.0941 63.4639C60.0125 63.3823 59.9667 63.2717 59.9667 63.1563L59.993 41.1466C59.9921 41.0591 60.0176 40.9734 60.0661 40.9006C60.1147 40.8278 60.1841 40.7714 60.2652 40.7386C60.3463 40.7059 60.4354 40.6984 60.5209 40.7171C60.6064 40.7358 60.6842 40.7798 60.7443 40.8435L76.5069 57.2388C76.567 57.3024 76.6448 57.3464 76.7303 57.3651C76.8158 57.3838 76.9049 57.3763 76.986 57.3436C77.0671 57.3109 77.1365 57.2544 77.1851 57.1816C77.2336 57.1088 77.2591 57.0231 77.2582 56.9356Z" fill="#FCFCFC"/>
<path d="M93.6008 54.0752V60.8099C93.6008 60.9288 93.648 61.0427 93.732 61.1268C93.816 61.2108 93.93 61.258 94.0489 61.258H107.242C107.36 61.258 107.474 61.3052 107.558 61.3893C107.642 61.4733 107.69 61.5873 107.69 61.7061L107.703 63.1559C107.703 63.2747 107.656 63.3887 107.572 63.4727C107.488 63.5568 107.374 63.604 107.255 63.604H91.492C91.3732 63.604 91.2592 63.5568 91.1752 63.4727C91.0911 63.3887 91.0439 63.2747 91.0439 63.1559L91.0571 41.3438C91.0571 41.285 91.0687 41.2267 91.0912 41.1723C91.1138 41.118 91.1468 41.0686 91.1884 41.027C91.23 40.9854 91.2794 40.9523 91.3337 40.9298C91.3881 40.9073 91.4464 40.8957 91.5052 40.8957L107.215 40.8694C107.332 40.8657 107.445 40.9078 107.531 40.9865C107.618 41.0653 107.67 41.1746 107.676 41.2911L107.742 42.9517C107.746 43.0127 107.737 43.0739 107.716 43.1313C107.695 43.1887 107.663 43.2413 107.621 43.2858C107.579 43.3302 107.528 43.3656 107.472 43.3897C107.416 43.4139 107.355 43.4263 107.294 43.4262L94.0489 43.413C93.93 43.413 93.816 43.4602 93.732 43.5442C93.648 43.6283 93.6008 43.7423 93.6008 43.8611V50.8989C93.6008 51.0178 93.648 51.1318 93.732 51.2158C93.816 51.2998 93.93 51.347 94.0489 51.347H105.634C105.748 51.3469 105.858 51.3904 105.942 51.4688C106.025 51.5473 106.075 51.6546 106.082 51.7688L106.148 53.1395C106.151 53.2005 106.142 53.2616 106.121 53.319C106.1 53.3765 106.068 53.4291 106.026 53.4735C105.984 53.5179 105.933 53.5533 105.877 53.5775C105.821 53.6016 105.761 53.614 105.7 53.6139L94.0489 53.6271C93.99 53.6271 93.9318 53.6387 93.8774 53.6612C93.823 53.6837 93.7736 53.7167 93.732 53.7583C93.6904 53.8 93.6574 53.8494 93.6349 53.9037C93.6124 53.9581 93.6008 54.0164 93.6008 54.0752Z" fill="#FCFCFC"/>
<path d="M123.347 57.9376L127.96 41.7664C128.041 41.4899 128.211 41.2474 128.442 41.0754C128.674 40.9034 128.955 40.8113 129.243 40.8127C129.531 40.8142 129.811 40.9093 130.041 41.0837C130.271 41.258 130.437 41.5023 130.516 41.7796L134.931 58.0035C135.125 58.7064 135.349 58.7152 135.604 58.0299C137.581 52.6527 139.373 47.2579 140.981 41.8455C141.297 40.7736 142.132 40.4968 143.485 41.0152C143.801 41.147 143.907 41.3754 143.801 41.7005L136.605 62.7482C136.493 63.0696 136.281 63.3468 136 63.5391C135.719 63.7315 135.384 63.8289 135.044 63.8171C134.704 63.8053 134.376 63.685 134.11 63.4736C133.843 63.2623 133.65 62.9712 133.561 62.6427L129.528 47.7894C129.317 47.0162 129.102 47.0119 128.882 47.7763L124.467 62.9063C124.385 63.1849 124.217 63.4304 123.987 63.6074C123.757 63.7844 123.476 63.8837 123.186 63.891C122.896 63.8984 122.611 63.8133 122.372 63.6482C122.133 63.4831 121.953 63.2464 121.857 62.9722L114.49 41.6346C114.367 41.2656 114.49 41.0284 114.859 40.9229C115.501 40.7384 116.063 40.7736 116.546 41.0284C116.898 41.2217 117.166 41.6039 117.35 42.175C119.037 47.4995 120.873 52.7625 122.859 57.964C123.044 58.456 123.206 58.4473 123.347 57.9376Z" fill="#FCFCFC"/>
<path d="M193.251 52.2434C199.168 55.9205 196.427 62.4048 190.364 63.4592C188.528 63.7755 184.113 63.7931 177.119 63.5119C176.715 63.4943 176.517 63.2879 176.526 62.8925L176.539 59.1495C176.548 58.6399 176.298 58.3851 175.788 58.3851L174.655 58.3983C174.18 58.3983 173.938 58.161 173.93 57.6866L173.917 55.7228C173.917 55.2747 174.141 55.0507 174.589 55.0507H175.735C176.271 55.0507 176.539 54.7827 176.539 54.2467L176.526 41.5417C176.526 41.12 176.741 40.9003 177.172 40.8827C183.01 40.7509 195.979 38.7213 195.794 47.7229C195.759 49.3659 194.929 50.5653 193.304 51.3209C192.724 51.5933 192.706 51.9008 193.251 52.2434ZM180.968 45.3506V49.937C180.968 50.0063 180.981 50.0748 181.008 50.1388C181.034 50.2027 181.073 50.2609 181.122 50.3098C181.171 50.3588 181.229 50.3976 181.293 50.4241C181.357 50.4506 181.425 50.4642 181.495 50.4642H187.61C188.449 50.4642 189.253 50.1907 189.847 49.7038C190.44 49.2168 190.773 48.5565 190.773 47.8679V47.4198C190.773 46.7312 190.44 46.0708 189.847 45.5838C189.253 45.0969 188.449 44.8234 187.61 44.8234H181.495C181.425 44.8234 181.357 44.837 181.293 44.8635C181.229 44.89 181.171 44.9289 181.122 44.9778C181.073 45.0268 181.034 45.0849 181.008 45.1488C180.981 45.2128 180.968 45.2813 180.968 45.3506ZM182.971 58.3851L180.888 58.8068C180.777 58.8173 180.673 58.8718 180.602 58.9583C180.53 59.0448 180.496 59.1563 180.506 59.2681C180.517 59.38 180.571 59.4831 180.658 59.5548C180.744 59.6264 180.856 59.6608 180.968 59.6503L188.743 59.6767C189.181 59.6793 189.612 59.5763 190.001 59.3764C190.39 59.1765 190.725 58.8856 190.977 58.5284C191.23 58.1712 191.392 57.7584 191.451 57.325C191.509 56.8916 191.462 56.4504 191.313 56.0391C190.154 52.8629 183.801 53.5482 181.047 53.825C180.946 53.8321 180.852 53.875 180.781 53.9462C180.711 54.0173 180.669 54.112 180.663 54.2133C180.656 54.3147 180.686 54.4161 180.747 54.4994C180.808 54.5828 180.895 54.6427 180.994 54.6685L182.852 55.1429C183.318 55.2572 183.546 55.5515 183.538 56.026L183.524 57.7129C183.524 58.0907 183.34 58.3148 182.971 58.3851Z" fill="white"/>
<path d="M214.852 45.2848V63.1693C214.852 63.2299 214.84 63.2899 214.817 63.3458C214.794 63.4018 214.76 63.4527 214.717 63.4955C214.674 63.5383 214.623 63.5723 214.567 63.5955C214.511 63.6187 214.451 63.6306 214.391 63.6306H210.78C210.657 63.6306 210.54 63.582 210.453 63.4955C210.367 63.409 210.318 63.2917 210.318 63.1693L210.345 45.2848C210.345 45.1624 210.296 45.0451 210.209 44.9586C210.123 44.8721 210.006 44.8235 209.883 44.8235H203.373C203.25 44.8235 203.133 44.7749 203.046 44.6884C202.96 44.6019 202.911 44.4845 202.911 44.3622L202.898 41.3309C202.898 41.2086 202.947 41.0912 203.033 41.0047C203.12 40.9182 203.237 40.8696 203.359 40.8696L221.653 40.8564C221.773 40.8564 221.888 40.9032 221.974 40.9869C222.06 41.0705 222.11 41.1845 222.114 41.3045L222.206 44.349C222.208 44.4107 222.197 44.4721 222.175 44.5296C222.152 44.5871 222.119 44.6395 222.076 44.6837C222.033 44.728 221.981 44.7631 221.924 44.7871C221.868 44.8111 221.807 44.8235 221.745 44.8235H215.313C215.191 44.8235 215.074 44.8721 214.987 44.9586C214.901 45.0451 214.852 45.1624 214.852 45.2848Z" fill="white"/>
</svg>
