<svg width="19" height="19" viewBox="0 0 19 19" fill="none" xmlns="http://www.w3.org/2000/svg">
<g clip-path="url(#clip0_4536_41417)">
<path d="M18.4531 7.58197C18.3352 7.21749 18.012 6.95862 17.6295 6.92415L12.4342 6.45241L10.3798 1.64398C10.2284 1.29159 9.88339 1.06348 9.50009 1.06348C9.11679 1.06348 8.77182 1.29159 8.62034 1.64481L6.56598 6.45241L1.36986 6.92415C0.988078 6.95944 0.665621 7.21749 0.547103 7.58197C0.428585 7.94645 0.538039 8.34623 0.826849 8.59823L4.75388 12.0423L3.59589 17.1432C3.51115 17.5183 3.65672 17.9059 3.96792 18.1309C4.13519 18.2518 4.33089 18.3133 4.52824 18.3133C4.69839 18.3133 4.86717 18.2674 5.01865 18.1768L9.50009 15.4984L13.9799 18.1768C14.3077 18.374 14.7209 18.356 15.0314 18.1309C15.3428 17.9053 15.4882 17.5174 15.4035 17.1432L14.2455 12.0423L18.1725 8.59892C18.4613 8.34623 18.5716 7.94714 18.4531 7.58197Z" fill="#FFCA43"/>
</g>
<defs>
<clipPath id="clip0_4536_41417">
<rect width="18" height="18" fill="white" transform="translate(0.5 0.677246)"/>
</clipPath>
</defs>
</svg>
