<svg width="207" height="41" viewBox="0 0 207 41" fill="none" xmlns="http://www.w3.org/2000/svg">
<g id="Frame 1000004386">
<path id="Vector" d="M147.358 13.7858C147.718 13.559 147.947 13.4669 148.11 13.3086C153.761 7.78979 163.134 10.2186 166.892 16.2938C171.154 23.1821 169.451 32.219 162.862 36.5887C159.038 39.1245 154.947 39.4626 150.78 37.4789C149.881 37.0509 149.158 36.2335 148.396 35.5487C148.18 35.354 148.114 34.988 147.979 34.7013C147.827 34.804 147.675 34.9046 147.521 35.0073C147.491 35.5551 147.416 36.1051 147.438 36.6507C147.472 37.466 147.121 37.8298 146.314 37.8277C144.709 37.8234 143.104 37.8148 141.502 37.8576C140.669 37.879 140.361 37.5281 140.355 36.7171C140.329 33.7212 140.23 30.7275 140.23 27.7316C140.228 18.9858 140.271 10.24 140.258 1.49629C140.258 0.541891 140.504 0.156691 141.521 0.197391C143.087 0.261591 144.66 0.22299 146.226 0.15029C147.087 0.10959 147.352 0.441292 147.35 1.25879C147.333 5.03779 147.35 8.81909 147.356 12.5982C147.356 12.9427 147.356 13.2851 147.356 13.7901L147.358 13.7858ZM154.857 31.9579C159.406 31.7931 162.492 28.4527 162.331 23.8669C162.207 20.2825 158.901 16.5848 154.442 16.8073C150.106 17.0235 147.371 20.1841 147.391 24.7978C147.403 27.9862 150.705 32.5036 154.859 31.9579H154.857Z" fill="white"/>
<path id="Vector_2" d="M87.5539 38.1916C80.1459 38.2644 73.5339 31.7141 73.4289 24.2352C73.3219 16.448 79.2639 9.66663 87.6079 9.65383C95.0549 9.64313 101.676 14.7682 101.92 23.4883C102.176 32.6493 95.0159 38.0418 87.5539 38.1916ZM87.6359 16.4587C83.3619 16.4673 80.4329 19.5616 80.4539 24.0404C80.4729 28.1084 83.7559 31.3439 87.9269 31.3696C90.8139 31.3867 95.0529 28.5792 95.0269 23.9462C95.0029 19.6857 91.8299 16.4523 87.6359 16.4608V16.4587Z" fill="white"/>
<path id="Vector_3" d="M134.303 23.8711C134.363 32.2553 127.344 38.3091 119.799 38.1251C112.486 37.9475 105.887 32.6811 105.808 24.0145C105.737 16.4991 110.965 9.76272 119.921 9.66212C127.408 9.57652 134.168 15.0483 134.303 23.8711ZM120.01 31.2752C123.969 31.2602 127.423 27.9862 127.444 24.2264C127.47 19.8203 124.228 16.4713 119.936 16.4692C115.887 16.4692 112.793 19.6726 112.737 23.7791C112.681 27.9134 116.332 31.5748 120.008 31.2774L120.01 31.2752Z" fill="white"/>
<path id="Vector_4" d="M57.3688 7.34883C54.3473 7.34883 51.4306 7.30183 48.516 7.37453C47.4974 7.40023 47.2256 7.05573 47.2599 6.10343C47.3198 4.46643 47.3134 2.82293 47.2706 1.18373C47.2492 0.421932 47.5316 0.199432 48.2635 0.201532C56.8552 0.218732 65.447 0.223031 74.037 0.190931C74.903 0.188731 75.13 0.471232 75.102 1.29503C75.047 2.96843 75.049 4.64833 75.113 6.31953C75.143 7.10273 74.865 7.29963 74.137 7.29113C71.535 7.26543 68.929 7.36173 66.331 7.25903C65.19 7.21403 64.957 7.60563 64.961 8.62853C64.998 17.6118 64.993 26.5973 65.004 35.5807C65.004 36.0793 65.002 36.58 65.025 37.0786C65.053 37.6735 64.779 37.9068 64.195 37.9025C62.235 37.8854 60.2727 37.8661 58.3147 37.9003C57.5357 37.9132 57.3389 37.5451 57.3431 36.8603C57.3517 34.4016 57.3239 31.9407 57.3303 29.4798C57.3517 22.386 57.3838 15.2922 57.4095 8.19623C57.4095 7.95013 57.3859 7.70413 57.3688 7.34673V7.34883Z" fill="white"/>
<path id="Vector_5" d="M206.523 10.9976C206.523 13.1525 206.551 15.1063 206.482 17.0579C206.474 17.274 205.926 17.6356 205.618 17.6485C204.231 17.702 202.838 17.6784 201.449 17.6292C200.73 17.6035 200.426 17.8261 200.437 18.5922C200.486 21.9433 200.458 25.2944 200.525 28.6433C200.563 30.6142 201.575 31.5665 203.52 31.6414C203.841 31.6542 204.162 31.6542 204.483 31.6499C205.802 31.6356 206.476 32.3111 206.506 33.6764C206.529 34.817 206.591 35.9597 206.531 37.096C206.514 37.4127 206.15 37.9477 205.896 37.9776C203.018 38.3243 200.154 38.5233 197.465 37.0039C195.25 35.7542 193.842 33.9524 193.7 31.4102C193.495 27.7125 193.463 24.0062 193.367 20.302C193.343 19.4246 193.362 18.5472 193.362 17.6634C192.07 17.6634 190.974 17.6527 189.879 17.6677C189.155 17.6784 188.862 17.351 188.875 16.6299C188.903 14.9907 188.911 13.3494 188.879 11.7124C188.864 11.019 189.155 10.8692 189.782 10.912C190.634 10.9698 191.496 10.8928 192.346 10.9613C193.174 11.0276 193.358 10.698 193.347 9.9148C193.313 7.0645 193.377 4.212 193.354 1.3616C193.347 0.559199 193.529 0.212499 194.426 0.240299C196.026 0.291699 197.634 0.250999 199.234 0.163299C200.124 0.114099 200.437 0.415798 200.437 1.3017C200.437 4.3318 200.495 7.3619 200.533 10.3899C200.533 10.5268 200.57 10.6638 200.619 10.9976H206.525H206.523Z" fill="white"/>
<path id="Vector_6" d="M182.785 24.4961C182.785 28.5213 182.757 32.5486 182.804 36.5737C182.817 37.603 182.504 37.9518 181.462 37.8855C180.114 37.7978 178.755 37.8684 177.403 37.877C175.657 37.8877 175.65 37.8898 175.646 36.0923C175.642 33.7405 175.646 31.3887 175.652 29.037C175.672 23.3726 175.714 17.7062 175.695 12.0418C175.691 11.1195 175.997 10.8884 176.866 10.9226C178.466 10.9868 180.071 10.9526 181.674 10.9462C182.459 10.944 182.787 11.2329 182.778 12.0932C182.736 16.2254 182.759 20.3596 182.759 24.4918H182.785V24.4961Z" fill="white"/>
<path id="Vector_7" d="M179.164 8.13648C177.118 8.15148 175.192 6.24478 175.175 4.18838C175.16 2.28598 177.125 0.238079 179.003 0.193179C180.914 0.146079 183.091 2.19608 183.133 4.08348C183.183 6.22768 181.327 8.12368 179.164 8.13858V8.13648Z" fill="white"/>
<path id="Subtract" fill-rule="evenodd" clip-rule="evenodd" d="M40.8698 20.7134C41.0489 9.08348 31.5283 -0.147221 20.2712 0.0017787L20.272 0.000977617C9.4222 0.0186776 -0.00289866 8.90508 6.68738e-07 20.4954C0.00220134 31.3334 8.7331 40.7505 20.2514 40.8268C31.6876 40.9024 40.698 31.908 40.8698 20.7134ZM20.447 35.3935C20.4469 35.3937 20.4467 35.394 20.4466 35.3942C20.33 35.216 20.2239 35.0437 20.1218 34.878C19.9099 34.5339 19.7154 34.218 19.48 33.9366C18.799 33.1227 18.0841 32.3352 17.3538 31.5653C16.1113 30.2545 15.0258 28.8307 14.1341 27.26C14.0465 27.1058 13.9574 26.9832 13.7934 26.9625C13.7516 26.9573 13.7049 26.9588 13.6521 26.968C13.2651 27.0352 12.8878 27.0572 12.5194 27.0398C12.4799 27.038 12.4406 27.0357 12.4014 27.0329C11.3419 26.9587 10.3563 26.5602 9.4296 25.9764C6.9819 24.4351 5.8656 22.135 6.157 19.3138C6.4271 16.7017 7.8391 14.7502 10.2934 13.6302C11.2529 13.1924 12.2421 12.9959 13.2848 13.0334C13.3454 13.0356 13.4061 13.0386 13.4671 13.0423C13.4706 13.0425 13.4742 13.0427 13.4778 13.0427C13.6122 13.045 13.8101 12.9525 13.8743 12.8449C14.4086 11.9502 15.1829 11.3058 16.0262 10.7341C16.421 10.4662 16.4584 10.4361 16.134 10.0794C15.853 9.77105 15.5517 9.48143 15.2502 9.19174C15.147 9.09254 15.0438 8.99334 14.9414 8.89338C14.8967 8.84973 14.8477 8.81054 14.7987 8.77135C14.7521 8.73405 14.7055 8.69674 14.6625 8.65558C14.2633 8.27028 14.2119 7.92748 14.4871 7.51948C14.6713 7.24616 14.9274 7.09307 15.2144 7.09794C15.3509 7.10005 15.4944 7.13791 15.6403 7.2156C15.9911 7.402 16.3331 7.6376 16.6127 7.918C16.8904 8.19647 17.1487 8.4938 17.4072 8.79129C17.6052 9.01909 17.8032 9.24699 18.0101 9.4666C18.0501 9.50913 18.1109 9.54632 18.1775 9.57269C18.2647 9.60708 18.3618 9.62311 18.4357 9.60818C19.4991 9.39369 20.5558 9.33042 21.605 9.48558C21.9884 9.54217 22.3707 9.62794 22.7521 9.7462C22.8823 9.78661 22.9744 9.78025 23.0557 9.73642C23.1263 9.6983 23.1886 9.63183 23.2605 9.54288C23.8279 8.84418 24.4179 8.16238 25.03 7.50258C25.1959 7.32418 25.4579 7.21778 25.695 7.12678C25.8458 7.06882 25.9935 7.04499 26.1299 7.05139C26.4067 7.06411 26.6374 7.2012 26.755 7.4299C27.0463 7.9965 26.9443 8.274 26.515 8.6769C26.0712 9.09313 25.6595 9.54327 25.2476 9.99357C25.088 10.1681 24.9283 10.3427 24.7667 10.5154C24.7465 10.5365 24.7363 10.5669 24.7246 10.6014C24.7189 10.6184 24.7128 10.6364 24.7051 10.6548C25.5469 11.3029 26.3285 11.995 26.9304 12.872C26.9509 12.902 26.9819 12.9296 27.0191 12.9538C27.1206 13.0192 27.2678 13.059 27.3728 13.0489C27.5777 13.0288 27.7847 13.0215 27.9928 13.0263C30.5328 13.0854 33.2389 14.9586 34.2925 17.4789C35.5827 20.5666 34.1897 23.5728 32.473 25.0972C31.0147 26.3926 29.2848 27.0443 27.2973 26.9107C27.2952 26.9106 27.2931 26.9104 27.291 26.9103C27.1328 26.9029 26.884 26.9967 26.821 27.1169C25.85 28.965 24.4952 30.5129 23.1 32.0438C22.4741 32.7309 21.9051 33.4697 21.3362 34.2085C21.0859 34.5335 20.8356 34.8585 20.5804 35.1792C20.5567 35.2088 20.5375 35.2418 20.5101 35.289C20.4933 35.3179 20.4734 35.3521 20.4475 35.3942C20.4473 35.394 20.4472 35.3937 20.447 35.3935Z" fill="white"/>
<path id="Vector_8" d="M18.0957 21.3666C17.8675 21.6323 17.6634 21.887 17.4418 22.1241C16.669 22.9512 15.7978 23.6572 14.7776 24.1578C13.4426 24.8125 12.1604 24.6363 10.8988 23.9075C8.77699 22.6804 8.04528 19.7109 9.57618 17.6272C10.9083 15.8137 13.1696 15.137 15.2899 16.3583C16.84 17.2507 17.9365 18.577 18.8421 20.0778C19.7522 21.5868 20.652 23.1097 21.9562 24.3163C22.6498 24.9578 23.452 25.4847 24.227 26.033C24.4582 26.1966 24.5499 26.2913 24.3848 26.5687C23.554 27.964 22.6035 29.2483 21.2693 30.2149C20.685 30.6384 20.1757 30.6854 19.5834 30.2736C18.1948 29.3078 17.2246 27.9896 16.4319 26.5203C16.3101 26.2943 16.4414 26.2121 16.586 26.113C17.1086 25.7548 17.6627 25.4334 18.1464 25.0282C18.6484 24.6069 19.0887 24.1101 19.5394 23.6308C19.5959 23.5706 19.5944 23.3805 19.5416 23.3064C19.0939 22.6848 18.6278 22.0756 18.0957 21.3666Z" fill="white"/>
<path id="Vector_9" d="M27.5761 15.6602C30.1845 15.7109 32.3078 17.818 32.0296 20.4756C31.7434 23.2109 29.408 24.5173 27.5101 24.4858C26.7754 24.4733 26.1296 24.1959 25.5153 23.8304C24.04 22.9519 22.9656 21.6822 22.0628 20.2517C22.0019 20.1549 22.0004 19.956 22.0592 19.8576C23.0037 18.2951 24.2213 16.9923 25.8308 16.1079C26.382 15.8048 26.9992 15.6088 27.5761 15.6602Z" fill="white"/>
<path id="Vector_10" d="M20.4225 17.6133C20.2985 17.4189 20.2207 17.2867 20.1334 17.1612C19.191 15.8093 18.1723 14.5367 16.6538 13.7778C16.4806 13.6912 16.3808 13.5943 16.5811 13.4321C17.0075 13.0864 17.4046 12.6923 17.867 12.4046C19.1242 11.6215 20.4886 11.5489 21.8933 11.9254C22.8225 12.1742 23.5197 12.7921 24.2052 13.4219C24.3637 13.5672 24.3872 13.7213 24.1619 13.8233C22.6221 14.5213 21.6702 15.8189 20.755 17.1554C20.6669 17.2845 20.5722 17.4078 20.4225 17.6133Z" fill="white"/>
</g>
</svg>
