<svg width="213" height="59" viewBox="0 0 213 59" fill="none" xmlns="http://www.w3.org/2000/svg">
<g clip-path="url(#clip0_972_3350)">
<path d="M0 14.3237H12.6232L19.9732 33.1287L27.4173 14.3237H39.7062L21.1998 58.8391H8.83298L13.8985 47.0434L0 14.3237Z" fill="white"/>
<path d="M52.5112 13.5742C43.0259 13.5742 37.0323 22.0794 37.0323 30.549C37.0323 40.0796 43.6068 47.6373 52.3327 47.6373C58.8422 47.6373 61.2955 43.6719 61.2955 43.6719V46.7612H72.3059V14.3238H61.2955V17.2736C61.2955 17.2736 58.5567 13.5742 52.5112 13.5742ZM54.8541 24.0005C59.2316 24.0005 61.4869 27.463 61.4869 30.5879C61.4869 33.953 59.0661 37.2532 54.8541 37.2532C51.3624 37.2532 48.205 34.3976 48.205 30.7307C48.205 27.0638 50.7426 24.0005 54.8541 24.0005Z" fill="white"/>
<path d="M76.0959 46.7642V0H87.6126V17.3869C87.6126 17.3869 90.3481 13.5805 96.0756 13.5805C103.082 13.5805 107.19 18.8017 107.19 26.2621V46.7642H95.7576V29.069C95.7576 26.5444 94.5537 24.1041 91.8311 24.1041C89.1085 24.1041 87.6126 26.5801 87.6126 29.069V46.7642H76.0959Z" fill="white"/>
<path d="M126.822 13.5806C115.961 13.5806 109.494 21.8392 109.494 30.6884C109.494 40.7577 117.324 47.6404 126.864 47.6404C136.405 47.6404 144.199 41.0692 144.199 30.8571C144.199 19.6812 135.73 13.5806 126.822 13.5806ZM126.926 24.0977C130.762 24.0977 133.416 27.2941 133.416 30.7014C133.416 33.6089 130.943 37.1914 126.926 37.1914C123.246 37.1914 120.481 34.2384 120.481 30.6689C120.481 27.0994 122.779 24.0977 126.926 24.0977Z" fill="white"/>
<path d="M163.381 13.5806C152.52 13.5806 146.052 21.8392 146.052 30.6884C146.052 40.7577 153.883 47.6404 163.423 47.6404C172.963 47.6404 180.758 41.0692 180.758 30.8571C180.758 19.6812 172.288 13.5806 163.381 13.5806ZM163.485 24.0977C167.32 24.0977 169.975 27.2941 169.975 30.7014C169.975 33.6089 167.502 37.1914 163.485 37.1914C159.805 37.1914 157.04 34.2384 157.04 30.6689C157.04 27.0994 159.338 24.0977 163.485 24.0977Z" fill="white"/>
<path d="M189.847 32.1582C194.069 32.1582 197.493 35.5817 197.493 39.8035C197.493 44.0253 194.069 47.4488 189.847 47.4488C185.626 47.4488 182.202 44.0253 182.202 39.8035C182.202 35.5817 185.626 32.1582 189.847 32.1582Z" fill="white"/>
<path d="M200.004 29.3513H186.239L198.456 0H212.17L200.004 29.3513Z" fill="white"/>
</g>
<defs>
<clipPath id="clip0_972_3350">
<rect width="212.17" height="58.8389" fill="white"/>
</clipPath>
</defs>
</svg>
