<?xml version="1.0" encoding="UTF-8"?>
<!DOCTYPE svg PUBLIC "-//W3C//DTD SVG 1.1//EN" "http://www.w3.org/Graphics/SVG/1.1/DTD/svg11.dtd">
<svg xmlns="http://www.w3.org/2000/svg" version="1.1" width="39px" height="38px" style="shape-rendering:geometricPrecision; text-rendering:geometricPrecision; image-rendering:optimizeQuality; fill-rule:evenodd; clip-rule:evenodd" xmlns:xlink="http://www.w3.org/1999/xlink">
<g><path style="opacity:0.878" fill="#2d2d2d" d="M 8.5,2.5 C 9.91866,1.54885 11.5853,1.21552 13.5,1.5C 14.0312,3.62373 15.3645,5.12373 17.5,6C 17.1667,6.33333 16.8333,6.66667 16.5,7C 20.1592,10.6729 24.3259,13.5062 29,15.5C 30.0698,15.472 30.9032,15.1386 31.5,14.5C 33.5786,14.0293 35.5786,13.3627 37.5,12.5C 37.8333,12.5 38.1667,12.5 38.5,12.5C 38.5,13.1667 38.5,13.8333 38.5,14.5C 38.1667,14.5 37.8333,14.5 37.5,14.5C 35.233,15.4231 32.8997,16.2564 30.5,17C 28.9479,19.9432 27.2812,22.7765 25.5,25.5C 20.991,28.1875 20.3243,27.1875 23.5,22.5C 24.1667,22.5 24.5,22.1667 24.5,21.5C 25.0283,20.2794 25.695,19.1127 26.5,18C 24.6038,15.932 22.6038,14.0987 20.5,12.5C 19.3285,11.6554 17.9952,10.9887 16.5,10.5C 14.712,6.89617 12.0453,4.2295 8.5,2.5 Z"/></g>
<g><path style="opacity:0.989" fill="#bbbbbb" d="M 26.5,4.5 C 30.7066,6.43544 34.3733,9.10211 37.5,12.5C 35.5786,13.3627 33.5786,14.0293 31.5,14.5C 27.3465,13.0292 24.0132,10.3626 21.5,6.5C 23.0217,5.43795 24.6883,4.77128 26.5,4.5 Z"/></g>
<g><path style="opacity:0.975" fill="#474747" d="M 7.5,4.5 C 9.56659,4.53234 10.8999,5.53234 11.5,7.5C 10.272,11.2804 8.93862,14.947 7.5,18.5C 4.73438,19.247 3.06772,17.9137 2.5,14.5C 3.7911,10.9476 5.45777,7.61422 7.5,4.5 Z"/></g>
<g><path style="opacity:0.225" fill="#6e6e6e" d="M 26.5,4.5 C 24.6883,4.77128 23.0217,5.43795 21.5,6.5C 24.0132,10.3626 27.3465,13.0292 31.5,14.5C 30.9032,15.1386 30.0698,15.472 29,15.5C 24.3259,13.5062 20.1592,10.6729 16.5,7C 16.8333,6.66667 17.1667,6.33333 17.5,6C 15.3645,5.12373 14.0312,3.62373 13.5,1.5C 16.4686,0.671315 19.4686,0.504648 22.5,1C 24.3237,1.65999 25.657,2.82665 26.5,4.5 Z"/></g>
<g><path style="opacity:0.102" fill="#a2a2a2" d="M 20.5,12.5 C 22.6038,14.0987 24.6038,15.932 26.5,18C 25.695,19.1127 25.0283,20.2794 24.5,21.5C 20.8197,21.4916 18.1531,19.8249 16.5,16.5C 16.5454,13.8105 17.8787,12.4772 20.5,12.5 Z"/></g>
<g><path style="opacity:0.879" fill="#a6a6a6" d="M 37.5,14.5 C 35.9998,18.173 33.9998,21.5063 31.5,24.5C 29.742,24.8769 28.0754,25.5435 26.5,26.5C 25.8933,26.3764 25.56,26.0431 25.5,25.5C 27.2812,22.7765 28.9479,19.9432 30.5,17C 32.8997,16.2564 35.233,15.4231 37.5,14.5 Z"/></g>
<g><path style="opacity:0.396" fill="#868686" d="M 16.5,10.5 C 17.9952,10.9887 19.3285,11.6554 20.5,12.5C 17.8787,12.4772 16.5454,13.8105 16.5,16.5C 18.1531,19.8249 20.8197,21.4916 24.5,21.5C 24.5,22.1667 24.1667,22.5 23.5,22.5C 20.1317,24.0746 18.7983,26.5746 19.5,30C 18.0944,31.978 17.0944,34.1447 16.5,36.5C 16.1667,36.5 15.8333,36.5 15.5,36.5C 15.4431,35.391 15.1098,34.391 14.5,33.5C 15.2891,33.2172 15.9558,32.7172 16.5,32C 15.2539,29.4066 13.9206,26.9066 12.5,24.5C 15.6487,22.5743 16.3153,19.9076 14.5,16.5C 15.1776,14.484 15.8443,12.484 16.5,10.5 Z"/></g>
<g><path style="opacity:1" fill="#9f9f9f" d="M 2.5,14.5 C 3.06772,17.9137 4.73438,19.247 7.5,18.5C 7.5,18.8333 7.5,19.1667 7.5,19.5C 6.79105,20.404 5.79105,20.7373 4.5,20.5C 4.77089,22.3797 4.10422,23.713 2.5,24.5C 1.5,23.8333 0.5,23.1667 -0.5,22.5C -0.5,21.5 -0.5,20.5 -0.5,19.5C 0.687286,17.9275 1.68729,16.2608 2.5,14.5 Z"/></g>
<g><path style="opacity:0.12" fill="#888888" d="M 8.5,2.5 C 12.0453,4.2295 14.712,6.89617 16.5,10.5C 15.8443,12.484 15.1776,14.484 14.5,16.5C 16.3153,19.9076 15.6487,22.5743 12.5,24.5C 12.5,23.8333 12.1667,23.5 11.5,23.5C 10.674,21.7356 9.34068,20.4023 7.5,19.5C 7.5,19.1667 7.5,18.8333 7.5,18.5C 8.93862,14.947 10.272,11.2804 11.5,7.5C 10.8999,5.53234 9.56659,4.53234 7.5,4.5C 7.32842,3.50838 7.66175,2.84171 8.5,2.5 Z"/></g>
<g><path style="opacity:1" fill="#898989" d="M 11.5,23.5 C 12.1667,23.5 12.5,23.8333 12.5,24.5C 13.9206,26.9066 15.2539,29.4066 16.5,32C 15.9558,32.7172 15.2891,33.2172 14.5,33.5C 11.4943,30.8269 8.49428,28.1602 5.5,25.5C 6.79451,22.5131 8.79451,21.8464 11.5,23.5 Z"/></g>
<g><path style="opacity:0.008" fill="#686868" d="M 7.5,19.5 C 9.34068,20.4023 10.674,21.7356 11.5,23.5C 8.79451,21.8464 6.79451,22.5131 5.5,25.5C 8.49428,28.1602 11.4943,30.8269 14.5,33.5C 15.1098,34.391 15.4431,35.391 15.5,36.5C 11.1407,32.4718 6.80732,28.4718 2.5,24.5C 4.10422,23.713 4.77089,22.3797 4.5,20.5C 5.79105,20.7373 6.79105,20.404 7.5,19.5 Z"/></g>
<g><path style="opacity:0.618" fill="#515151" d="M 23.5,22.5 C 20.3243,27.1875 20.991,28.1875 25.5,25.5C 25.56,26.0431 25.8933,26.3764 26.5,26.5C 28.0754,25.5435 29.742,24.8769 31.5,24.5C 30.5652,26.8614 29.2318,29.0281 27.5,31C 23.8068,32.8466 20.1401,34.6799 16.5,36.5C 17.0944,34.1447 18.0944,31.978 19.5,30C 18.7983,26.5746 20.1317,24.0746 23.5,22.5 Z"/></g>
</svg>
