<svg width="90" height="90" viewBox="0 0 90 90" fill="none" xmlns="http://www.w3.org/2000/svg">
<path d="M45 4.62524C22.736 4.62524 4.625 22.7362 4.625 45.0002C4.625 67.2643 22.736 85.3752 45 85.3752C67.264 85.3752 85.375 67.2643 85.375 45.0002C85.375 22.7362 67.264 4.62524 45 4.62524ZM45 77.7502C26.9428 77.7502 12.25 63.0588 12.25 45.0002C12.25 26.9417 26.9428 12.2502 45 12.2502C63.0572 12.2502 77.75 26.9417 77.75 45.0002C77.75 63.0588 63.0572 77.7502 45 77.7502Z" fill="#1D44FF" stroke="#1D44FF" stroke-width="2"/>
<path d="M59.583 41.144L55.5428 38.944C53.6504 37.9141 52.1013 36.3705 51.0631 34.4808L48.8493 30.4516C48.0789 29.0453 46.604 28.1692 45 28.1692C43.396 28.1692 41.9211 29.0453 41.152 30.4489L38.9369 34.4808C37.8987 36.3705 36.3496 37.9141 34.4572 38.944L30.4156 41.144C29.0025 41.9131 28.125 43.3907 28.125 45.0002C28.125 46.6097 29.0025 48.0874 30.417 48.8564L34.4572 51.0565C36.3496 52.0864 37.8987 53.63 38.9369 55.5197L41.1507 59.5489C41.9211 60.9551 43.396 61.8313 45 61.8313C46.604 61.8313 48.0789 60.9551 48.848 59.5516L51.0631 55.5197C52.1013 53.63 53.6504 52.0864 55.5428 51.0565L59.5844 48.8564C60.9975 48.0874 61.875 46.6097 61.875 45.0002C61.875 43.3907 60.9975 41.9131 59.583 41.144ZM54.9042 45.0002L52.8539 46.1181C50.0153 47.6617 47.6903 49.9771 46.133 52.8115L45 54.8742L43.867 52.8115C42.3097 49.9771 39.9847 47.6617 37.1461 46.1181L35.0958 45.0002L37.1461 43.8824C39.9847 42.3388 42.3097 40.0234 43.867 37.189L45 35.1263L46.133 37.189C47.6903 40.0234 50.0139 42.3388 52.8539 43.8824L54.9042 45.0002Z" fill="#1D44FF"/>
</svg>