<svg width="92" height="92" viewBox="0 0 92 92" fill="none" xmlns="http://www.w3.org/2000/svg">
<g clip-path="url(#clip0_2037_8307)">
<path d="M30.5516 89.3048H61.4482C65.3181 89.3048 68.4555 86.1677 68.4555 82.2975V9.70307C68.4555 5.83314 65.3183 2.6958 61.4482 2.6958H30.5516C26.6817 2.6958 23.5444 5.83297 23.5444 9.70307V82.2977C23.5446 86.1676 26.6817 89.3048 30.5516 89.3048Z" stroke="#1D44FF" stroke-width="5.625" stroke-miterlimit="10"/>
<path d="M36.1238 2.6958L38.4599 12.7588H53.5407L55.8768 2.6958" stroke="#1D44FF" stroke-width="5.625" stroke-miterlimit="10"/>
<path d="M83.7244 30.1907C86.8063 30.1907 89.3046 27.6923 89.3046 24.6105C89.3046 21.5286 86.8063 19.0303 83.7244 19.0303C80.6426 19.0303 78.1442 21.5286 78.1442 24.6105C78.1442 27.6923 80.6426 30.1907 83.7244 30.1907Z" stroke="#1D44FF" stroke-width="5.625" stroke-miterlimit="10"/>
<path d="M46 37.1894V24.6106H78.1443" stroke="#1D44FF" stroke-width="5.625" stroke-miterlimit="10"/>
<path d="M86.6087 67.3899H91.9997" stroke="#1D44FF" stroke-width="5.625" stroke-miterlimit="10"/>
<path d="M68.4556 58.7019L76.2453 67.39H82.1169" stroke="#1D44FF" stroke-width="5.625" stroke-miterlimit="10"/>
<path d="M68.4556 46.0002H82.1169" stroke="#1D44FF" stroke-width="5.625" stroke-miterlimit="10"/>
<path d="M86.6087 46.0002H91.9997" stroke="#1D44FF" stroke-width="5.625" stroke-miterlimit="10"/>
<path d="M8.27551 72.9702C11.3574 72.9702 13.8557 70.4719 13.8557 67.39C13.8557 64.3082 11.3574 61.8098 8.27551 61.8098C5.19365 61.8098 2.69531 64.3082 2.69531 67.39C2.69531 70.4719 5.19365 72.9702 8.27551 72.9702Z" stroke="#1D44FF" stroke-width="5.625" stroke-miterlimit="10"/>
<path d="M46.0001 54.8113V67.3901H13.8558" stroke="#1D44FF" stroke-width="5.625" stroke-miterlimit="10"/>
<path d="M5.39098 24.6106H0" stroke="#1D44FF" stroke-width="5.625" stroke-miterlimit="10"/>
<path d="M23.5448 33.2987L15.7551 24.6106H9.88348" stroke="#1D44FF" stroke-width="5.625" stroke-miterlimit="10"/>
<path d="M23.5448 46.0002H9.88348" stroke="#1D44FF" stroke-width="5.625" stroke-miterlimit="10"/>
<path d="M5.39098 46.0002H0" stroke="#1D44FF" stroke-width="5.625" stroke-miterlimit="10"/>
</g>
<defs>
<clipPath id="clip0_2037_8307">
<rect width="92" height="92" fill="white" transform="translate(0 0.000244141)"/>
</clipPath>
</defs>
</svg>