<svg width="84" height="84" viewBox="0 0 84 84" fill="none" xmlns="http://www.w3.org/2000/svg">
<g clip-path="url(#clip0_2037_8290)">
<path d="M25.5937 16.4065L25.5938 3.28149L12.4688 3.28149L12.4687 16.4065H25.5937Z" stroke="#1D44FF" stroke-width="7.54688" stroke-miterlimit="10" stroke-linecap="round" stroke-linejoin="round"/>
<path d="M19.0312 48.5627L19.0312 35.4377H5.90625L5.90625 48.5627H19.0312Z" stroke="#1D44FF" stroke-width="7.54688" stroke-miterlimit="10" stroke-linecap="round" stroke-linejoin="round"/>
<path d="M25.5937 80.719L25.5938 67.594H12.4688L12.4687 80.719H25.5937Z" stroke="#1D44FF" stroke-width="7.54688" stroke-miterlimit="10" stroke-linecap="round" stroke-linejoin="round"/>
<path d="M25.5938 16.4065L38.7188 29.5315" stroke="#1D44FF" stroke-width="7.54688" stroke-miterlimit="10" stroke-linecap="round" stroke-linejoin="round"/>
<path d="M38.7188 54.469L25.5938 67.594" stroke="#1D44FF" stroke-width="7.54688" stroke-miterlimit="10" stroke-linecap="round" stroke-linejoin="round"/>
<path d="M71.5312 80.719H45.2812C41.6569 80.719 38.7188 77.7808 38.7188 74.1565V9.84399C38.7188 6.21969 41.6569 3.28149 45.2812 3.28149H71.5312C75.1556 3.28149 78.0938 6.21969 78.0938 9.84399V74.1565C78.0938 77.7808 75.1556 80.719 71.5312 80.719Z" stroke="#1D44FF" stroke-width="7.54688" stroke-miterlimit="10" stroke-linecap="round" stroke-linejoin="round"/>
<circle cx="58.4062" cy="67.594" r="3.28125" fill="#1D44FF"/>
<path d="M38.7188 16.4065H78.0938" stroke="#1D44FF" stroke-width="7.54688" stroke-miterlimit="10" stroke-linecap="round" stroke-linejoin="round"/>
<path d="M51.8438 29.5315H64.9688" stroke="#1D44FF" stroke-width="7.54688" stroke-miterlimit="10" stroke-linecap="round" stroke-linejoin="round"/>
<path d="M19.0312 42.0002H38.7188" stroke="#1D44FF" stroke-width="7.54688" stroke-miterlimit="10" stroke-linecap="round" stroke-linejoin="round"/>
</g>
<defs>
<clipPath id="clip0_2037_8290">
<rect width="84" height="84" fill="white" transform="translate(0 0.000244141)"/>
</clipPath>
</defs>
</svg>