<svg width="120" height="41" viewBox="0 0 120 41" fill="none" xmlns="http://www.w3.org/2000/svg">
<rect x="0.5" y="0.632812" width="119" height="39" rx="5.5" fill="black"/>
<rect x="0.5" y="0.632812" width="119" height="39" rx="5.5" stroke="#A6A6A6"/>
<path d="M24.7045 20.8958C24.7166 19.9759 24.9669 19.0739 25.4321 18.2738C25.8972 17.4737 26.5621 16.8015 27.3648 16.3197C26.8548 15.6086 26.1821 15.0235 25.4 14.6107C24.6178 14.1979 23.7479 13.9688 22.8592 13.9416C20.9635 13.7474 19.1258 15.0491 18.1598 15.0491C17.1751 15.0491 15.6878 13.9609 14.0862 13.9931C13.0502 14.0258 12.0406 14.3199 11.1557 14.8468C10.2708 15.3736 9.54075 16.1153 9.03674 16.9996C6.85352 20.69 8.48201 26.1136 10.5734 29.0967C11.6197 30.5574 12.8426 32.189 14.4428 32.1312C16.0086 32.0678 16.5934 31.1564 18.4835 31.1564C20.3561 31.1564 20.9048 32.1312 22.5374 32.0944C24.2176 32.0678 25.2762 30.6272 26.2859 29.1526C27.0377 28.1118 27.6162 26.9615 28 25.7443C27.0238 25.3412 26.1908 24.6665 25.6048 23.8043C25.0187 22.9421 24.7056 21.9306 24.7045 20.8958Z" fill="white"/>
<path d="M21.6181 11.9799C22.5342 10.9062 22.9856 9.52617 22.8763 8.13281C21.4767 8.27633 20.1838 8.92941 19.2553 9.96192C18.8013 10.4663 18.4536 11.0531 18.2321 11.6888C18.0105 12.3245 17.9195 12.9966 17.9642 13.6666C18.6642 13.6737 19.3568 13.5255 19.9897 13.2333C20.6227 12.9412 21.1794 12.5126 21.6181 11.9799Z" fill="white"/>
<path d="M36.791 8.63428H38.8608C40.6494 8.63428 41.5195 9.69775 41.5195 11.627C41.5195 13.5562 40.6406 14.6328 38.8608 14.6328H36.791V8.63428ZM37.7886 9.47363V13.7935H38.751C39.9375 13.7935 40.4956 13.0771 40.4956 11.6401C40.4956 10.1943 39.9331 9.47363 38.751 9.47363H37.7886ZM44.6748 9.90869C45.8877 9.90869 46.7358 10.6953 46.7358 12.0005V12.6025C46.7358 13.9517 45.8877 14.7119 44.6748 14.7119C43.4443 14.7119 42.605 13.9604 42.605 12.6069V12.0049C42.605 10.7349 43.4575 9.90869 44.6748 9.90869ZM44.6792 10.6953C43.9849 10.6953 43.5894 11.2754 43.5894 12.0532V12.5718C43.5894 13.3496 43.9585 13.9253 44.6792 13.9253C45.3911 13.9253 45.7559 13.354 45.7559 12.5718V12.0532C45.7559 11.2754 45.3735 10.6953 44.6792 10.6953ZM53.8989 9.98779L52.6772 14.6328H51.6841L50.7129 11.2051H50.6865L49.7329 14.6328H48.7354L47.4609 9.98779H48.5112L49.2583 13.5298H49.3022L50.2383 9.98779H51.1567L52.1191 13.5298H52.1631L52.9233 9.98779H53.8989ZM54.8657 14.6328V9.98779H55.8237V10.8228H55.8721C55.9907 10.458 56.3291 9.91748 57.2695 9.91748C58.2056 9.91748 58.834 10.436 58.834 11.4951V14.6328H57.8584V11.7808C57.8584 11.0732 57.4893 10.748 56.9399 10.748C56.2192 10.748 55.8413 11.3018 55.8413 12.0532V14.6328H54.8657ZM60.3105 14.6328V8.31787H61.2861V14.6328H60.3105ZM64.6348 9.90869C65.8477 9.90869 66.6958 10.6953 66.6958 12.0005V12.6025C66.6958 13.9517 65.8477 14.7119 64.6348 14.7119C63.4043 14.7119 62.5649 13.9604 62.5649 12.6069V12.0049C62.5649 10.7349 63.4175 9.90869 64.6348 9.90869ZM64.6392 10.6953C63.9448 10.6953 63.5493 11.2754 63.5493 12.0532V12.5718C63.5493 13.3496 63.9185 13.9253 64.6392 13.9253C65.3511 13.9253 65.7158 13.354 65.7158 12.5718V12.0532C65.7158 11.2754 65.3335 10.6953 64.6392 10.6953ZM69.2227 14.7031C68.3218 14.7031 67.7021 14.1494 67.7021 13.2837C67.7021 12.4619 68.2734 11.9082 69.3457 11.9082H70.519V11.4731C70.519 10.9414 70.1807 10.6909 69.6445 10.6909C69.1172 10.6909 68.8799 10.9106 68.8052 11.2183H67.8779C67.9351 10.4404 68.5195 9.91748 69.6753 9.91748C70.6685 9.91748 71.4902 10.3306 71.4902 11.4863V14.6328H70.563V14.0308H70.519C70.3125 14.3867 69.9082 14.7031 69.2227 14.7031ZM69.5259 13.9473C70.0796 13.9473 70.519 13.5693 70.519 13.064V12.563H69.4995C68.9326 12.563 68.6821 12.8486 68.6821 13.2354C68.6821 13.7188 69.0864 13.9473 69.5259 13.9473ZM74.4961 9.92627C75.1509 9.92627 75.6519 10.2163 75.832 10.6865H75.8804V8.31787H76.856V14.6328H75.9067V13.8901H75.8584C75.7178 14.3604 75.1597 14.6943 74.4829 14.6943C73.415 14.6943 72.7207 13.9341 72.7207 12.708V11.9126C72.7207 10.6865 73.4282 9.92627 74.4961 9.92627ZM74.7686 10.7261C74.1182 10.7261 73.7139 11.2095 73.7139 12.0532V12.563C73.7139 13.4111 74.1226 13.8945 74.7905 13.8945C75.4497 13.8945 75.8804 13.4155 75.8804 12.6245V11.9214C75.8804 11.2051 75.4102 10.7261 74.7686 10.7261ZM82.2129 9.90869C83.4258 9.90869 84.2739 10.6953 84.2739 12.0005V12.6025C84.2739 13.9517 83.4258 14.7119 82.2129 14.7119C80.9824 14.7119 80.1431 13.9604 80.1431 12.6069V12.0049C80.1431 10.7349 80.9956 9.90869 82.2129 9.90869ZM82.2173 10.6953C81.5229 10.6953 81.1274 11.2754 81.1274 12.0532V12.5718C81.1274 13.3496 81.4966 13.9253 82.2173 13.9253C82.9292 13.9253 83.2939 13.354 83.2939 12.5718V12.0532C83.2939 11.2754 82.9116 10.6953 82.2173 10.6953ZM85.5308 14.6328V9.98779H86.4888V10.8228H86.5371C86.6558 10.458 86.9941 9.91748 87.9346 9.91748C88.8706 9.91748 89.499 10.436 89.499 11.4951V14.6328H88.5234V11.7808C88.5234 11.0732 88.1543 10.748 87.605 10.748C86.8843 10.748 86.5063 11.3018 86.5063 12.0532V14.6328H85.5308ZM93.2739 10.0186V8.8584H94.2275V10.0186H95.269V10.7832H94.2275V13.2485C94.2275 13.7539 94.4165 13.8945 94.9395 13.8945C95.0713 13.8945 95.2471 13.8857 95.3218 13.877V14.624C95.2427 14.6372 94.9175 14.6636 94.6978 14.6636C93.5684 14.6636 93.2607 14.2593 93.2607 13.3276V10.7832H92.5532V10.0186H93.2739ZM96.4995 14.6328V8.31787H97.4707V10.8228H97.519C97.6201 10.4932 97.998 9.91748 98.9297 9.91748C99.835 9.91748 100.481 10.4404 100.481 11.4995V14.6328H99.5098V11.7852C99.5098 11.0776 99.1187 10.748 98.5649 10.748C97.8662 10.748 97.4707 11.2974 97.4707 12.0532V14.6328H96.4995ZM103.755 14.7119C102.489 14.7119 101.703 13.9341 101.703 12.6245V11.9961C101.703 10.6777 102.564 9.90869 103.698 9.90869C104.862 9.90869 105.684 10.7173 105.684 11.9961V12.541H102.669V12.7695C102.669 13.4375 103.065 13.9297 103.75 13.9297C104.26 13.9297 104.612 13.688 104.678 13.3979H105.631C105.574 13.9341 105.007 14.7119 103.755 14.7119ZM102.669 11.9038H104.73V11.8423C104.73 11.1436 104.322 10.6777 103.702 10.6777C103.083 10.6777 102.669 11.1436 102.669 11.8423V11.9038Z" fill="white"/>
<path d="M38.2061 30.6328H36.1758L40.3066 18.6357H42.5391L46.6611 30.6328H44.5518L43.4883 27.3105H39.2783L38.2061 30.6328ZM41.4316 20.71H41.3525L39.7266 25.7812H43.04L41.4316 20.71ZM52.2644 30.7646C51.0603 30.7646 50.1462 30.1934 49.654 29.3408H49.5837V33.7178H47.6325V21.3428H49.531V22.7051H49.6013C50.1111 21.8174 51.0603 21.2197 52.3083 21.2197C54.3913 21.2197 55.8767 22.793 55.8767 25.5703V26.3965C55.8767 29.1562 54.4089 30.7646 52.2644 30.7646ZM51.8161 29.1562C53.0554 29.1562 53.8991 28.1631 53.8991 26.291V25.6406C53.8991 23.8389 53.1081 22.8105 51.781 22.8105C50.4187 22.8105 49.5661 23.918 49.5661 25.6318V26.291C49.5661 28.0488 50.4275 29.1562 51.8161 29.1562ZM62.183 30.7646C60.9789 30.7646 60.0649 30.1934 59.5727 29.3408H59.5024V33.7178H57.5512V21.3428H59.4496V22.7051H59.52C60.0297 21.8174 60.9789 21.2197 62.227 21.2197C64.31 21.2197 65.7954 22.793 65.7954 25.5703V26.3965C65.7954 29.1562 64.3276 30.7646 62.183 30.7646ZM61.7348 29.1562C62.9741 29.1562 63.8178 28.1631 63.8178 26.291V25.6406C63.8178 23.8389 63.0268 22.8105 61.6996 22.8105C60.3373 22.8105 59.4848 23.918 59.4848 25.6318V26.291C59.4848 28.0488 60.3461 29.1562 61.7348 29.1562ZM69.8387 27.3018H71.7899C71.8778 28.3389 72.7919 29.2266 74.4882 29.2266C76.0438 29.2266 76.9667 28.4971 76.9667 27.3633C76.9667 26.4492 76.3514 25.957 75.0682 25.6494L73.0995 25.1572C71.5526 24.7969 70.1639 23.874 70.1639 21.9229C70.1639 19.6289 72.1679 18.3721 74.497 18.3721C76.8261 18.3721 78.7684 19.6289 78.8124 21.8701H76.8964C76.8085 20.8506 76.0262 20.0068 74.4706 20.0068C73.0995 20.0068 72.1679 20.6572 72.1679 21.7734C72.1679 22.5557 72.7128 23.1182 73.829 23.373L75.7889 23.8564C77.5907 24.2959 78.9618 25.1484 78.9618 27.1875C78.9618 29.543 77.0546 30.8701 74.3387 30.8701C70.9989 30.8701 69.8827 28.9189 69.8387 27.3018ZM81.3395 21.3428V19.084H83.2555V21.3428H85.066V22.9072H83.2555V27.8643C83.2555 28.875 83.6334 29.1562 84.6793 29.1562C84.8463 29.1562 85.0045 29.1562 85.1188 29.1387V30.6328C84.9605 30.6592 84.5914 30.6943 84.1959 30.6943C81.9371 30.6943 81.3131 29.8857 81.3131 28.0225V22.9072H80.0299V21.3428H81.3395ZM90.3353 21.1846C93.0071 21.1846 94.4573 23.0654 94.4573 25.5967V26.3438C94.4573 28.9629 93.0159 30.791 90.3353 30.791C87.6546 30.791 86.1956 28.9629 86.1956 26.3438V25.5967C86.1956 23.0742 87.6634 21.1846 90.3353 21.1846ZM90.3353 22.749C88.8851 22.749 88.1644 23.9355 88.1644 25.623V26.335C88.1644 27.9961 88.8763 29.2178 90.3353 29.2178C91.7943 29.2178 92.4974 28.0049 92.4974 26.335V25.623C92.4974 23.9268 91.7855 22.749 90.3353 22.749ZM96.1055 30.6328V21.3428H98.0567V22.5645H98.127C98.3643 21.9844 99.0586 21.2109 100.351 21.2109C100.606 21.2109 100.825 21.2285 101.01 21.2637V22.9863C100.843 22.9424 100.5 22.916 100.175 22.916C98.6104 22.916 98.083 23.8828 98.083 25.1309V30.6328H96.1055ZM105.743 30.791C103.256 30.791 101.674 29.1475 101.674 26.3965V25.4561C101.674 22.8633 103.22 21.1846 105.664 21.1846C108.142 21.1846 109.636 22.9248 109.636 25.5439V26.4316H103.598V26.6514C103.598 28.2158 104.442 29.2529 105.769 29.2529C106.762 29.2529 107.439 28.7607 107.677 27.9609H109.531C109.25 29.4639 108.037 30.791 105.743 30.791ZM103.598 25.0693H107.729V25.0518C107.729 23.7334 106.912 22.6963 105.673 22.6963C104.416 22.6963 103.598 23.7334 103.598 25.0518V25.0693Z" fill="white"/>
</svg>
