<svg width="21" height="21" viewBox="0 0 21 21" fill="none" xmlns="http://www.w3.org/2000/svg">
<g id="copy-03" clip-path="url(#clip0_2367_2151)">
<path id="Icon" d="M7.1665 6.70215V4.36882C7.1665 3.43539 7.1665 2.96868 7.34816 2.61216C7.50795 2.29856 7.76292 2.04359 8.07652 1.8838C8.43304 1.70215 8.89975 1.70215 9.83317 1.70215H16.1665C17.0999 1.70215 17.5666 1.70215 17.9232 1.8838C18.2368 2.04359 18.4917 2.29856 18.6515 2.61216C18.8332 2.96868 18.8332 3.43539 18.8332 4.36882V10.7021C18.8332 11.6356 18.8332 12.1023 18.6515 12.4588C18.4917 12.7724 18.2368 13.0274 17.9232 13.1872C17.5666 13.3688 17.0999 13.3688 16.1665 13.3688H13.8332M4.83317 18.3688H11.1665C12.0999 18.3688 12.5666 18.3688 12.9232 18.1872C13.2368 18.0274 13.4917 17.7724 13.6515 17.4588C13.8332 17.1023 13.8332 16.6356 13.8332 15.7021V9.36881C13.8332 8.43539 13.8332 7.96868 13.6515 7.61216C13.4917 7.29856 13.2368 7.04359 12.9232 6.8838C12.5666 6.70215 12.0999 6.70215 11.1665 6.70215H4.83317C3.89975 6.70215 3.43304 6.70215 3.07652 6.8838C2.76292 7.04359 2.50795 7.29856 2.34816 7.61216C2.1665 7.96868 2.1665 8.43539 2.1665 9.36881V15.7021C2.1665 16.6356 2.1665 17.1023 2.34816 17.4588C2.50795 17.7724 2.76292 18.0274 3.07652 18.1872C3.43304 18.3688 3.89975 18.3688 4.83317 18.3688Z" stroke="url(#paint0_linear_2367_2151)" stroke-width="1.66667" stroke-linecap="round" stroke-linejoin="round"/>
</g>
<defs>
<linearGradient id="paint0_linear_2367_2151" x1="32.6793" y1="-14.7912" x2="2.42356" y2="17.9718" gradientUnits="userSpaceOnUse">
<stop stop-color="#FBFF25"/>
<stop offset="1" stop-color="#FF0000"/>
</linearGradient>
<clipPath id="clip0_2367_2151">
<rect width="20" height="20" fill="white" transform="translate(0.5 0.0356445)"/>
</clipPath>
</defs>
</svg>
