<svg width="488" height="524" viewBox="0 0 488 524" fill="none" xmlns="http://www.w3.org/2000/svg">
<g clip-path="url(#clip0_7874_21411)">
<rect width="488" height="524" rx="24" fill="#1B1B1C"/>
<g style="mix-blend-mode:multiply" filter="url(#filter0_f_7874_21411)">
<ellipse cx="244.235" cy="648.385" rx="843.235" ry="169.385" fill="#040308"/>
</g>
<g clip-path="url(#clip1_7874_21411)">
<path d="M157.29 385.057H162.611V376.125H168.91C175.915 376.125 179.526 372.921 179.526 367.708C179.526 362.496 175.915 359.482 168.91 359.482H157.29V385.057ZM162.611 371.754V363.853H168.856C172.249 363.853 173.96 365.482 173.96 367.817C173.96 370.152 172.222 371.781 168.856 371.781H162.611V371.754ZM176.213 385.057H181.996L184.222 379.6H196.304L198.53 385.057H204.313L193.236 359.482H187.263L176.213 385.057ZM185.987 375.256L190.277 364.776L194.566 375.256H186.014H185.987ZM207.001 385.057H212.295V375.256H219.68C222.503 375.256 223.399 376.179 223.399 378.487V381.473C223.399 382.803 223.535 383.862 223.997 385.057H229.508V385.003C228.911 383.618 228.721 382.613 228.721 380.849V377.183C228.721 374.984 227.852 373.274 225.164 372.812C228.069 371.564 229.508 369.256 229.508 366.649C229.508 361.925 225.598 359.509 219.191 359.509H207.001V385.084V385.057ZM212.295 371.156V363.907H219.001C222.259 363.907 223.942 365.319 223.942 367.545C223.942 369.772 222.286 371.183 219.001 371.183H212.295V371.156ZM239.119 385.057H244.44V363.88H252.992V359.482H230.567V363.88H239.119V385.057ZM256.06 385.057H261.354V367.03L273.735 385.057H279.816V359.482H274.495V377.482L262.115 359.482H256.087V385.057H256.06ZM284.676 385.057H304.93V380.659H289.997V374.224H303.491V369.853H289.997V363.907H304.522V359.509H284.676V385.084V385.057ZM308.486 385.057H313.78V375.256H321.165C323.989 375.256 324.885 376.179 324.885 378.487V381.473C324.885 382.803 325.02 383.862 325.482 385.057H330.993V385.003C330.396 383.618 330.206 382.613 330.206 380.849V377.183C330.206 374.984 329.337 373.274 326.649 372.812C329.554 371.564 330.993 369.256 330.993 366.649C330.993 361.925 327.084 359.509 320.676 359.509H308.486V385.084V385.057ZM313.78 371.156V363.907H320.486C323.744 363.907 325.428 365.319 325.428 367.545C325.428 369.772 323.771 371.183 320.486 371.183H313.78V371.156Z" fill="#FFFAF0"/>
<path d="M123 353.156H133.154V344.414H141.842C150.937 344.414 155.715 341.862 155.715 335.997C155.715 330.133 151.046 327.608 141.842 327.608H123V353.183V353.156ZM133.154 338.414V333.554H141.353C143.905 333.554 145.181 334.26 145.181 335.97C145.181 337.681 143.769 338.414 141.353 338.414H133.154ZM157.942 353.156H168.096V344.061H176.077C178.82 344.061 180.041 344.441 180.041 346.912V349.192C180.041 350.631 180.096 351.744 180.421 353.156H190.548V353.047C190.06 351.609 189.869 350.414 189.869 348.541V345.907C189.869 342.731 188.458 341.129 184.521 340.884C188.566 340.206 190.684 337.491 190.684 334.477C190.684 328.884 186.014 327.581 177.951 327.581H157.969V353.156H157.942ZM168.096 338.414V333.554H176.295C178.847 333.554 180.123 334.26 180.123 335.97C180.123 337.681 178.711 338.414 176.295 338.414H168.096ZM193.643 353.156H222.422V346.233H203.797V343.192H221.933V337.382H203.797V334.504H222.313V327.581H193.643V353.156ZM225.055 353.156H235.155V339.988L243.164 353.156H250.657L258.639 340.07V353.156H268.739V327.581H256.983L246.911 344.468L236.838 327.581H225.083V353.156H225.055ZM271.888 353.156H282.042V327.581H271.888V353.156ZM301.264 353.699C311.744 353.699 317.391 350.821 317.391 341.672V327.554H307.237V340.749C307.237 345.364 305.907 347.4 301.264 347.4C296.622 347.4 295.319 345.337 295.319 340.749V327.554H285.165V341.672C285.165 350.821 290.812 353.699 301.264 353.699ZM320.513 353.156H330.613V339.988L338.622 353.156H346.115L354.097 340.07V353.156H364.197V327.581H352.441L342.369 344.468L332.296 327.581H320.541V353.156H320.513Z" fill="#FFFAF0"/>
<path d="M166.656 215.969C166.656 173.453 201.109 139 243.625 139C286.142 139 320.595 173.453 320.595 215.969C320.595 258.485 286.142 292.938 243.625 292.938C201.109 292.938 166.656 258.485 166.656 215.969Z" fill="#FFE600"/>
<path d="M316.876 215.969C316.876 175.516 284.08 142.719 243.627 142.719C203.174 142.719 170.377 175.516 170.377 215.969C170.377 256.422 203.174 289.219 243.627 289.219C284.08 289.219 316.876 256.422 316.876 215.969ZM312.804 215.969C312.804 254.196 281.826 285.174 243.599 285.174C205.373 285.174 174.422 254.196 174.422 215.969C174.422 177.742 205.427 146.765 243.627 146.765C281.826 146.765 312.831 177.742 312.831 215.942L312.804 215.969Z" fill="#231F20"/>
<path d="M263.172 266.413V253.68C263.172 249.01 259.561 245.236 254.891 245.236H254.701C250.032 245.236 246.068 248.902 246.068 253.571V255.635C246.068 260.304 250.33 264.051 254.701 264.187C254.701 264.187 256.52 264.187 257.443 263.698V266.522C257.443 267.988 256.276 269.318 254.837 269.264C253.642 269.237 252.068 268.585 252.068 267.119C252.068 267.119 252.285 265.219 250.9 265.219H246.068C246.041 265.68 246.068 265.979 246.068 266.603C246.068 271.029 249.787 274.884 254.891 274.884C259.724 274.83 263.118 271.164 263.118 266.386L263.172 266.413ZM257.471 255.58C257.471 257.047 256.276 258.214 254.837 258.214H254.756C253.29 258.214 252.122 257.047 252.122 255.58V253.897C252.122 252.431 253.29 251.264 254.756 251.264H254.837C256.303 251.264 257.471 252.431 257.471 253.897V255.58Z" fill="#231F20"/>
<path d="M202.168 233.97V220.476H210.042C216.558 220.476 218.865 232.286 210.422 233.97H202.195H202.168ZM202.168 210.186V197.318H211.046C216.802 197.318 217.996 208.422 211.399 210.186H202.168ZM191.553 186.621V244.069H209.662C224.268 244.069 231.68 226.368 221.526 215.453C221.526 215.453 221.499 215.426 221.499 215.372C221.499 215.318 221.58 215.263 221.58 215.263C230.024 205.734 226.494 188.983 210.802 186.621H191.58H191.553Z" fill="#231F20"/>
<path d="M276.91 233.97V220.476H284.729C291.245 220.476 293.553 232.286 285.109 233.97H276.91ZM276.91 210.186V197.318H285.734C291.489 197.318 292.684 208.422 286.087 210.186H276.91ZM266.24 186.621V244.069H284.349C298.956 244.069 306.367 226.368 296.213 215.453C296.213 215.453 296.186 215.426 296.186 215.372C296.186 215.318 296.268 215.263 296.268 215.263C304.711 205.734 301.182 188.983 285.489 186.621H266.267H266.24Z" fill="#231F20"/>
<path d="M240.91 266.467V253.734C240.91 249.065 237.136 245.291 232.467 245.291H232.277C227.607 245.291 223.833 249.065 223.833 253.734V266.467C223.833 271.137 227.607 274.911 232.277 274.911H232.467C237.136 274.911 240.91 271.137 240.91 266.467ZM235.073 266.63C235.073 268.096 233.906 269.264 232.439 269.264H232.358C230.892 269.264 229.724 268.096 229.724 266.63V253.979C229.724 252.513 230.892 251.345 232.358 251.345H232.439C233.906 251.345 235.073 252.513 235.073 253.979V266.63Z" fill="#231F20"/>
<path d="M220.686 157.923L239.527 216.159H247.672L266.27 157.923H254.867L243.573 196.801L232.36 157.923H220.686Z" fill="#231F20"/>
</g>
</g>
<rect x="0.5" y="0.5" width="487" height="523" rx="23.5" stroke="#444444"/>
<defs>
<filter id="filter0_f_7874_21411" x="-899" y="179" width="2286.47" height="938.77" filterUnits="userSpaceOnUse" color-interpolation-filters="sRGB">
<feFlood flood-opacity="0" result="BackgroundImageFix"/>
<feBlend mode="normal" in="SourceGraphic" in2="BackgroundImageFix" result="shape"/>
<feGaussianBlur stdDeviation="150" result="effect1_foregroundBlur_7874_21411"/>
</filter>
<clipPath id="clip0_7874_21411">
<rect width="488" height="524" rx="24" fill="white"/>
</clipPath>
<clipPath id="clip1_7874_21411">
<rect width="241.17" height="246.057" fill="white" transform="translate(123 139)"/>
</clipPath>
</defs>
</svg>
