<svg width="48" height="49" viewBox="0 0 48 49" fill="none" xmlns="http://www.w3.org/2000/svg">
<g clip-path="url(#clip0_5_5)">
<path d="M24 0.287109C10.7662 0.287109 0 11.0535 0 24.2873C0 37.5207 10.7662 48.2871 24 48.2871C37.2338 48.2871 48 37.5207 48 24.2873C48 11.0535 37.2338 0.287109 24 0.287109ZM24 45.2093C12.4638 45.2093 3.07807 35.8237 3.07807 24.2873C3.07807 12.7508 12.4638 3.36516 24 3.36516C35.5368 3.36516 44.9225 12.7508 44.9225 24.2873C44.9225 35.8237 35.5368 45.2093 24 45.2093Z" fill="#1D44FF"/>
<path d="M31 13.6294C31 13.4644 30.933 13.3062 30.8136 13.1895C30.6943 13.0729 30.5324 13.0074 30.3636 13.0074H27.1818C25.5796 12.9293 24.0109 13.4744 22.8186 14.5233C21.6262 15.5723 20.907 17.0399 20.8182 18.6055V21.9644H17.6364C17.4676 21.9644 17.3057 22.0299 17.1864 22.1466C17.067 22.2633 17 22.4215 17 22.5864V25.8209C17 25.9859 17.067 26.1441 17.1864 26.2608C17.3057 26.3774 17.4676 26.4429 17.6364 26.4429H20.8182V34.778C20.8182 34.943 20.8852 35.1012 21.0046 35.2178C21.1239 35.3345 21.2858 35.4 21.4545 35.4H25.2727C25.4415 35.4 25.6034 35.3345 25.7227 35.2178C25.842 35.1012 25.9091 34.943 25.9091 34.778V26.4429H29.2436C29.3852 26.4449 29.5233 26.4007 29.6363 26.3174C29.7492 26.234 29.8305 26.1162 29.8673 25.9826L30.7836 22.7482C30.809 22.6562 30.8124 22.5599 30.7936 22.4665C30.7748 22.3731 30.7344 22.2852 30.6753 22.2095C30.6163 22.1337 30.5403 22.0723 30.4532 22.0298C30.3661 21.9873 30.2701 21.9649 30.1727 21.9644H25.9091V18.6055C25.9407 18.2976 26.0887 18.0123 26.324 17.8052C26.5594 17.5982 26.8652 17.4843 27.1818 17.4859H30.3636C30.5324 17.4859 30.6943 17.4204 30.8136 17.3037C30.933 17.187 31 17.0288 31 16.8639V13.6294Z" fill="#1D43FF"/>
</g>
<defs>
<clipPath id="clip0_5_5">
<rect width="48" height="48" fill="white" transform="translate(0 0.287109)"/>
</clipPath>
</defs>
</svg>
