<svg width="43" height="43" viewBox="0 0 43 43" fill="none" xmlns="http://www.w3.org/2000/svg">
<path d="M28.4488 16.089C28.4488 16.7837 27.8857 17.3469 27.1909 17.3469C26.4961 17.3469 25.9328 16.7837 25.9328 16.089C25.9328 15.3942 26.4961 14.8309 27.1909 14.8309C27.8857 14.8309 28.4488 15.3942 28.4488 16.089ZM26.8824 21.7284C26.8824 24.6422 24.5119 27.0129 21.5983 27.0129C18.6845 27.0129 16.3138 24.6422 16.3138 21.7284C16.3138 18.8149 18.6845 16.4443 21.5983 16.4443C24.5119 16.4443 26.8824 18.8149 26.8824 21.7284ZM24.9833 21.7284C24.9833 19.8621 23.4646 18.3435 21.5983 18.3435C19.7318 18.3435 18.2132 19.8621 18.2132 21.7284C18.2132 23.5951 19.7318 25.1135 21.5983 25.1135C23.4646 25.1135 24.9833 23.5951 24.9833 21.7284ZM32.2937 17.4833C32.2937 13.9238 29.4079 11.0381 25.8482 11.0381H17.0531C13.4934 11.0381 10.6077 13.9238 10.6077 17.4833V26.279C10.6077 29.8386 13.4934 32.7242 17.0531 32.7242H25.8482C29.4079 32.7242 32.2937 29.8386 32.2937 26.279V17.4833ZM30.1779 26.182C30.1779 28.6266 28.1959 30.6085 25.7512 30.6085H17.1502C14.7053 30.6085 12.7234 28.6266 12.7234 26.182V17.5804C12.7234 15.1356 14.7053 13.1538 17.1502 13.1538H25.7512C28.1959 13.1538 30.1779 15.1356 30.1779 17.5804V26.182Z" fill="#1D44FF"/>
<path d="M21.4504 0.880859C9.87095 0.880859 0.450592 10.3014 0.450592 21.881C0.450592 33.4602 9.87095 42.8808 21.4504 42.8808C33.0299 42.8808 42.4503 33.4602 42.4503 21.881C42.4503 10.3014 33.0299 0.880859 21.4504 0.880859ZM21.4504 40.1877C11.3564 40.1877 3.14389 31.9753 3.14389 21.881C3.14389 11.7866 11.3564 3.57415 21.4504 3.57415C31.5451 3.57415 39.7575 11.7866 39.7575 21.881C39.7575 31.9753 31.5451 40.1877 21.4504 40.1877Z" fill="#1D44FF"/>
</svg>
