<svg width="60" height="48" viewBox="0 0 60 48" fill="none" xmlns="http://www.w3.org/2000/svg">
<rect x="0.5" y="0.5" width="59" height="47" rx="9.5" fill="url(#paint0_linear_2048_17690)"/>
<rect x="0.5" y="0.5" width="59" height="47" rx="9.5" stroke="#47474B"/>
<path fill-rule="evenodd" clip-rule="evenodd" d="M14.5891 18.2286C15.3742 18.2949 16.1593 17.8313 16.65 17.2435C17.1325 16.6392 17.4515 15.8279 17.3697 15C16.6746 15.0331 15.8158 15.4636 15.3252 16.0679C14.8753 16.5895 14.491 17.4339 14.5891 18.2286ZM23.9288 28.8914V15.9851H28.713C31.1829 15.9851 32.9085 17.7071 32.9085 20.2237C32.9085 22.7404 31.1502 24.4789 28.6476 24.4789H25.9079V28.8914H23.9288ZM17.3616 18.3859C16.6699 18.3456 16.0388 18.5965 15.529 18.7991C15.2009 18.9295 14.9231 19.0399 14.7118 19.0399C14.4746 19.0399 14.1854 18.9236 13.8606 18.793C13.435 18.6218 12.9485 18.4262 12.4382 18.4356C11.2688 18.4521 10.181 19.1227 9.58404 20.1906C8.3573 22.3265 9.26509 25.4889 10.4509 27.2274C11.0316 28.0883 11.7267 29.0321 12.6427 28.999C13.0457 28.9836 13.3355 28.8591 13.6355 28.7302C13.9809 28.5819 14.3397 28.4278 14.8999 28.4278C15.4407 28.4278 15.7838 28.5779 16.1131 28.7219C16.4263 28.8589 16.727 28.9905 17.1735 28.9824C18.1221 28.9659 18.7191 28.1215 19.2998 27.2605C19.9264 26.3364 20.2018 25.4346 20.2436 25.2978L20.2485 25.2819C20.2475 25.2809 20.2397 25.2773 20.2261 25.271L20.2261 25.271C20.0166 25.1739 18.4156 24.432 18.4002 22.4424C18.3848 20.7724 19.6701 19.9263 19.8724 19.7931L19.8724 19.7931C19.8848 19.785 19.8931 19.7795 19.8968 19.7767C19.079 18.5515 17.8032 18.419 17.3616 18.3859ZM36.5234 28.9908C37.7665 28.9908 38.9196 28.3533 39.443 27.3433H39.4839V28.8914H41.3158V22.4673C41.3158 20.6046 39.8437 19.4042 37.5784 19.4042C35.4766 19.4042 33.9227 20.6212 33.8654 22.2934H35.6483C35.7955 21.4987 36.5234 20.9772 37.5211 20.9772C38.7315 20.9772 39.4103 21.5484 39.4103 22.5997V23.3117L36.9405 23.4607C34.6424 23.6014 33.3993 24.5535 33.3993 26.2092C33.3993 27.8814 34.6833 28.9908 36.5234 28.9908ZM37.0548 27.4592C35.9998 27.4592 35.3291 26.9459 35.3291 26.1595C35.3291 25.3482 35.9752 24.8763 37.2101 24.8018L39.4101 24.661V25.3896C39.4101 26.5982 38.396 27.4592 37.0548 27.4592ZM47.3923 29.3964C46.599 31.6565 45.6912 32.4015 43.7611 32.4015C43.6139 32.4015 43.1232 32.385 43.0087 32.3519V30.8038C43.1314 30.8203 43.434 30.8369 43.5894 30.8369C44.4645 30.8369 44.9552 30.4643 45.2577 29.4958L45.4377 28.9245L42.0846 19.5284H44.1537L46.4845 27.1529H46.5254L48.8562 19.5284H50.868L47.3923 29.3964ZM25.9078 17.674H28.1895C29.9069 17.674 30.8883 18.6012 30.8883 20.232C30.8883 21.8629 29.9069 22.7984 28.1813 22.7984H25.9078V17.674Z" fill="white"/>
<defs>
<linearGradient id="paint0_linear_2048_17690" x1="30" y1="0" x2="30" y2="48" gradientUnits="userSpaceOnUse">
<stop stop-color="#26262C"/>
<stop offset="1" stop-color="#343439"/>
</linearGradient>
</defs>
</svg>
