<svg width="60" height="48" viewBox="0 0 60 48" fill="none" xmlns="http://www.w3.org/2000/svg">
<rect x="0.5" y="0.5" width="59" height="47" rx="9.5" fill="url(#paint0_linear_2048_17650)"/>
<rect x="0.5" y="0.5" width="59" height="47" rx="9.5" stroke="#47474B"/>
<circle cx="29.87" cy="23.87" r="15.87" fill="#F3BA2F"/>
<path d="M26.5042 22.5638L29.9998 19.0683L33.4972 22.5656L35.5312 20.5316L29.9998 15L24.4703 20.5298L26.5042 22.5638ZM20.9999 23.9997L23.034 21.9657L25.0679 23.9996L23.0339 26.0337L20.9999 23.9997ZM26.5042 25.4362L29.9998 28.9318L33.4971 25.4345L35.5322 27.4675L35.5312 27.4685L29.9998 33L24.4701 27.4704L24.4672 27.4675L26.5042 25.4362ZM34.932 24.0009L36.9661 21.9668L39 24.0007L36.966 26.0348L34.932 24.0009Z" fill="white"/>
<path d="M32.0635 23.9993H32.0644L30.0004 21.9353L28.4751 23.4606H28.475L28.2998 23.6359L27.9384 23.9975L27.9355 24.0003L27.9384 24.0032L30.0004 26.0654L32.0644 24.0014L32.0654 24.0003L32.0635 23.9993Z" fill="white"/>
<defs>
<linearGradient id="paint0_linear_2048_17650" x1="30" y1="0" x2="30" y2="48" gradientUnits="userSpaceOnUse">
<stop stop-color="#26262C"/>
<stop offset="1" stop-color="#343439"/>
</linearGradient>
</defs>
</svg>
