<svg width="60" height="48" viewBox="0 0 60 48" fill="none" xmlns="http://www.w3.org/2000/svg">
<rect x="0.5" y="0.5" width="59" height="47" rx="9.5" fill="url(#paint0_linear_2048_17656)"/>
<rect x="0.5" y="0.5" width="59" height="47" rx="9.5" stroke="#47474B"/>
<path fill-rule="evenodd" clip-rule="evenodd" d="M19.7505 30.6165H16.0291L13.2385 19.9702C13.106 19.4805 12.8248 19.0476 12.4111 18.8435C11.3787 18.3307 10.2411 17.9226 9 17.7168V17.3069H14.9949C15.8222 17.3069 16.4428 17.9226 16.5462 18.6377L17.9941 26.3172L21.7137 17.3069H25.3316L19.7505 30.6165ZM27.4001 30.6165H23.8856L26.7796 17.3069H30.2941L27.4001 30.6165ZM34.8409 20.9941C34.9443 20.2773 35.5649 19.8674 36.2888 19.8674C37.4265 19.7645 38.6657 19.9703 39.6999 20.4813L40.3205 17.6157C39.2862 17.2058 38.1486 17 37.1162 17C33.7051 17 31.223 18.8436 31.223 21.4022C31.223 23.3487 32.9811 24.3707 34.2222 24.9864C35.5649 25.6004 36.082 26.0103 35.9786 26.6242C35.9786 27.5451 34.9443 27.955 33.9119 27.955C32.6709 27.955 31.4298 27.648 30.294 27.1352L29.6734 30.0026C30.9145 30.5136 32.2572 30.7194 33.4982 30.7194C37.323 30.8206 39.6999 28.9788 39.6999 26.2143C39.6999 22.733 34.8409 22.5289 34.8409 20.9941ZM52.0001 30.6165L49.2095 17.3069H46.212C45.5915 17.3069 44.971 17.7168 44.7641 18.3307L39.5967 30.6165H43.2146L43.9368 28.6718H48.3821L48.7958 30.6165H52.0001ZM46.7291 20.8912L47.7615 25.9074H44.8675L46.7291 20.8912Z" fill="white"/>
<defs>
<linearGradient id="paint0_linear_2048_17656" x1="30" y1="0" x2="30" y2="48" gradientUnits="userSpaceOnUse">
<stop stop-color="#26262C"/>
<stop offset="1" stop-color="#343439"/>
</linearGradient>
</defs>
</svg>
