<svg width="60" height="48" viewBox="0 0 60 48" fill="none" xmlns="http://www.w3.org/2000/svg">
<rect x="0.5" y="0.5" width="59" height="47" rx="9.5" fill="url(#paint0_linear_2048_17635)"/>
<rect x="0.5" y="0.5" width="59" height="47" rx="9.5" stroke="#47474B"/>
<circle cx="29.87" cy="23.87" r="15.87" fill="#6481E7"/>
<path fill-rule="evenodd" clip-rule="evenodd" d="M30.0557 12.7036V28.724L37.1744 24.5157L30.0557 12.7036Z" fill="#C1CCF5"/>
<path fill-rule="evenodd" clip-rule="evenodd" d="M22.9365 24.5157L30.0552 28.724V12.7036L22.9365 24.5157Z" fill="white"/>
<path fill-rule="evenodd" clip-rule="evenodd" d="M30.0557 21.2803L22.9365 24.5156L30.0552 28.7239L37.1744 24.5161L30.0557 21.2803Z" fill="#8299EC"/>
<path fill-rule="evenodd" clip-rule="evenodd" d="M30.0557 30.0717V35.8981L37.1791 25.8657L30.0557 30.0717Z" fill="#C1CCF5"/>
<path fill-rule="evenodd" clip-rule="evenodd" d="M30.0557 21.2803L22.9365 24.5156L30.0552 28.7239L30.0557 21.2803Z" fill="#C1CCF5"/>
<path fill-rule="evenodd" clip-rule="evenodd" d="M22.9365 25.8657L30.0552 35.8976V30.0717L22.9365 25.8657Z" fill="white"/>
<defs>
<linearGradient id="paint0_linear_2048_17635" x1="30" y1="0" x2="30" y2="48" gradientUnits="userSpaceOnUse">
<stop stop-color="#26262C"/>
<stop offset="1" stop-color="#343439"/>
</linearGradient>
</defs>
</svg>
