<svg width="60" height="48" viewBox="0 0 60 48" fill="none" xmlns="http://www.w3.org/2000/svg">
<rect x="0.5" y="0.5" width="59" height="47" rx="9.5" fill="url(#paint0_linear_2048_17644)"/>
<rect x="0.5" y="0.5" width="59" height="47" rx="9.5" stroke="#47474B"/>
<path fill-rule="evenodd" clip-rule="evenodd" d="M30.1284 40.2584C39.0358 40.2584 46.2568 33.0371 46.2568 24.1292C46.2568 15.2213 39.0358 8 30.1284 8C21.2209 8 14 15.2213 14 24.1292C14 33.0371 21.2209 40.2584 30.1284 40.2584Z" fill="#50AF95"/>
<path fill-rule="evenodd" clip-rule="evenodd" d="M32.0661 25.1059C31.9616 25.1138 31.4217 25.146 30.2174 25.146C29.2595 25.146 28.5794 25.1173 28.3408 25.1059C24.6391 24.9431 21.876 24.2987 21.876 23.5272C21.876 22.7557 24.6391 22.1121 28.3408 21.9467V24.4642C28.5829 24.4816 29.2761 24.5225 30.2339 24.5225C31.3834 24.5225 31.959 24.4746 32.0626 24.465V21.9484C35.7565 22.113 38.5135 22.7574 38.5135 23.5272C38.5135 24.297 35.7574 24.9414 32.0626 25.1051L32.0661 25.1059ZM32.0661 21.6881V19.4353H37.2212V16H23.1857V19.4353H28.34V21.6872C24.1505 21.8796 21 22.7095 21 23.704C21 24.6984 24.1505 25.5274 28.34 25.7207V32.9396H32.0652V25.7181C36.2451 25.5257 39.3904 24.6967 39.3904 23.7031C39.3904 22.7095 36.2477 21.8805 32.0652 21.6872L32.0661 21.6881Z" fill="white"/>
<defs>
<linearGradient id="paint0_linear_2048_17644" x1="30" y1="0" x2="30" y2="48" gradientUnits="userSpaceOnUse">
<stop stop-color="#26262C"/>
<stop offset="1" stop-color="#343439"/>
</linearGradient>
</defs>
</svg>
