<svg width="60" height="48" viewBox="0 0 60 48" fill="none" xmlns="http://www.w3.org/2000/svg">
<rect x="0.5" y="0.5" width="59" height="47" rx="9.5" fill="url(#paint0_linear_2048_17674)"/>
<rect x="0.5" y="0.5" width="59" height="47" rx="9.5" stroke="#47474B"/>
<path fill-rule="evenodd" clip-rule="evenodd" d="M28.7543 29.4939V24.0562H31.5608C32.7108 24.0562 33.6815 23.6708 34.4728 22.9108L34.6627 22.7181C36.1082 21.1446 36.0132 18.6934 34.4728 17.2376C33.7026 16.4669 32.6475 16.0494 31.5608 16.0709H27.0556V29.4939H28.7543ZM28.7544 22.4076V17.7192H31.6036C32.2157 17.7192 32.796 17.9547 33.2287 18.3829C34.1468 19.282 34.1679 20.7806 33.2815 21.7119C32.8488 22.1722 32.2368 22.4291 31.6036 22.4076H28.7544ZM42.5864 21.0269C41.8584 20.3525 40.8666 20.01 39.611 20.01C37.9968 20.01 36.7834 20.6094 35.9816 21.7976L37.4798 22.7502C38.0284 21.9367 38.7775 21.53 39.7271 21.53C40.3285 21.53 40.9088 21.7548 41.3625 22.1615C41.8056 22.5469 42.0588 23.1035 42.0588 23.6922V24.0883C41.4047 23.7243 40.5817 23.5316 39.5688 23.5316C38.3872 23.5316 37.4376 23.81 36.7307 24.3773C36.0238 24.9446 35.665 25.6939 35.665 26.6466C35.6439 27.5136 36.0132 28.3378 36.6674 28.8944C37.3321 29.4939 38.1761 29.7936 39.1679 29.7936C40.3391 29.7936 41.2675 29.2691 41.9744 28.2201H42.0483V29.4939H43.6731V23.8314C43.6731 22.6432 43.3144 21.7012 42.5864 21.0269ZM37.9759 27.8026C37.6277 27.5457 37.4167 27.1283 37.4167 26.6787C37.4167 26.1756 37.6488 25.7581 38.1026 25.4263C38.5669 25.0945 39.1473 24.9232 39.8332 24.9232C40.7829 24.9125 41.5216 25.1266 42.0492 25.5547C42.0492 26.2826 41.7643 26.9142 41.205 27.4494C40.6985 27.9632 40.0126 28.2522 39.295 28.2522C38.8201 28.2629 38.3558 28.1023 37.9759 27.8026ZM47.3237 33.5293L53 20.3097H51.1536L48.5265 26.9035H48.4948L45.8044 20.3097H43.958L47.6824 28.9051L45.5723 33.5293H47.3237Z" fill="white"/>
<path d="M22.8899 22.8787C22.8899 22.3542 22.8476 21.8297 22.7632 21.3159H15.5992V24.281H19.7035C19.5347 25.2336 18.9861 26.09 18.1842 26.6252V28.5519H20.632C22.0669 27.2139 22.8899 25.2336 22.8899 22.8787Z" fill="#4285F4"/>
<path d="M15.5996 30.4144C17.6465 30.4144 19.3768 29.7293 20.6323 28.5519L18.1845 26.6251C17.4987 27.0961 16.623 27.3637 15.5996 27.3637C13.616 27.3637 11.9385 26.0043 11.3371 24.1846H8.81543V26.1755C10.1026 28.7767 12.7298 30.4144 15.5996 30.4144Z" fill="#34A853"/>
<path d="M11.3372 24.1846C11.0207 23.232 11.0207 22.1936 11.3372 21.2303V19.25H8.81518C7.72827 21.4229 7.72827 23.9919 8.81518 26.1649L11.3372 24.1846Z" fill="#FBBC04"/>
<path d="M15.5996 18.0512C16.6863 18.0297 17.7309 18.4472 18.5116 19.2072L20.6851 17.0021C19.3029 15.6962 17.4882 14.9791 15.5996 15.0005C12.7298 15.0005 10.1026 16.6489 8.81543 19.25L11.3371 21.241C11.9385 19.4106 13.616 18.0512 15.5996 18.0512Z" fill="#EA4335"/>
<defs>
<linearGradient id="paint0_linear_2048_17674" x1="30" y1="0" x2="30" y2="48" gradientUnits="userSpaceOnUse">
<stop stop-color="#26262C"/>
<stop offset="1" stop-color="#343439"/>
</linearGradient>
</defs>
</svg>
