<svg width="60" height="48" viewBox="0 0 60 48" fill="none" xmlns="http://www.w3.org/2000/svg">
<rect x="0.5" y="0.5" width="59" height="47" rx="9.5" fill="url(#paint0_linear_2048_17663)"/>
<rect x="0.5" y="0.5" width="59" height="47" rx="9.5" stroke="#47474B"/>
<path fill-rule="evenodd" clip-rule="evenodd" d="M30.4999 32.9915C28.5405 34.6824 25.9987 35.7032 23.2213 35.7032C17.024 35.7032 12 30.6209 12 24.3516C12 18.0823 17.024 13 23.2213 13C25.9988 13 28.5405 14.0208 30.5 15.7117C32.4595 14.0208 35.0012 13 37.7786 13C43.976 13 48.9999 18.0823 48.9999 24.3516C48.9999 30.6209 43.976 35.7032 37.7786 35.7032C35.0012 35.7032 32.4594 34.6824 30.4999 32.9915Z" fill="#ED0006"/>
<path fill-rule="evenodd" clip-rule="evenodd" d="M30.5 32.9914C32.9127 30.9094 34.4427 27.8112 34.4427 24.3516C34.4427 20.8919 32.9127 17.7938 30.5 15.7117C32.4595 14.0208 35.0012 13 37.7787 13C43.976 13 49 18.0823 49 24.3516C49 30.6209 43.976 35.7032 37.7787 35.7032C35.0012 35.7032 32.4595 34.6824 30.5 32.9914Z" fill="#F9A000"/>
<path fill-rule="evenodd" clip-rule="evenodd" d="M30.5001 32.9915C32.9127 30.9094 34.4426 27.8113 34.4426 24.3517C34.4426 20.8921 32.9127 17.794 30.5001 15.7119C28.0874 17.794 26.5575 20.8921 26.5575 24.3517C26.5575 27.8113 28.0874 30.9094 30.5001 32.9915Z" fill="#FF5E00"/>
<defs>
<linearGradient id="paint0_linear_2048_17663" x1="30" y1="0" x2="30" y2="48" gradientUnits="userSpaceOnUse">
<stop stop-color="#26262C"/>
<stop offset="1" stop-color="#343439"/>
</linearGradient>
</defs>
</svg>
