<svg width="121" height="41" viewBox="0 0 121 41" fill="none" xmlns="http://www.w3.org/2000/svg">
<rect x="1.23438" y="0.632812" width="119" height="39" rx="5.5" fill="black"/>
<rect x="1.23438" y="0.632812" width="119" height="39" rx="5.5" stroke="#A6A6A6"/>
<path d="M18.5355 19.5945L8.82031 30.1387C8.82122 30.1406 8.82122 30.1434 8.82214 30.1453C9.12052 31.2902 10.1425 32.1328 11.3561 32.1328C11.8415 32.1328 12.2969 31.9984 12.6874 31.7633L12.7184 31.7446L23.6537 25.2921L18.5355 19.5945Z" fill="#EA4335"/>
<path d="M28.3695 17.797L28.3604 17.7905L23.6392 14.9921L18.3203 19.8322L23.6583 25.2891L28.354 22.5186C29.177 22.0633 29.7364 21.1759 29.7364 20.1532C29.7364 19.1361 29.1853 18.2533 28.3695 17.797Z" fill="#FBBC04"/>
<path d="M8.8238 10.128C8.7654 10.3482 8.73438 10.5796 8.73438 10.8185V29.451C8.73438 29.6899 8.7654 29.9213 8.82471 30.1406L18.873 19.866L8.8238 10.128Z" fill="#4285F4"/>
<path d="M18.6076 20.1328L23.6354 14.9923L12.713 8.51641C12.316 8.27287 11.8525 8.1329 11.357 8.1329C10.1434 8.1329 9.11961 8.97737 8.82122 10.1232C8.82122 10.1242 8.82031 10.1251 8.82031 10.126L18.6076 20.1328Z" fill="#34A853"/>
<path d="M42.5866 11.1328C42.5085 10.8937 42.4055 10.6795 42.2777 10.4901C42.1522 10.2983 42.0019 10.1349 41.8267 10C41.6539 9.86506 41.4574 9.76207 41.2372 9.69105C41.017 9.62003 40.7756 9.58452 40.5128 9.58452C40.0819 9.58452 39.6901 9.69579 39.3374 9.91832C38.9846 10.1409 38.7041 10.4688 38.4957 10.902C38.2874 11.3352 38.1832 11.8667 38.1832 12.4964C38.1832 13.1262 38.2886 13.6577 38.4993 14.0909C38.71 14.5241 38.9953 14.852 39.3551 15.0746C39.715 15.2971 40.1198 15.4084 40.5696 15.4084C40.9863 15.4084 41.3532 15.3196 41.6705 15.142C41.9901 14.9621 42.2386 14.7088 42.4162 14.3821C42.5961 14.053 42.6861 13.666 42.6861 13.2209L42.956 13.2777H40.7685V12.4964H43.5384V13.2777C43.5384 13.8767 43.4105 14.3975 43.1548 14.8402C42.9015 15.2829 42.5511 15.6262 42.1037 15.87C41.6586 16.1115 41.1473 16.2322 40.5696 16.2322C39.9257 16.2322 39.3598 16.0807 38.8722 15.7777C38.3868 15.4747 38.008 15.0438 37.7358 14.4851C37.4659 13.9264 37.331 13.2635 37.331 12.4964C37.331 11.9212 37.4079 11.4039 37.5618 10.9446C37.718 10.483 37.9382 10.09 38.2223 9.76562C38.5064 9.44129 38.8426 9.19271 39.2308 9.01989C39.6191 8.84706 40.0464 8.76065 40.5128 8.76065C40.8963 8.76065 41.2538 8.81866 41.5852 8.93466C41.919 9.0483 42.2161 9.21046 42.4766 9.42116C42.7393 9.6295 42.9583 9.87926 43.1335 10.1705C43.3087 10.4593 43.4295 10.7801 43.4957 11.1328H42.5866ZM45.0467 16.1328V8.86009H49.4359V9.64134H45.9274V12.0987H49.2086V12.88H45.9274V15.3516H49.4927V16.1328H45.0467ZM50.6255 9.64134V8.86009H56.0801V9.64134H53.7931V16.1328H52.9125V9.64134H50.6255ZM61.1325 8.86009V16.1328H60.2518V8.86009H61.1325ZM62.5005 9.64134V8.86009H67.9551V9.64134H65.6681V16.1328H64.7875V9.64134H62.5005ZM78.2631 12.4964C78.2631 13.2635 78.1246 13.9264 77.8477 14.4851C77.5707 15.0438 77.1907 15.4747 76.7077 15.7777C76.2248 16.0807 75.6732 16.2322 75.0529 16.2322C74.4326 16.2322 73.881 16.0807 73.3981 15.7777C72.9151 15.4747 72.5352 15.0438 72.2582 14.4851C71.9812 13.9264 71.8427 13.2635 71.8427 12.4964C71.8427 11.7294 71.9812 11.0665 72.2582 10.5078C72.5352 9.9491 72.9151 9.51823 73.3981 9.2152C73.881 8.91217 74.4326 8.76065 75.0529 8.76065C75.6732 8.76065 76.2248 8.91217 76.7077 9.2152C77.1907 9.51823 77.5707 9.9491 77.8477 10.5078C78.1246 11.0665 78.2631 11.7294 78.2631 12.4964ZM77.4109 12.4964C77.4109 11.8667 77.3055 11.3352 77.0948 10.902C76.8865 10.4688 76.6036 10.1409 76.2461 9.91832C75.891 9.69579 75.4933 9.58452 75.0529 9.58452C74.6126 9.58452 74.2137 9.69579 73.8562 9.91832C73.5011 10.1409 73.2182 10.4688 73.0075 10.902C72.7991 11.3352 72.695 11.8667 72.695 12.4964C72.695 13.1262 72.7991 13.6577 73.0075 14.0909C73.2182 14.5241 73.5011 14.852 73.8562 15.0746C74.2137 15.2971 74.6126 15.4084 75.0529 15.4084C75.4933 15.4084 75.891 15.2971 76.2461 15.0746C76.6036 14.852 76.8865 14.5241 77.0948 14.0909C77.3055 13.6577 77.4109 13.1262 77.4109 12.4964ZM85.511 8.86009V16.1328H84.6587L80.6957 10.4226H80.6246V16.1328H79.744V8.86009H80.5962L84.5735 14.5845H84.6445V8.86009H85.511Z" fill="white"/>
<path d="M94.2525 30.5425H95.8813V19.531H94.2525V30.5425ZM108.923 23.4974L107.056 28.2716H107L105.062 23.4974H103.308L106.214 30.1699L104.558 33.8818H106.256L110.734 23.4974H108.923ZM99.6862 29.2917C99.152 29.2917 98.4083 29.023 98.4083 28.3562C98.4083 27.5071 99.3345 27.1811 100.135 27.1811C100.851 27.1811 101.188 27.3371 101.623 27.5493C101.497 28.5694 100.626 29.2917 99.6862 29.2917ZM99.8826 23.257C98.7034 23.257 97.4813 23.7811 96.9768 24.9429L98.4223 25.5516C98.7313 24.9429 99.3065 24.7438 99.9106 24.7438C100.753 24.7438 101.609 25.2538 101.623 26.1611V26.2739C101.328 26.1039 100.697 25.8493 99.9245 25.8493C98.3664 25.8493 96.7795 26.7134 96.7795 28.328C96.7795 29.8017 98.0574 30.7512 99.489 30.7512C100.584 30.7512 101.188 30.2553 101.567 29.6739H101.623V30.524H103.195V26.3021C103.195 24.3474 101.75 23.257 99.8826 23.257M89.8165 24.8381H87.4998V21.0636H89.8165C91.0342 21.0636 91.7255 22.081 91.7255 22.9504C91.7255 23.804 91.0342 24.8381 89.8165 24.8381ZM89.7746 19.531H85.8719V30.5425H87.4998V26.3708H89.7746C91.5797 26.3708 93.3543 25.0512 93.3543 22.9504C93.3543 20.8496 91.5797 19.531 89.7746 19.531M68.4927 29.2934C67.3675 29.2934 66.4257 28.343 66.4257 27.0376C66.4257 25.718 67.3675 24.7526 68.4927 24.7526C69.6039 24.7526 70.475 25.718 70.475 27.0376C70.475 28.343 69.6039 29.2934 68.4927 29.2934ZM70.3633 24.114H70.3065C69.9408 23.6745 69.2381 23.2772 68.3521 23.2772C66.4955 23.2772 64.7943 24.9226 64.7943 27.0376C64.7943 29.1375 66.4955 30.7697 68.3521 30.7697C69.2381 30.7697 69.9408 30.3725 70.3065 29.9179H70.3633V30.4579C70.3633 31.891 69.6039 32.6574 68.3801 32.6574C67.3815 32.6574 66.7626 31.9333 66.5095 31.3229L65.0893 31.9192C65.4969 32.9128 66.5802 34.1328 68.3801 34.1328C70.2926 34.1328 71.91 32.9974 71.91 30.2306V23.5036H70.3633V24.114ZM73.0352 30.5425H74.6666V19.5301H73.0352V30.5425ZM77.0706 26.9098C77.0287 25.4626 78.1817 24.7244 79.011 24.7244C79.6587 24.7244 80.2068 25.0504 80.3893 25.519L77.0706 26.9098ZM82.1333 25.6608C81.8243 24.824 80.8816 23.2772 78.9551 23.2772C77.0426 23.2772 75.454 24.7949 75.454 27.0235C75.454 29.1234 77.0287 30.7697 79.1376 30.7697C80.8397 30.7697 81.8243 29.7198 82.2319 29.1093L80.9663 28.2575C80.5447 28.8821 79.9677 29.2934 79.1376 29.2934C78.3083 29.2934 77.7174 28.9103 77.3377 28.1589L82.3018 26.0862L82.1333 25.6608ZM42.5845 24.4267V26.0158H46.3527C46.2401 26.9098 45.9451 27.5625 45.4956 28.0162C44.9465 28.5702 44.0885 29.1807 42.5845 29.1807C40.2635 29.1807 38.4496 27.293 38.4496 24.9517C38.4496 22.6095 40.2635 20.7227 42.5845 20.7227C43.8362 20.7227 44.7501 21.2195 45.4249 21.8582L46.536 20.7368C45.5933 19.8287 44.3425 19.1328 42.5845 19.1328C39.4063 19.1328 36.7344 21.7445 36.7344 24.9517C36.7344 28.1589 39.4063 30.7697 42.5845 30.7697C44.2997 30.7697 45.5933 30.2016 46.6059 29.1375C47.6472 28.0875 47.9702 26.6121 47.9702 25.4194C47.9702 25.0504 47.9423 24.7104 47.8855 24.4267H42.5845ZM52.2552 29.2934C51.1301 29.2934 50.1594 28.3571 50.1594 27.0235C50.1594 25.6749 51.1301 24.7526 52.2552 24.7526C53.3795 24.7526 54.3501 25.6749 54.3501 27.0235C54.3501 28.3571 53.3795 29.2934 52.2552 29.2934ZM52.2552 23.2772C50.2013 23.2772 48.528 24.8522 48.528 27.0235C48.528 29.1807 50.2013 30.7697 52.2552 30.7697C54.3082 30.7697 55.9816 29.1807 55.9816 27.0235C55.9816 24.8522 54.3082 23.2772 52.2552 23.2772ZM60.3844 29.2934C59.2593 29.2934 58.2886 28.3571 58.2886 27.0235C58.2886 25.6749 59.2593 24.7526 60.3844 24.7526C61.5096 24.7526 62.4794 25.6749 62.4794 27.0235C62.4794 28.3571 61.5096 29.2934 60.3844 29.2934ZM60.3844 23.2772C58.3314 23.2772 56.6581 24.8522 56.6581 27.0235C56.6581 29.1807 58.3314 30.7697 60.3844 30.7697C62.4375 30.7697 64.1108 29.1807 64.1108 27.0235C64.1108 24.8522 62.4375 23.2772 60.3844 23.2772Z" fill="white"/>
</svg>
