<svg width="43"  height="43" viewBox="0 0 25 25" fill="none" xmlns="http://www.w3.org/2000/svg">
<path d="M12.4999 0.133789C5.88306 0.133789 0.5 5.51701 0.5 12.1339C0.5 18.7506 5.88306 24.1338 12.4999 24.1338C19.1168 24.1338 24.4999 18.7506 24.4999 12.1339C24.4999 5.51701 19.1168 0.133789 12.4999 0.133789ZM12.4999 22.5949C6.73155 22.5949 2.03874 17.9021 2.03874 12.1339C2.03874 6.36549 6.73155 1.67268 12.4999 1.67268C18.2683 1.67268 22.9611 6.36549 22.9611 12.1339C22.9611 17.9021 18.2683 22.5949 12.4999 22.5949Z" fill="#1D44FF"/>
<g clip-path="url(#clip0_2427_33538)">
<path fill-rule="evenodd" clip-rule="evenodd" d="M10.4954 12.8892L6 7.17017H9.56067L12.3356 10.7049L15.3003 7.18608H17.2613L13.2838 11.9127L18 17.9202H14.45L11.4452 14.0976L8.23738 17.9096H6.26572L10.4954 12.8892ZM14.9674 16.8605L8.18328 8.2298H9.04283L15.8184 16.8605H14.9674Z" fill="#1D44FF"/>
</g>
<defs>
<clipPath id="clip0_2427_33538">
<rect width="12" height="12" fill="white" transform="translate(6.5 6.13379)"/>
</clipPath>
</defs>
</svg>
