<svg width="24" height="25" viewBox="0 0 24 25" fill="none" xmlns="http://www.w3.org/2000/svg">
<path d="M12.0001 0.629639C5.38321 0.629639 0.000152588 6.01283 0.000152588 12.6297C0.000152588 19.2464 5.38321 24.6296 12.0001 24.6296C18.6169 24.6296 24 19.2464 24 12.6297C24 6.01283 18.6169 0.629639 12.0001 0.629639ZM12.0001 23.0907C6.23202 23.0907 1.53918 18.3979 1.53918 12.6297C1.53918 6.86147 6.23202 2.16866 12.0001 2.16866C17.7684 2.16866 22.4612 6.86147 22.4612 12.6297C22.4612 18.3979 17.7684 23.0907 12.0001 23.0907Z" fill="#1D44FF"/>
<g clip-path="url(#clip0_1886_2780)">
<path d="M16.1653 8.74354C15.3885 8.38011 14.5579 8.11597 13.6896 7.96558C13.583 8.15838 13.4584 8.41771 13.3725 8.624C12.4494 8.48518 11.5348 8.48518 10.6287 8.624C10.5428 8.41771 10.4154 8.15838 10.3078 7.96558C9.43856 8.11597 8.60703 8.38108 7.83025 8.74547C6.26347 11.1131 5.83875 13.4219 6.05111 15.6979C7.09028 16.4739 8.09736 16.9453 9.08744 17.2538C9.3319 16.9173 9.54992 16.5597 9.73774 16.1828C9.38003 16.0469 9.03742 15.8791 8.71369 15.6844C8.79957 15.6208 8.88358 15.5542 8.96474 15.4858C10.9392 16.4093 13.0846 16.4093 15.0355 15.4858C15.1176 15.5542 15.2016 15.6208 15.2866 15.6844C14.9619 15.8801 14.6183 16.0478 14.2606 16.1837C14.4485 16.5597 14.6655 16.9183 14.9109 17.2547C15.902 16.9463 16.91 16.4749 17.9492 15.6979C18.1983 13.0594 17.5235 10.7718 16.1653 8.74354ZM10.0067 14.2981C9.41401 14.2981 8.92793 13.7448 8.92793 13.071C8.92793 12.3971 9.40363 11.8428 10.0067 11.8428C10.6099 11.8428 11.0959 12.3962 11.0856 13.071C11.0865 13.7448 10.6099 14.2981 10.0067 14.2981ZM13.9935 14.2981C13.4008 14.2981 12.9147 13.7448 12.9147 13.071C12.9147 12.3971 13.3904 11.8428 13.9935 11.8428C14.5966 11.8428 15.0827 12.3962 15.0723 13.071C15.0723 13.7448 14.5966 14.2981 13.9935 14.2981Z" fill="#1D43FF"/>
</g>
<defs>
<clipPath id="clip0_1886_2780">
<rect width="12" height="12" fill="white" transform="translate(6.00015 6.62964)"/>
</clipPath>
</defs>
</svg>
