<svg width="24" height="24" viewBox="0 0 24 24" fill="none" xmlns="http://www.w3.org/2000/svg">
<path d="M11.8286 10.1486C12.4574 9.50606 13.2761 9.08571 14.2286 9.08571C15.2288 9.08571 16.1881 9.48306 16.8954 10.1903C17.6027 10.8976 18 11.8569 18 12.8571V18H16.6286V12.8571C16.6286 12.2206 16.3757 11.6102 15.9256 11.1601C15.4755 10.71 14.8651 10.4571 14.2286 10.4571C13.5921 10.4571 12.9816 10.71 12.5315 11.1601C12.0814 11.6102 11.8286 12.2206 11.8286 12.8571V18H10.4571V9.42857H11.8286V10.1486ZM7.02857 8.05714C6.75578 8.05714 6.49416 7.94878 6.30126 7.75588C6.10837 7.56299 6 7.30137 6 7.02857C6 6.75578 6.10837 6.49416 6.30126 6.30126C6.49416 6.10837 6.75578 6 7.02857 6C7.30137 6 7.56299 6.10837 7.75588 6.30126C7.94878 6.49416 8.05714 6.75578 8.05714 7.02857C8.05714 7.30137 7.94878 7.56299 7.75588 7.75588C7.56299 7.94878 7.30137 8.05714 7.02857 8.05714ZM6.34286 9.42857H7.71429V18H6.34286V9.42857Z" fill="#1D43FF"/>
<path d="M11.9999 0C5.38306 0 0 5.38319 0 12.0001C0 18.6167 5.38306 24 11.9999 24C18.6168 24 23.9998 18.6167 23.9998 12.0001C23.9998 5.38319 18.6168 0 11.9999 0ZM11.9999 22.4611C6.23187 22.4611 1.53903 17.7683 1.53903 12.0001C1.53903 6.23183 6.23187 1.53902 11.9999 1.53902C17.7683 1.53902 22.4611 6.23183 22.4611 12.0001C22.4611 17.7683 17.7683 22.4611 11.9999 22.4611Z" fill="#1D44FF"/>
</svg>
