<svg width="24" height="24" viewBox="0 0 24 24" fill="none" xmlns="http://www.w3.org/2000/svg">
<g clip-path="url(#clip0_6704_20471)">
<path d="M11.9999 0C5.38307 0 0 5.38319 0 12.0001C0 18.6168 5.38307 24 11.9999 24C18.6168 24 23.9999 18.6168 23.9999 12.0001C23.9999 5.38319 18.6168 0 11.9999 0ZM11.9999 22.4611C6.23188 22.4611 1.53903 17.7683 1.53903 12.0001C1.53903 6.23184 6.23188 1.53903 11.9999 1.53903C17.7683 1.53903 22.4611 6.23184 22.4611 12.0001C22.4611 17.7683 17.7683 22.4611 11.9999 22.4611Z" fill="#1D44FF"/>
<path d="M8.51256 7.55554C11.0048 7.55554 13.025 9.58983 13.025 12.0991C13.025 14.6083 11.0046 16.6424 8.51256 16.6424C6.02049 16.6424 4 14.6083 4 12.0991C4 9.58983 6.02033 7.55554 8.51256 7.55554ZM15.7188 7.82169C16.9649 7.82169 17.9751 9.73655 17.9751 12.0991H17.9752C17.9752 14.461 16.9651 16.3764 15.7189 16.3764C14.4728 16.3764 13.4627 14.461 13.4627 12.0991C13.4627 9.73716 14.4727 7.82169 15.7188 7.82169ZM19.2065 8.26721C19.6446 8.26721 20 9.98276 20 12.0991C20 14.2148 19.6448 15.9309 19.2065 15.9309C18.7681 15.9309 18.4131 14.2152 18.4131 12.0991C18.4131 9.98292 18.7683 8.26721 19.2065 8.26721Z" fill="#1D44FF"/>
</g>
<defs>
<clipPath id="clip0_6704_20471">
<rect width="24" height="24" fill="white"/>
</clipPath>
</defs>
</svg>
