<svg width="60" height="60" viewBox="0 0 60 60" fill="none" xmlns="http://www.w3.org/2000/svg">
<g clipPath="url(#clip0_19_14)">
<path d="M28.4863 59.9693C21.8499 59.4002 16.9233 57.6423 12.1644 54.1454C4.44376 48.4721 0 39.6468 0 29.9869C0 15.1116 10.5068 2.79839 25.2744 0.36718C31.3025 -0.625232 37.9783 0.416445 43.5624 3.22081C57.1386 10.0389 63.3437 25.7619 58.205 40.324C54.6771 50.3217 45.4153 57.9418 34.8139 59.5689C32.7283 59.889 29.7488 60.0776 28.4863 59.9693Z" fill="#FF4500"/>
<path d="M34.1336 43.9992C35.7673 43.616 36.9501 43.2052 38.1118 42.6177C41.7271 40.789 43.9906 37.7531 43.9906 34.7327C43.9906 33.8196 44.0102 33.7771 44.7713 33.0404C45.3753 32.4557 45.6117 32.0779 45.8159 31.3706C46.0593 30.528 46.06 30.3879 45.826 29.5827C45.1693 27.3239 42.8205 26.3063 40.7185 27.3698L39.906 27.7809L39.0687 27.2657C37.4586 26.275 34.5948 25.3046 32.7482 25.1241C32.2423 25.0747 31.6044 25.0006 31.3308 24.9595L30.8332 24.8847L31.0469 23.8152C31.1644 23.227 31.4093 22.066 31.591 21.2353C31.7728 20.4046 32.0006 19.2778 32.0972 18.7313C32.2368 17.9414 32.332 17.7377 32.5617 17.7377C32.7206 17.7377 33.8572 17.9523 35.0875 18.2146C36.3178 18.477 37.3497 18.6916 37.3806 18.6916C37.4116 18.6916 37.4809 18.9266 37.5348 19.2138C37.6711 19.9404 38.0251 20.3916 38.7483 20.7605C40.4839 21.6459 42.4374 20.4662 42.4374 18.5326C42.4374 16.137 39.4836 15.0907 37.9824 16.9547C37.6923 17.3149 37.5468 17.3809 37.267 17.2792C37.0738 17.209 35.7468 16.9122 34.3179 16.6198C32.4256 16.2325 31.6493 16.1327 31.4596 16.2524C31.17 16.4351 31.2074 16.3001 30.4095 20.0429C29.4604 24.4948 29.4031 24.747 29.3213 24.8288C29.278 24.872 28.5917 24.9747 27.7961 25.057C25.3825 25.3067 22.7299 26.159 20.9417 27.2593L20.1148 27.7681L19.3028 27.3634C17.183 26.3071 14.8303 27.3252 14.174 29.5827C13.94 30.3879 13.9407 30.528 14.1841 31.3706C14.3883 32.0779 14.6247 32.4557 15.2287 33.0404C15.9898 33.7771 16.0094 33.8196 16.0094 34.7327C16.0094 38.9051 20.2976 42.8868 26.0254 44.033C27.923 44.4127 28.0517 44.4224 30.477 44.3679C32.0619 44.3323 33.2044 44.2171 34.1336 43.9992ZM27.4471 40.9691C26.1317 40.673 24.6439 40.0122 24.208 39.5305C23.8604 39.1464 24.009 38.5646 24.4547 38.5646C24.6283 38.5646 25.0349 38.7451 25.3582 38.9658C27.541 40.4558 32.4667 40.4504 34.6569 38.9556C35.3623 38.4741 35.9396 38.4874 36.0107 38.9868C36.0442 39.2218 35.8943 39.4555 35.5336 39.7306C33.7824 41.0663 30.2689 41.6044 27.4471 40.9691ZM23.4352 35.0616C22.6161 34.6172 22.2111 33.9083 22.2104 32.9178C22.2096 31.7825 22.7369 31.0479 23.8082 30.692C24.5706 30.4388 24.6616 30.4388 25.3251 30.6922C27.1105 31.374 27.4758 33.6015 25.9975 34.7918C25.227 35.4122 24.2676 35.5132 23.4352 35.0616ZM34.531 35.1349C33.772 34.7401 33.3477 34.2602 33.1682 33.5934C32.836 32.3598 33.4614 31.1557 34.6749 30.6922C35.3384 30.4388 35.4294 30.4388 36.1918 30.692C37.2631 31.0479 37.7905 31.7825 37.7896 32.9178C37.7888 33.9263 37.3758 34.6295 36.5309 35.0605C35.7709 35.4482 35.1761 35.4703 34.531 35.1349Z" fill="#FDFDFD"/>
</g>
<defs>
<clipPath id="clip0_19_14">
<rect width="60" height="60" fill="white"/>
</clipPath>
</defs>
</svg>
