<svg width="43" height="43" viewBox="0 0 43 43" fill="none" xmlns="http://www.w3.org/2000/svg">
<path d="M21.9008 0.880859C10.3214 0.880859 0.901001 10.3014 0.901001 21.881C0.901001 33.4602 10.3214 42.8808 21.9008 42.8808C33.4803 42.8808 42.9007 33.4602 42.9007 21.881C42.9007 10.3014 33.4803 0.880859 21.9008 0.880859ZM21.9008 40.1877C11.8068 40.1877 3.5943 31.9753 3.5943 21.881C3.5943 11.7866 11.8068 3.57415 21.9008 3.57415C31.9955 3.57415 40.2079 11.7866 40.2079 21.881C40.2079 31.9753 31.9955 40.1877 21.9008 40.1877Z" fill="#1D44FF"/>
<path d="M11.7985 21.5321L24.2572 16.3989C25.487 15.8642 29.6577 14.1532 29.6577 14.1532C29.6577 14.1532 31.5827 13.4046 31.4223 15.2226C31.3688 15.9712 30.941 18.5912 30.5133 21.4252L29.1765 29.8201C29.1765 29.8201 29.0696 31.0499 28.1606 31.2638C27.2516 31.4777 25.7544 30.5152 25.487 30.3013C25.2731 30.1409 21.4767 27.7347 20.0865 26.5584C19.7122 26.2376 19.2844 25.5959 20.1399 24.8473C22.0649 23.0828 24.3641 20.8905 25.7544 19.5002C26.396 18.8586 27.0377 17.3614 24.3641 19.1794L16.8248 24.2591C16.8248 24.2591 15.9692 24.7938 14.3651 24.3126C12.761 23.8314 10.8895 23.1897 10.8895 23.1897C10.8895 23.1897 9.60621 22.3877 11.7985 21.5321Z" fill="#1D44FF"/>
</svg>
