<svg width="33" height="33" viewBox="0 0 33 33" fill="none" xmlns="http://www.w3.org/2000/svg">
<path d="M16.8334 0.178223C8.01091 0.178223 0.833496 7.35585 0.833496 16.1783C0.833496 25.0006 8.01091 32.1782 16.8334 32.1782C25.6559 32.1782 32.8333 25.0006 32.8333 16.1783C32.8333 7.35585 25.6559 0.178223 16.8334 0.178223ZM16.8334 30.1264C9.14223 30.1264 2.88515 23.8692 2.88515 16.1783C2.88515 8.48716 9.14223 2.23008 16.8334 2.23008C24.5245 2.23008 30.7817 8.48716 30.7817 16.1783C30.7817 23.8692 24.5245 30.1264 16.8334 30.1264Z" fill="#1D44FF"/>
<g clip-path="url(#clip0_1886_3059)">
<path fill-rule="evenodd" clip-rule="evenodd" d="M15.065 16.426L9.33337 9.13428H13.8732L17.4113 13.6411L21.1911 9.15457H23.6914L18.6202 15.181L24.6333 22.8404H20.107L16.276 17.9666L12.186 22.8269H9.67217L15.065 16.426ZM20.7667 21.4894L12.117 10.4853H13.2129L21.8517 21.4894H20.7667Z" fill="#1D44FF"/>
</g>
<defs>
<clipPath id="clip0_1886_3059">
<rect width="15.2999" height="15.2999" fill="white" transform="translate(9.33337 8.49561)"/>
</clipPath>
</defs>
</svg>
